<svg id="lizard" data-name="Layer 1" xmlns="http://www.w3.org/2000/svg" viewBox="0 0 304.62 351.17">
  <defs>
    <style>
      .cls-1 {
        fill: #19171c;
      }
    </style>
  </defs>
  <title>lizard</title>
  <g>
    <path class="cls-1" d="M259.95,149.93l-0.55-.32-0.26-.14c0.76,0.46,1.22.75,1.54,1a2.26,2.26,0,0,0-.21-0.16Z"/>
    <path class="cls-1" d="M261.15,158.94v0.2l0,0.2C261.42,159.08,261.45,158.9,261.15,158.94Z"/>
    <path class="cls-1" d="M131.66,233c0.55-.45,1.15-0.84,1.59-1.13l0.74-.49a23.81,23.81,0,0,0-4.54,3.44S130.5,233.85,131.66,233Z"/>
    <path class="cls-1" d="M162,163.78c-0.49.06-1,.1-1.35,0.1l-0.62,0a18.2,18.2,0,0,0,3.06.37,1.52,1.52,0,0,0,.94-0.12c0.16-.16-0.36-0.41-0.11-0.61a5.71,5.71,0,0,1-.6.09Z"/>
    <path class="cls-1" d="M138.42,41.2a10.54,10.54,0,0,1,.92-1.24C139.35,39.77,138.9,40.31,138.42,41.2Z"/>
    <path class="cls-1" d="M24,190.67v0.22C24.15,190.14,24.12,190.27,24,190.67Z"/>
    <path class="cls-1" d="M238.47,79.14L239,79.22C241.53,78.86,240.42,78.92,238.47,79.14Z"/>
    <path class="cls-1" d="M79.9,325.44l-0.29,0,0.37,0Z"/>
    <path class="cls-1" d="M88.91,325a21.72,21.72,0,0,1-8.92.54l2.92,2.56Z"/>
    <path class="cls-1" d="M263,155c0-.41-0.09-0.65-0.09-0.65C262.9,154.56,262.93,154.77,263,155Z"/>
    <path class="cls-1" d="M25,290.86l-0.26-1a3.66,3.66,0,0,0-.62-0.1Z"/>
    <path class="cls-1" d="M180.85,76.16l0.85,0Z"/>
    <path class="cls-1" d="M151.26,58.89l0.55,0Z"/>
    <path class="cls-1" d="M129.47,235.4a1.32,1.32,0,0,1,1-.27C130.85,234.45,130.74,234.29,129.47,235.4Z"/>
    <path class="cls-1" d="M164.65,163.42l-0.34,0a0.84,0.84,0,0,0-.36.16Z"/>
    <path class="cls-1" d="M27.76,224.45a17.84,17.84,0,0,1-.5,3.36C27.49,227.91,27.69,227.12,27.76,224.45Z"/>
    <polygon class="cls-1" points="75.81 68.34 79.38 63.4 78.22 64.79 75.81 68.34"/>
    <path class="cls-1" d="M41.89,122.33l1,0.82s0.29-.73.61-1.44l0.62-1.44A10,10,0,0,1,41.89,122.33Z"/>
    <path class="cls-1" d="M35.06,137.07c0,0.73-2.84,9,.33,1.46C35.31,137.79,37.92,131.81,35.06,137.07Z"/>
    <path class="cls-1" d="M31.69,318c0-.17-0.06-0.3-0.1-0.42a1.36,1.36,0,0,0-.45-0.79,1.06,1.06,0,0,1-.39-0.74,11,11,0,0,1,.14-3c-0.2-.91-0.4.52-0.54,1.83s-0.16,2.51-.41,1.72c0.08,0.51.17,1,.26,1.38l0.14,0.76,0.12,0.73a16.06,16.06,0,0,0,.38,1.91c0.26,0.79.52,0.8,1.08-.18,0-.85-0.06-1.62-0.12-2.28C31.78,318.6,31.73,318.27,31.69,318Z"/>
    <path class="cls-1" d="M29.95,316.6l-0.32-2.18A10.73,10.73,0,0,0,29.95,316.6Z"/>
    <path class="cls-1" d="M222.18,163.85l-1.47.36c-1.08.25-2.13,0.58-2.13,0.58l-0.25.47a21.56,21.56,0,0,0,4.52-1.56S222.57,163.74,222.18,163.85Z"/>
    <polygon class="cls-1" points="257 149.46 255.72 147.52 256.06 148.97 257 149.46"/>
    <path class="cls-1" d="M210.56,148.78c0.5-.14,1-0.3,1.58-0.5C211.62,148.42,211.09,148.6,210.56,148.78Z"/>
    <path class="cls-1" d="M210.56,148.78c-3.65,1-6,.84-5,1.86C207.11,150.1,208.86,149.36,210.56,148.78Z"/>
    <path class="cls-1" d="M4.85,302.46l-0.09-2.35C4.76,301.22,4.8,301.93,4.85,302.46Z"/>
    <path class="cls-1" d="M3.83,319.4l0.37,0.44C4,319,3.89,318.71,3.83,319.4Z"/>
    <path class="cls-1" d="M129.45,345.28l0.7-.45,0.7-.54-0.68.5c-0.43.28-1,.62-1.61,1a16.29,16.29,0,0,1-1.68.83l-0.78.34c0.57-.21,1.26-0.5,2.09-0.89Z"/>
    <path class="cls-1" d="M4.2,209.85L3.32,207.1C3.33,211.4,3.77,209.51,4.2,209.85Z"/>
    <path class="cls-1" d="M214.93,0.27c0.25,0,.54.06,0.76,0.1C215.77,0.25,215.43.25,214.93,0.27Z"/>
    <path class="cls-1" d="M278.26,142.32l0.1,0.17C278.15,141.83,278.18,141.94,278.26,142.32Z"/>
    <path class="cls-1" d="M58.78,64.72c0.1-.11.21-0.24,0.33-0.35C60.06,62.32,59.56,63.16,58.78,64.72Z"/>
    <path class="cls-1" d="M162.58,241.34l0.23-.14-0.33.1Z"/>
    <path class="cls-1" d="M159.12,240s-0.86,1.23-1.81,2.5c-0.47.63-1,1.26-1.41,1.74s-0.72.79-.72,0.79a34.54,34.54,0,0,1,3.94-2.46,12.93,12.93,0,0,1,1.58-.66l1.78-.57-1.72-.66Z"/>
    <path class="cls-1" d="M4.63,310.06l0-1A9.83,9.83,0,0,0,4.63,310.06Z"/>
    <path class="cls-1" d="M304.61,29.18a21.54,21.54,0,0,0-1.33-7.39,16.55,16.55,0,0,0-4.34-6.59c-0.54-1-.12-0.75.4-0.32s1.06,1,.89.35c-0.53-.47-1.1-1-1.69-1.49l-1.89-1.81a46.82,46.82,0,0,0-5.54-4.74l0.69,0.21A33.63,33.63,0,0,0,281.45,3a47.28,47.28,0,0,0-9.34-1.3c-5.7-.25-11.64-0.59-20.24-0.86l1.27,0.95a38.61,38.61,0,0,1-6.2-.66c-4.24,1.43,10.38.09,6.51,1.67-4.9-1.93-26.05,0-29.36-2.23-5.68,0,1.66,1.1-4,1.08l-1.51-.59-1.44.76c-3.73-.13-5.6-0.87-5.74-1.37,0.9,0.06,2.57-.14,3.54-0.18-4.49-.65-12.41.11-14.83,0l5,0.34c-15.51.55-34.45-.24-49.44,1L156.81,2c-11.45.82-9.16-.5-21.73-0.12l0.46-.11c-2.46.45-6,.6-9.58,0.92,1.63-.39.06-0.55-1.42-0.62s-2.86-.15-0.67-0.74a43.44,43.44,0,0,0-6.61,1.8,12.49,12.49,0,0,0-2.41,1.09c-0.48.28-.81,0.57-1.49,1.06s-1.73,1.18-3.5,2.46l-1.06.09c-0.54,0-1.06.13-1.06,0.13-1.16,1-1.71,1.62-2.67,2.44s-2.31,1.85-4.73,4c0.91-1,1.15-1.35,1-1.44a2.1,2.1,0,0,0-1.09.3c-0.93.39-1.89,0.72,0.26-1.58-0.77.46-1.47,1-2.16,1.46s-1.23.93-1.81,1.4c-1.14.92-2.17,1.83-3.11,2.73a67.26,67.26,0,0,0-4.73,5.05C86,25.53,84.08,28,81.16,29.69c-1.19,3.11.86,0.92,3.09-1.47s4.67-5,3.62-3.63c1.25-.8.62,0.37-0.65,2.12s-3.15,4.13-4.54,5.71a44.71,44.71,0,0,1-5,4.53,42.64,42.64,0,0,0-7.43,8.57c0.6-.87.52-1,1.12-1.87-2.68,3-3.8,6.81-7.24,10.36-0.5,3-3.6,5.19-2.72,6.73l5.14-8.25c-2.76,4.79-4.11,10.1-9.9,17.14a31.76,31.76,0,0,1,2.12-4.91c-1.86,1.95-2.59,4.42-4.51,6.44-0.89-1.54,6.27-10,8.59-15.58-2.16,2-5.29,9.91-5.06,6.49-0.57,4.75-6,8.52-8.62,15.43l-0.53-.92a39.21,39.21,0,0,1-2.6,5l1.06-3.84c-2.32,5.43-6.93,8.86-9.5,13.84C44,81.77,40,90,43.28,86.24,36.59,98.78,36.65,92,28.7,105c1.38-2.12,4.38-5.63,3-2.83a63.52,63.52,0,0,1-5.76,7,25.87,25.87,0,0,0-2.13,3.81c-0.13.43,0.2,0.15,0.64-.29,0.88-.85,2.21-2.29,1.24-0.22a8.36,8.36,0,0,0-2.59,3.92,45.28,45.28,0,0,1-1.85,5.28l-0.87-.43a27.47,27.47,0,0,0-2.66,5.38,3.36,3.36,0,0,0-.18,1.89c0.16,0.82.32,1.44-2.12,6.49,0,0,.1-1.23.27-2.45L16,130.05l-1,2.79c-0.26.69-.47,1.4-0.64,1.93l-0.28.88-0.59-1.54c-0.38,1.59-.75,2.87-1.05,4s-0.6,2.17-.93,3.16l-1,3.1c-0.4,1.11-.83,2.35-1.28,3.86,0.51-.63.88-0.31,1,0.82a13.62,13.62,0,0,1-.12,2.3,31.81,31.81,0,0,1-.57,3.48c-1.28,3.59-.55-2.27-1.8,5.49a13,13,0,0,1-.27-3.05,9.44,9.44,0,0,1,1.15-4.06c-0.23-.41-0.21-1.85-0.44-2.28C6.54,154.85,6,161.13,5.66,164a24.09,24.09,0,0,1,.67-3l-0.05,1.81c0,1.08,0,2.53,0,4s0,2.87.08,3.95l0.07,1.79c-0.5,1.76-.68.33-0.86-1.1-0.09,2.32.3,3.94,0.26,7.33-0.77-.9-1.59-0.7-1.73-5.58,0,0,0,.69,0,1.72s0.07,2.41.15,3.78l0.26,3.76L4.67,184c-0.34.71-.93,5.41-1.22,4C3,193.89,5,202.36,4.38,210.1A11.55,11.55,0,0,1,4.79,213c-0.17,7.27-1.13,13.72,0,22.34l-1.4,4.89c0.32,6.75,1.77-6.62,2.31,4.62,0.46,8-1.2,3-1.59,5.76a69.32,69.32,0,0,1,1.44,12H4.93c0-.13,0-0.25,0-0.38l-0.05.38H3.38C3,259,3,257.64,2.2,261.35a1.59,1.59,0,0,1,.8,1.17H0l3.68,8.33c0.08,5.83,0,12.16,1.5,12.58l-0.57,3.68c0-1.05-.13-1.22-0.1-2.26-0.65,3.57-.16,4.9.44,6.49a15.68,15.68,0,0,1,.86,2.87,15.79,15.79,0,0,1,.14,5c-0.39,3.19-.91,5.4-1.11,3.21l0.27,7.13c-0.14,1.68-.46,1.65-0.48.47l-0.36,9.87-0.08-.08c0.21,0.85.38,2.28,0.71,3.69,0.17,0.71.3,1.41,0.47,2.06l0.47,1.68c0,1.53-.08,1.18-0.27.52s-0.32-1.6-.44-1.19l0.23,1c0.14,0.62.41,1.43,0.64,2.24s0.59,1.6.8,2.19a7.16,7.16,0,0,0,.3.71L7.24,333c0.16,1.42-.45.9-1.21-0.65a19.58,19.58,0,0,1-1.6-6.47,15,15,0,0,0-.5,2.21,9.26,9.26,0,0,0,0,1.78,10.9,10.9,0,0,0,1,3.18L5.91,335c0.34,0.72.83,1.51,1.3,2.46a32.37,32.37,0,0,0,5.37,7.27L11.63,344a19.82,19.82,0,0,1-1.92-1.79c-0.67-.68-1.21-1.42-1.67-2a7.5,7.5,0,0,1-.49-0.68l-0.17-.26a13.72,13.72,0,0,0,4.86,7.13,23.29,23.29,0,0,0,11.44,4.77,29.25,29.25,0,0,1-3.71-1.1c-0.41-.16-0.85-0.3-1.27-0.52l-1.25-.66a13.73,13.73,0,0,1-2.2-1.48A8.49,8.49,0,0,1,13.76,346a2.22,2.22,0,0,1-.56-0.92c0-.18.17-0.22,0.58-0.08s1,0.5,2,.91a15.21,15.21,0,0,0,1.75,1,16.45,16.45,0,0,0,2.23.77q0.62,0.13,1.3.25L21.8,348l0.72,0q0.74,0,1.53,0c0.46,0,.85-0.09,1.3-0.14,0,1,3.47.8,7.79,0.84L32.82,350c4.68-.27,4.32-0.93,7.08-1.45,5.2,0.24,6.26,1.25,7.46,2.11,8.33,0.38-5.72-1.71,4.15-1.74,6.92,0.63,11.8.21,20.11-.38,4.84,0.54-.87.76,0.86,1.17l4.32-.93c1.05,0,.7.35,0.53,0.51,3.63-.32.33-1.27,6-1.5,1.57-1.38,11.64,2.3,18.73.85,1.73,0.4-.86.77-0.34,1.27,9.72-.85,8.26-0.57,16.34-1.85l1.26,0.08a7.6,7.6,0,0,0,1.29,0c0.47,0,1,0,1.49-.13a18.08,18.08,0,0,0,2.73-.64l1.22-.4c-3,.79-2.64.07-1.18-1.14,0.38-.29.78-0.68,1.23-1.1l0.71-.64,0.69-.75c0.23-.26.48-0.51,0.72-0.78l0.67-.86a16.07,16.07,0,0,0,1.23-1.78l-0.61.4q0.61-.65,1.19-1.38a9.52,9.52,0,0,1-.58,1,10.08,10.08,0,0,0,.86-0.6c0.14-.47.29-0.89,0.41-1.31a24.64,24.64,0,0,0,2.22-3.82,0.29,0.29,0,0,1,.13.16,5.73,5.73,0,0,1-.24,2.69c-0.41.42-.8,0.84-1.23,1.21l-1.3,1.07c-0.77,2.22-2,4.35-1.12,4.6,0.2-.28.51-0.65,0.89-1.08s0.76-1,1.2-1.49c-0.27.62-.42,1.06-0.12,0.92a7.33,7.33,0,0,0,1.55-2.64l0.39-.15a8.64,8.64,0,0,0,.84-0.37l1.21-.61-0.19-.77a3.92,3.92,0,0,0,.31-0.48l0.76-1.29a20.07,20.07,0,0,0,1-1.88c0.17-.35.35-0.71,0.51-1.08l0.45-1.15,0.44-1.15,0.35-1.14c0.21-.74.46-1.43,0.56-2l0.43-2c-0.07-1.17-.19-2.4-0.34-3.44l-0.51-3c-0.34-2-.67-4.15-0.94-6.41a107.12,107.12,0,0,1-.75-16.25c0.82,3.34,1.66.82,2.88,1.08-1.55,3.5-.15,10.21-0.73,17,0.31-3.53.87-2.72,1-1.81l-0.26-6.08-0.21-6.1c1,0.34.93-2.52,1.57-5.67-1.14,1.19-1.27-1.4-1.18-4.88l0.24-8.85L140.54,283a12.49,12.49,0,0,0-.73-1.89,23.5,23.5,0,0,0-1.2-2.14l-0.17-.28-0.09-.14-0.06-.07-0.28-.28a0.49,0.49,0,0,0-.18-0.12,0.91,0.91,0,0,1-.07-0.17q-0.07-.17-0.13-0.36a5.89,5.89,0,0,1-.18-0.86,11.52,11.52,0,0,1-.07-1.22,12.4,12.4,0,0,1,.31-2.83c0,1.46-.13,2.25.2,2.83a30.82,30.82,0,0,1,0-6.9c0.23-2.25.63-3.79,0.84-2.8l-0.08,1.43c0.1-1.18.22-2.55,0.38-4a37.93,37.93,0,0,1,.7-4.26,24.86,24.86,0,0,1,3.21-8c2.95-4.65,7.51-6.82,7.84-7.85a8.61,8.61,0,0,1-.58,2.86,4.43,4.43,0,0,1,.48-0.48c0.32-.29.76-0.76,1.36-1.24a28.15,28.15,0,0,1,2.33-1.71c0.95-.67,1.86-1.42,2.74-2.18s1.8-1.55,2.65-2.26q2.59-1,5.07-2.15a8.53,8.53,0,0,1,1,1c0.73,0.91.72,2.2-3,4.22a32.89,32.89,0,0,0,9.55-4.62c-1.58.65-4.62,0-2.69-1.09A31,31,0,0,0,175,233.9c1.16-.52,2.48-1.07,6-2.76-1.11.61-1.42,0-1.07-1a8.77,8.77,0,0,1,2.87-3.57c-0.26.64,1.68,1.57,0.68,2.64,0,0,1.61-2,3.05-4,1.09-1.5,2.09-3,2.52-3.74-0.84,1.55,1.4,1.23,3.28.17-0.53.2,1-1.29,2.72-3.21l2.51-2.79c0.78-.87,1.45-1.63,1.82-2.12l-3,2.57a30.65,30.65,0,0,0,6-8.62,25.58,25.58,0,0,1,6.27-8.47c-0.6,1.23-.28,4.21,3.75.78a68.33,68.33,0,0,1,3.28-7.48c0.12-.23.26-0.47,0.38-0.71l0,0a52.39,52.39,0,0,1,9.65-6.83c-0.49.49-1,1-1.46,1.52a61.42,61.42,0,0,0-4.36,5.3l-3.44,4.85a13.53,13.53,0,0,1,2.43-1.4,6.36,6.36,0,0,0,.94-0.64c0.45-.36,1.11-0.92,2.18-1.75,0.94-.35.5,0.3-0.32,1.14l-1.36,1.37-1.24,1.18s0.67-.58,1.57-1.28c0.45-.37,1-0.79,1.58-1.21s1.22-.88,1.86-1.3a45.41,45.41,0,0,1,5.32-3c-0.56-.47,1.36-1.9,3.5-3s4.41-2.06,4-2.54l-2,.83a44.71,44.71,0,0,0-4.24,2.16,45.9,45.9,0,0,0-5.64,3.89c-0.59-.4.49-2.36,3.09-4.53a24.62,24.62,0,0,1,11.53-5.2c1.24,0,.89.71,0.3,1.42s-1.39,1.48-1.25,1.68a17,17,0,0,1,4.66-1.4,16.65,16.65,0,0,1,4.62-.31l-0.6.14-1.31.31c-0.48.1-.94,0.26-1.3,0.35l-0.58.17a23.46,23.46,0,0,0,3.48-.29l1.63-.25,0.82-.14,1-.13a46.7,46.7,0,0,1,8.69-.73c2.36-.26,7.25.37,7.45-0.5a5.29,5.29,0,0,1-4.34-3.93c1.9-.38,3.8-0.8,5.67-1.23a18.68,18.68,0,0,0,1.86-.54c-0.08.35-.15,0.61-0.15,0.61l0.72-.26c0.36-.13.71-0.29,0.71-0.29l-0.25-.47a14.09,14.09,0,0,0,6.16-4.72,0.37,0.37,0,0,1,.39.36,4.43,4.43,0,0,1-.42,2.12c-0.31.84-.76,1.66-0.91,2.18s0,0.77,1,.35a4.31,4.31,0,0,1,.76-1.47c0.43-.68.87-1.45,1.11-1.91,1-1.07,1-.72,1.27-0.69a1,1,0,0,0,.64-0.56,7.39,7.39,0,0,0,.58-1l0.35-.81,0.3-.91c-0.46-.67.44-3.34,0.79-4.93,0.22-.79.3-1.3,0.21-1.07s-0.42,1.16-1.29,3.15l1.13-5.54a23.9,23.9,0,0,0,.41-2.57c0-.51.11-1.06,0.12-1.7s0-1.34,0-2.15c-0.4,1.05-1.16-.4-2.16-2.52-0.31-.69-0.68-1.44-1.08-2.21a22.54,22.54,0,0,0-2.46-6.06l-0.05-.3a22,22,0,0,0-4.48-5.44,48,48,0,0,0-4.8-3.77,50.83,50.83,0,0,0-11.15-6c-0.71-.65-5.12-2.51-3-2.43-0.71-.12-1.42-0.15-2.32-0.24s-2-.32-3.46-0.61c-2.75-1.23-1.09-.9.78-0.55s3.87,0.88,1.86-.43a2.75,2.75,0,0,1-1.56.11c-0.85,0-2-.17-3.21-0.33l-3.93-.35c-1.33,0-2.62-.11-3.71-0.1a4.38,4.38,0,0,0,2.11.8c0.52,0.1,1.12.18,1.75,0.27s1.32,0.2,2,.28c1.43,0.14,2.93.39,4.38,0.56s2.77,0.45,3.86.62c-0.12.41-.69,0.69-1.63,0.86-0.36.06-.78,0.11-1.24,0.14a72.4,72.4,0,0,0-30.67-1.32,64.06,64.06,0,0,0-13.25,3c-7,2.2-14.53,5.6-20,7.66a29.26,29.26,0,0,0-3.49,2.55c-3.17,1.53-6.33,3.08-9.5,4.62-5.32,2.6-10.33,3.48-15.17-.6a26.51,26.51,0,0,1-7.69-10.15,0.3,0.3,0,0,0,.41-0.21l-0.38-.79a19.44,19.44,0,0,1-.75-1.8c-0.26-.67-0.43-1.36-0.6-1.87l-0.07-.31c0-.18,0-0.37-0.07-0.55,0.24,0.17.8,1.68,0.77,0.24a1.88,1.88,0,0,1-.71-1.07c-0.08-.24-0.16-0.53-0.24-0.84a28.87,28.87,0,0,1,.72-8.36c0.05-.14.1-0.27,0.16-0.41s0-.24,0-0.36a31.89,31.89,0,0,1,2.33-6.48c0.14-.2.31-0.47,0.53-0.83a8.83,8.83,0,0,1,.81-1.54,21.83,21.83,0,0,1,14.43-9.7,43.68,43.68,0,0,1,9.1-.86c24-.07,48,0,72,0,7.24,0,14.57.57,21.71-.32a27.62,27.62,0,0,0,21-40.1,7.47,7.47,0,0,1,.55-0.75,34.26,34.26,0,0,0,7-9.92c1.65-1.69,3.19-3.87,3.9-3.3a25.46,25.46,0,0,1,.23-2.58c0.06-.45.13-0.91,0.23-1.38s0.13-1,.21-1.46c0.2-1,.27-2.06.43-3.16A33.37,33.37,0,0,0,304.61,29.18ZM284.47,42.83c-1.23,1.39-2.25,1.36-4.06.7a73.39,73.39,0,0,0-8.89-2.91c-1-.59-2.13-1.14-3.07-1.57-1.21-.52-1.89-1-1.68-1.45-6.64,1.69-17.47-2.53-28.37-.12-2.4-.39,2.05-0.61.77-1.06-2.76.82-6.09,1-12.26,0.61l0.7-.2c-17.34.18-24.77-.64-44.26-1.2l1.44,0.95a49.37,49.37,0,0,1-7-.67c-4.81,1.43,11.76.09,7.38,1.67-5.55-1.93-29.52-.06-33.27-2.26-0.81,0-1.38,0-1.78,0a4.24,4.24,0,0,0-1,.15c-0.3.11,0,.24,0.35,0.36s0.63,0.25.33,0.37-1.16.09-3.31,0.57a11.61,11.61,0,0,0-1.24.06l-0.88.12-0.41.09A9.13,9.13,0,0,0,143,38a8.58,8.58,0,0,0-.79,1,11.06,11.06,0,0,0-2.84,3.2,14,14,0,0,0-1.27,2.86c-0.14.4-.24,0.75-0.33,1.06l-0.13.43,0,0.1v0h0v0.22h0v0l-0.05.12a0.91,0.91,0,0,1-.39.5V46.69l0-.4a13.15,13.15,0,0,1,.16-1.74,11,11,0,0,1,1.08-3.35A10.26,10.26,0,0,0,137,44.83a8.39,8.39,0,0,0-.16,1l0,0.51,0,0.26V47.7c0,0.4.07,0.89,0.14,1.33a11.22,11.22,0,0,0,1.75,4.45,11.49,11.49,0,0,0,3.3,3.24,13.89,13.89,0,0,0,6.73,2.13c1,0.07,1.51,0,2,0h0.59l-0.49,0-1.07-.06c-0.43,0-1-.1-1.55-0.18a15.15,15.15,0,0,1-3-.82c-0.82-.33-1.35-0.62-1.35-0.62a14.33,14.33,0,0,0,4.74,1.21c0.38,0,.8.05,1.14,0.06h0.92l1.8,0,7-.07,14.45,0c9.68,0,19.29-.13,27.78-0.73l-1.29-.45c13-.83,10.38.49,24.62,0.11l-0.52.11A66.61,66.61,0,0,1,235,56.73c-3.59.52,6.76,1,2,1.6,14.05-.89,7-0.68,16.25-2.39l2.14,0.73c3.15-.66,3.42-1.08,10.49-1.13-5.79.5,4.45,1.23-2,1.93l2.66,0.31,1.26,0.13a4.43,4.43,0,0,1,.52.07L268.79,58a12.25,12.25,0,0,1,3.09,1A10.45,10.45,0,0,1,276,62.4a8.06,8.06,0,0,1,1.59,4.32,5.45,5.45,0,0,1-1.21,3.89c0.15,1.3.37,1.5,0.81,1a6.84,6.84,0,0,0,1-3.33c0.29-3-1.34-5.92-.52-4.56-0.07-.67.08-0.79,0.37-0.49a5.36,5.36,0,0,1,1.08,2,10.82,10.82,0,0,1-.23,7.24A6.18,6.18,0,0,1,277.1,75a9.67,9.67,0,0,1-2.85,1.71,14.71,14.71,0,0,1-4,1c-0.38.07-.8,0.05-1.22,0.1s-1,0-1.55.06l-3.81,0c1.14,0,1.22-.16,2.31-0.19a46,46,0,0,0-6.59.1,34.4,34.4,0,0,1-7.53-.19c-3.08,1.24-7.15-.06-8,1.52l11-.38c-6.24.42-12.08,2.28-22.35,1.39a40.34,40.34,0,0,1,6-1c-3-.46-5.78.32-8.9-0.16,0.88-1.59,13.37-.36,20-1.57-3.23-.67-12.64,1.16-9.28-0.56-4.82,2.19-11.82-.26-19.93,1.41l0.53-.95a48.68,48.68,0,0,1-6.31.58l4.27-1.24c-6.57,1.06-12.68-.9-19-0.33,13.21,0,3,1.14,8.56,1.83-16,1.27-9.62-2.35-26.77-2,2.87,0,8,.62,4.57,1a85.83,85.83,0,0,1-10.23-1c-6.67.44-6.1,0.76-4.63,0.89s3.87,0.41,1.12.86a12.82,12.82,0,0,0-1.59-.22,10.65,10.65,0,0,0-1.41.11,14.36,14.36,0,0,0-2.57.65c-0.42.15-.86,0.29-1.3,0.48l-1.4.65c-1,.46-2.1.87-3.43,1.38L160.51,80c-1.8.58-3.21,1.07-4.3,1.49a24.57,24.57,0,0,0-2.36,1.31,4.35,4.35,0,0,0-1.63,1.53A4,4,0,0,1,151,85.89a20,20,0,0,1-1.86,1.32c-0.84.55-1.83,1.39-3.2,2.36l1.79-2.32a14.81,14.81,0,0,1,1.36-1.51l0.65-.67-0.91.65-0.93.68-1,.88L145,88.93l-0.6.55-0.21.23s0.07-.47.18-0.9l0.22-.89a70.36,70.36,0,0,0-5.8,7.1,34.05,34.05,0,0,0-2.27,3.3c-0.39.61-.82,1.24-1.25,2l-1.22,2.39c0.68-.68,1-0.25.76,1.07-0.05.33-.14,0.72-0.25,1.16s-0.17,1-.3,1.54-0.28,1.19-.46,1.87a19.76,19.76,0,0,0-.54,2.21c-0.74,2.12-.83,1.48-1,1.42s-0.14.1-.31,0.82c-0.07.36-.22,0.86-0.31,1.57l-0.25,2.8a15.15,15.15,0,0,1-.39-3.63,13.58,13.58,0,0,1,.4-2.26c0.11-.41.24-0.84,0.4-1.28a6.56,6.56,0,0,1,.62-1.37c-0.17-.49.08-2.22-0.07-2.75-0.28.58-.55,1.2-0.81,1.86a11.82,11.82,0,0,0-.68,2.07c-0.34,1.45-.7,3-0.9,4.44s-0.23,2.92-.31,4.2,0,2.4,0,3.27a16.73,16.73,0,0,1,.32-3.75s0,0.22,0,.6a13,13,0,0,0,.11,1.58c0.15,1.3.25,3,.54,4.71l0.93,4.58,0.58,2.1c0.17,2.2-.59.61-1.15-1.09a23.73,23.73,0,0,0,1.2,3.85c0.51,1.28,1.08,2.71,1.92,4.6a5.38,5.38,0,0,1-1.64-1,12.33,12.33,0,0,1-2.33-4.88l0.17,0.58c0.1,0.37.27,0.89,0.5,1.5s0.47,1.33.8,2.07,0.66,1.54,1,2.31a43.06,43.06,0,0,0,3.5,5.88,19.83,19.83,0,0,0,1.53,3.37c0.67,1.29,1.24,2.28.54,1.67a25.84,25.84,0,0,0,4.47,4.67,35.56,35.56,0,0,0,6.25,4,45.49,45.49,0,0,0,15.24,4.38c0.56-.13,1.66-0.17,3.86-0.38a37.05,37.05,0,0,0,13.73-3.12,32.69,32.69,0,0,0,3.18-1.6c0.57-.31.93-0.53,1.39-0.8l1.32-.79c1.78-1.08,3.65-2.21,5.62-3.49,0,0,1.34-.27,2.69-0.5s2.69-.43,2.69-0.43c3.27-1.55,1.48-1.27.2-1.25-0.63,0-1.14,0-.79-0.41s1.54-1.13,4.36-2.36c4-1.74,4.9-1.65,5.12-1.32s-0.17,1,1.32.74c3.81-1.94,10.87-5.63,18.67-5.16-2.5.47-4.5,0.6-6.83,1.13l0.93,0c0.56,0,1.29-.08,2-0.07h2l0.91,0c-3.39,1-6.26,1.82-7.64,2.33s-1.22.63,1.5,0.59c0.09-1.41,5.63-2.67,11.15-2.8,5.54-.28,10.91.79,11.59-0.48l1.8,0.7c0.45,0.16.89,0.36,1.22,0.51l0.55,0.24c-1-.31-1.24-0.22-2.28-0.47a13.12,13.12,0,0,0,6.53,1.48,12.19,12.19,0,0,1,3.12.32,12.73,12.73,0,0,1,2.2.72,17.63,17.63,0,0,1,2.67,1.37,6.62,6.62,0,0,1,2.13,2.21c0.14,0.24.13,0.4,0,.43a1.15,1.15,0,0,1-.61-0.28,7.58,7.58,0,0,1,1.72,1.79,7.23,7.23,0,0,1,.77,1.57l0.17,0.6a1.24,1.24,0,0,1,.06.23c0.05,0.83-.11,1.17-0.22,1.06A1.77,1.77,0,0,1,263,155c0,0.18,0,.39,0,0.64s0,0.42,0,.67v0.26a1.62,1.62,0,0,1,0,.21,7.53,7.53,0,0,1-.12,1,2,2,0,0,1-1,1.48,2.15,2.15,0,0,1-.57.19l-0.23,0v-0.08a1.06,1.06,0,0,1-.31.19l-0.29.21-0.18.11L260,160l-1.79.6c-1.22.4-2.42,0.76-3.24,1-3-.05,1.47-0.46.66-0.71,0,0-1.62.38-3.2,0.67s-3.16.46-3.16,0.46c-0.65-.17-0.88-0.34-0.64-0.51a4.93,4.93,0,0,1,1.53-.45c1.49-.27,3.86-0.63,6.13-0.89a11,11,0,0,0-6.46-.32L249,160l-1.11.13c-0.8.1-1.7,0.13-2.76,0.24l-8.58.53s0.43-.11,1.07-0.23l2.37-.47,2.39-.37c0.65-.11,1.09-0.14,1.09-0.14a16.29,16.29,0,0,0-3.69-.47,31.15,31.15,0,0,0-4.17.29c-3,.37-6.34,1.1-10.35,2a63.3,63.3,0,0,1,7.91-.75c2.84,0,4.36.41,0.53,1.53a25.68,25.68,0,0,0-9,3c-0.37-.89-4.28.8-8.84,3.36l-0.29-1.29a18.12,18.12,0,0,0-4.11,3.25c-0.71.78-1.15,1.41-2.34,2.59a33.82,33.82,0,0,1-5.45,3.17,11.41,11.41,0,0,1-2.88.74c-1.94,1.57-2.5,2.16-2.4,2.28a4.61,4.61,0,0,0,1.54-.56c1.44-.61,2.66-1.06-1.62,2.86a60.18,60.18,0,0,0-8,7.73c-2.39,2.74-4.72,5.79-7.51,9.67-3.93,4,0-1.25-1.54,0l-2.36,4.45c-0.74.84-.74,0.36-0.75,0.12-1.06,1.58-.92,1.83-0.91,2.31a2,2,0,0,1-.36,1,13.77,13.77,0,0,1-1.9,2.4c-0.12,1.07-2.8,2.91-6.26,4.73S161,217.77,157.85,220c-1.93.46,0.54-1.1-.22-1.31-4.78,2.69-6.81,3.77-8.62,4.75L146.17,225l-2,1.1c-0.4.22-.82,0.45-1.27,0.72l-1.42.92-0.33.11c-0.22.07-.51,0.18-0.87,0.33-0.71.3-1.69,0.66-2.61,1.14l-1.38.68-1.17.67-0.83.48-0.3.2c2.78-1.46,2.69-.71,1.39.85a55.75,55.75,0,0,0-5.1,7.12l0.7-.53q-0.7.84-1.34,1.73c0.21-.39.42-0.79,0.65-1.2-0.31.23-.6,0.5-0.9,0.76l-0.46,1.37,0,0.11a39.11,39.11,0,0,0-2.5,4.31,0.29,0.29,0,0,1-.13-0.18,7.32,7.32,0,0,1,.41-3,33,33,0,0,1,2.71-2.65c0.84-2.49,2-4.86,1.06-5-0.19.31-.49,0.74-0.87,1.23s-0.76,1.09-1.2,1.69c0.28-.67.42-1.14,0.11-1a2.73,2.73,0,0,0-.66.91l-0.93,2-1.26.64-1.28.69,0.19,0.82a47.93,47.93,0,0,0-3.47,6.24c-0.75,1.62-1.4,3.24-1.86,4.51l-0.54,1.56-0.18.6c-0.51,5.22.07,9.91,0.77,15.08,0.36,2.59.76,5.31,1.1,8.32s0.51,6.31.64,10.06c-1-3.66-1.68-.92-2.88-1l2.22-2.71a6.82,6.82,0,0,0-1.88.62c0.05-.51.09-1,0.1-1.59a40.14,40.14,0,0,0-.21-4.56,72.7,72.7,0,0,1-.54-11.16c-0.23,4.16-.77,3.24-1,2.18l0.17,2.22,0.45,4.78c0.35,3.45.59,6.8,0.59,6.8-0.55-.18-0.73.71-0.86,2.14a6.41,6.41,0,0,0-1.09,1.12,1.41,1.41,0,0,1,1-.53l0,0.42a11.23,11.23,0,0,0-.77,1.94,6.34,6.34,0,0,0-.19,1.81v0.42l0,0.24,0.07,0.53,0.35,2.66c0.27,1.89.62,4,.93,5.86l0.41,2.7,0.07,0.47c0,0.14,0,.3,0,0.38l0,1.13a0.37,0.37,0,0,1-.48-0.16,1.46,1.46,0,0,1-.2-0.43c0-.09-0.06-0.2-0.08-0.32l0-.19,0-.1,0,0c0-.11-0.09-0.35-0.17-0.55-0.08-.37-0.15-0.8-0.24-1.31-0.16-1-.36-2.32-0.56-4a17.9,17.9,0,0,0,.31,4.7,7.07,7.07,0,0,0,.37,1.29c0.09,0.64.2,1.26,0.31,1.88a18.44,18.44,0,0,1,.06,8.61c0.09-1.68.25-2.58,0-3.26a45.23,45.23,0,0,1-.32,7.91c-0.15,1.25-.32,2.44-0.49,3.09s-0.29.48-.42,0.25l0.1-1.76-0.16,1.91a2.27,2.27,0,0,0,0,.63,1.56,1.56,0,0,1,0,.65L116,325.48l0,0.72a1.55,1.55,0,0,0,0,.36,1.35,1.35,0,0,0,0,.18s0,0.07,0,.07H116c-0.49,0-1,.06-1.5,0H111.3l-5.24,0c-6.74.12-12.25,0.48-13.05,1.27a6.76,6.76,0,0,1,2.18-2.35L81.44,329.5l-6.24-.12c-0.76-1.58-2-3.46,4.41-3.9a60.22,60.22,0,0,0-11.5-.16c1.8,0.24,4.46,2.2,2,2.29-6.74-1.76-4.68-1-13-2.52,2.7,0.37-.35,2.6-4.63,2.44,0.67-.33-0.31-2.27,1.26-2.48L43.53,327c1.87-.47-0.15-1.85-2.35-2.49,0.46,0.2-1.12.19-3.31,0.12l-3.56-.12-1.12,0H32.43a7.22,7.22,0,0,0-.87,0l0.77,0.22,1.38,0.34c-0.55,0-1-.05-1.5,0a15,15,0,0,0-1.54.12,0.52,0.52,0,0,1-.17,0,0.46,0.46,0,0,0,0-.12c0-.08,0-0.16.06-0.24a0.82,0.82,0,0,0-.08-0.49,1.26,1.26,0,0,0-.4-0.43A5,5,0,0,0,29,323c-0.16-.3-0.31-0.62-0.45-0.94a26.72,26.72,0,0,1-1-2.83c-0.17-.56-0.35-1.08-0.49-1.64a14.67,14.67,0,0,1-.32-1.87,29.76,29.76,0,0,1,0-4.86,2.11,2.11,0,0,0,1.57,1.64c0.68,0,1.45-.87,1.64-4.14-0.48-1.28-1.63-3.78-3-6.9-0.34-.78-0.69-1.59-1-2.46-0.13-1.94-.24-3.88-0.24-5.85a2.29,2.29,0,0,0-1.81-2.32q0-2.24,0-4.47c0.3,1.13.6,2.29,0.9,3.45a3.62,3.62,0,0,1,1.78,1,4,4,0,0,1,.78,1.26,4.39,4.39,0,0,1,.21.75l0.06,0.21v0.08h0v0.08l0,0.1c0.26,1.07.55,2.12,0.83,3.13,0.57,2,1.12,3.91,1.53,5.56a17.55,17.55,0,0,1,.36-3.19,34.28,34.28,0,0,0-.09-4.63c0.3-1.1.53-.26,0.74,1.09s0.43,3.29.51,4.27c-0.07-1.65-.13-3.25-0.14-4.79v-2.11l0-.26,0-.32a8.46,8.46,0,0,0-.2-1.09,8,8,0,0,0-1.4-2.87l0.08-3c-1.35.7-1.34-12-2.46-11.39l1.06,13a8.17,8.17,0,0,0-1.87-1.14,72.85,72.85,0,0,1-1.38-15.82c0.54-2.83,2.39,2.12,2.84,1.88-0.46-1.44-.88-10.55-0.55-11.57l0.72,4.71c0.51-6.18-1.78-10.1-.49-17.53,0.09-2.57,1.73-7.66.94-8.1a5.46,5.46,0,0,1-4.78,3.83q0-4.4,0-8.79l0.57,0.4,0-1.69-0.55.06q0-4.46,0-8.92c1.15-1.07,2.55,6.84,3.47,3.66-0.37-.16-0.82-2.49-1-3.46,0.31-2.69,1.14,1.12,1-4.74-1.36-1,.12-11.91-1.15-2.77-0.39-5.73.28-6.08,0.23-12.82-0.58,1.41-1.7-1.69-2.51-5.61q0-3.69,0-7.38l0.13-.37c0.09-5.87.36-10.38,0.71-14.77s0.67-8.7,1.43-14c0.41-1,1.81-6,2-3.68a22.73,22.73,0,0,1,.74-6.26c0.71-1.47,1-1.73,1-1.41s-0.26,1.26-.47,2.25c-0.48,2-.82,4.14.4,2a2.8,2.8,0,0,1-.09-1.64,26.22,26.22,0,0,1,.57-3.39c0.25-1.32.67-2.73,1-4.13l1.13-3.87c-0.84.44-1.93,3-2.78,6a58.28,58.28,0,0,0-1.65,9c-0.57-.11-1-1.23-1.06-3.1,2.86-11.31,8-21.83,14.17-31.88,0.68-1,1.48-2.13,2.4-3.49,1.78-2.58,3.91-5.81,6.19-9.27,4.55-6.91,9.68-14.7,13.65-20,0.75-1.66,2-4.16,2-4.6Q72.56,73.19,79.91,62c3.33-5,6.76-10,10.39-14.8a0.28,0.28,0,0,0,.38.22s0.87-1.37,1.78-2.72c0.48-.72,1-1.43,1.31-1.94l0.55-.69c0,0.32-.87,1.93.31,0.78a3.86,3.86,0,0,1,.86-2.17Q98.63,37,102,33.51l0.3-.24,0.18-.25c0.83-.84,1.65-1.68,2.51-2.5q1.61-1.54,3.29-2.86l0.94-.61a12.15,12.15,0,0,1,1.54-1.21A39.24,39.24,0,0,1,134.09,19c34.18,0.33,68.36.1,102.54,0.13,13.24,0,26.48,0,39.72.25,5.18,0.1,9.19,2.63,10.74,7.83C288.76,32.77,288.63,38.16,284.47,42.83Zm-50.62,119.4c0.93-.31,2.34-0.8,3.71-1.14a8.06,8.06,0,0,1,3.46-.3C238.93,162.13,237.2,161.85,233.85,162.23ZM122,251a9.53,9.53,0,0,1,.77-2.53,20.87,20.87,0,0,1,1.74-3C123.79,247.13,123,249,122,251Zm-93.34,39.8c-0.51.26-1.18-1.09-1.8-3.46l1.69,2.17ZM5.09,268.72C5,268.3,5,267.9,5,267.5l0.28-.27C5.23,267.72,5.16,268.22,5.09,268.72Zm6.93,75a8.82,8.82,0,0,1-1.56-1.46,3.48,3.48,0,0,1-.83-1.33,12.73,12.73,0,0,1,1.51.92c0.45,0.33.81,0.72,1.26,1.11s0.85,0.87,1.37,1.35a20.71,20.71,0,0,0,1.88,1.51A17.22,17.22,0,0,1,12,343.7Zm123.51-9.16,2-5.14A10.52,10.52,0,0,1,135.53,334.54Zm4.81-50.9-0.55,1.57a42.93,42.93,0,0,0-1.61-5.15C138.6,279.64,139.41,280.28,140.34,283.64Z"/>
    <path class="cls-1" d="M28.7,105c-0.15.23-.29,0.45-0.39,0.64Z"/>
    <path class="cls-1" d="M200.1,0.3l-0.46,0Z"/>
    <path class="cls-1" d="M130.85,343.73a1.19,1.19,0,0,1-.94.15C129.48,344.48,129.57,344.65,130.85,343.73Z"/>
    <path class="cls-1" d="M4.37,210.36V210.1a0.56,0.56,0,0,0-.17-0.25Z"/>
    <path class="cls-1" d="M278.41,175.39a10.24,10.24,0,0,0,2.24-2.18,9.31,9.31,0,0,1-3,2.42C277.7,175.75,277.92,175.73,278.41,175.39Z"/>
    <path class="cls-1" d="M163.09,143.78l-0.77-.29,0.71,0.33c0.36,0.15.74,0.27,0.74,0.27a9.77,9.77,0,0,0,1.86.22,12.44,12.44,0,0,0,1.88-.1,11.32,11.32,0,0,1-2.66,0A11.87,11.87,0,0,1,163.09,143.78Z"/>
    <path class="cls-1" d="M217.07,123a6.54,6.54,0,0,1,2.72.29l0-1.25-1.36.46Z"/>
    <path class="cls-1" d="M234.44,121.27A7.81,7.81,0,0,1,236,121l2.17-.16c1.18-.1,1.32-0.26-2.54-0.46C234.93,120.69,228.9,120.88,234.44,121.27Z"/>
    <path class="cls-1" d="M207.31,205.07c-2.57,3.26-4.24,4.62-2,4.2,5.11-4.47.22-2.05,5-5.92C211.18,201.88,206.43,206.51,207.31,205.07Z"/>
    <path class="cls-1" d="M207.31,205.07c0.41-.52.84-1.08,1.29-1.7A15.37,15.37,0,0,0,207.31,205.07Z"/>
    <path class="cls-1" d="M29.7,350.81l0.35-.31c-0.68-.35-1.72-0.4-3.81-0.5Z"/>
    <path class="cls-1" d="M5,296l-1.15.83s0,0.25,0,.51l0,0.52,0.64-.95Z"/>
    <path class="cls-1" d="M2.39,246.63c0,1.6.11,3.42,0.16,5.13C2.65,248.15,3.68,246.14,2.39,246.63Z"/>
    <path class="cls-1" d="M2.56,253.21c0-.47,0-1,0-1.46C2.53,252.22,2.53,252.7,2.56,253.21Z"/>
  </g>
</svg>
