<svg id="paper" data-name="paper" xmlns="http://www.w3.org/2000/svg" viewBox="0 0 377 362.96">
  <defs>
    <style>
      .cls-1 {
        fill: #19171c;
      }
    </style>
  </defs>
  <title>paper</title>
  <g>
    <path class="cls-1" d="M371.66,167.12a65,65,0,0,0-9.87-10.43c-1.7-2-3.63-4.09-3-4.17-1.51-.91-3-2.14-4.92-3.46a35.38,35.38,0,0,0-3-1.94c-0.53-.34-1.12-0.57-1.69-0.87a16.81,16.81,0,0,0-1.79-.82,27.62,27.62,0,0,0-8.15-1.95,24.24,24.24,0,0,0-8.73,1c-1.28.21-.77,0-0.09-0.24s1.53-.42.81-0.44c-1.45.5-3,1-5,1.74-1,.32-2.06.86-3.28,1.37-0.61.26-1.21,0.63-1.88,1l-1,.54-1,.66,0.58-.51a35.32,35.32,0,0,0-4.84,3.75c-0.67.68-1.38,1.33-2,2l-1.72,1.88-6.46,7-6.6,7-3.7,3.94-2,2.14a15.92,15.92,0,0,0-2.3,2.81l-0.08.15-0.12.12-2,2.09c0-.65,0-1.32-0.06-2l-0.12-3-0.05-1.5,0-.73a3.82,3.82,0,0,1,0-.42,3.32,3.32,0,0,0,.18-0.5c0.09-.29.15-0.57,0.21-0.84,0.11-.55.18-1.07,0.23-1.57l0.24-2.8,0.47-5.07a36.5,36.5,0,0,1,1-6.43c0.52-6.67-.7,1.91-0.17-4.75l0.43-1.74-0.25-1.71c0.4-4.37.94-6.54,1.21-6.69-0.11,1.06-.16,3-0.23,4.16,0.73-5.25,1.07-14.57,1.33-17.4l-0.62,5.86c1.17-18.22,3.15-40.41,3.85-58L295,77.58c0.58-13.46,1-10.73,1.93-25.49v0.54c0-.74,0-1.55,0-2.4s0-1.84,0-2.81-0.14-2-.22-3-0.27-2.07-.51-3.1c0.3,0.93.3,1,.32,0.53s-0.17-1.3-.3-2.15c-0.31-1.67-.72-3.19.23-0.75a34.5,34.5,0,0,0-3.22-7.2,30,30,0,0,0-1.71-2.48l-1.39-1.49c-0.3-.35-0.73-0.76-1.3-1.3l-1-.93c-0.37-.34-0.81-0.68-1.28-1.09l-0.69-.94-0.77-.88a39.67,39.67,0,0,0-3.54-2.1,30.17,30.17,0,0,0-6.75-2.62c3,0.73,1.95.26,0.88-.21s-2.07-.94,1.5-0.11c-1-.34-2-0.7-2.87-1s-1.76-.45-2.61-0.64c-1.69-.37-3.29-0.67-4.8-0.89a74.85,74.85,0,0,0-8.08-.72c-2.39-.09-4.52-0.1-6.5-0.13-1,0-1.95,0-2.88-.09l-1.39-.09L246.66,14c-1.89.44-1.89,0.63-1,.62,0.46,0,1.16,0,2-.07s1.73,0,2.69,0c3.8,0,8,.19,6,0.18,3.33,0.54-5.92.29-10.88,0.89-0.62.11-1.23,0.22-1.83,0.3l-0.91.12-0.91.19c-0.61.13-1.26,0.23-1.94,0.39l-2.14.63a25.85,25.85,0,0,0-11.1,7.49c0.59-.66.7-0.87,1.48-1.68a25.21,25.21,0,0,0-4.66,5.81,47.22,47.22,0,0,0-3.65,7.48c-0.15.85-.27,1.78-0.44,2.68a25.82,25.82,0,0,0-.4,2.64c0,0.41-.1.82-0.13,1.18s0,0.67,0,1A2.44,2.44,0,0,0,219.1,45l0.08-1.78c0-.52.11-1.2,0.19-1.89a15.51,15.51,0,0,1,.34-2.18c0.17-.73.28-1.48,0.5-2.15l0.58-1.83a13.13,13.13,0,0,1,.49-1.27l0.2-.48a27.55,27.55,0,0,0-1.9,10.23c0,1.84-.06,3.8-0.17,6-0.06,1.17-.11,2-0.19,3s-0.18,2-.29,2.91c-0.05-.46-0.09-1.36-0.11-2.28l-0.06-2.63a19.61,19.61,0,0,0-.23,3,17.64,17.64,0,0,1-.23,2.92,20.85,20.85,0,0,1-.12-5.35l0.34-6.13c0.07-1.12,0-2.14.18-3.26l0.14-1.6c0-.51.15-1,0.21-1.46a9.29,9.29,0,0,0-.4,1.59c-0.09.62-.18,1.32-0.26,2-0.11,1.38-.11,2.78-0.16,4-0.08,2.43-.16,4-0.48,2.23a18.38,18.38,0,0,1,.18,2,8,8,0,0,1,.07,1.09,21.84,21.84,0,0,1-.16,2.35c-0.08.78-.17,1.51-0.21,2.47s0,2.16,0,4.31l-0.31-2.55c0,0.45,0,1.27,0,2.16a21,21,0,0,1-.13,2.42L217.19,60c0-1.37-.12-2.54-0.12-2.54a13.91,13.91,0,0,1-.11,2.77,1.44,1.44,0,0,1-.15.49c-0.06,0-.09.32-0.17-0.5l-0.31-2.63a3.2,3.2,0,0,0-.25-1.14,25.09,25.09,0,0,1,.48,4.4l0,2c0,0.74.08,1.63,0.26,3a20.77,20.77,0,0,1-.9-4.23c-0.19-1.51-.26-2.92-0.3-4.22l-0.09-3.53a16.58,16.58,0,0,0-.35-3.06,7.62,7.62,0,0,1,.12,1.61c0,0.62,0,1.27-.25.67L215,51.81l-0.08-1.23c-0.22-1.9-.38-3.64-0.43-4.75-2-12.36-.19,2-1.3-3.25-0.09-4.3-1.17-6-2.19-11.45l0.47-.11c-0.22-1.74-.47-3.23-0.71-4.36a23.6,23.6,0,0,0-.72-2.57,6.55,6.55,0,0,0-.95-2,6.68,6.68,0,0,1-.94-1.63,52.83,52.83,0,0,0-2.94-5.59l0.57,0.7a17.86,17.86,0,0,1,1.19,1.6c0.42,0.59.83,1.2,1.1,1.68l0.47,0.79a34.42,34.42,0,0,0-1.66-3.18c-0.46-.77-1-1.51-1.35-2.07l-0.69-.89L205.46,14a7.2,7.2,0,0,1,.65.47c-0.59-.81-1.19-1.5-1.72-2.15s-1.1-1.2-1.62-1.72l-1.53-1.43-1.5-1.25a34.55,34.55,0,0,0-7.67-4.59c0.75,0.52.43,0.6-.83,0.27s-3.51-1-6.74-1.59c-2.18-.51-1.55-0.52-1.52-0.59a1.72,1.72,0,0,0-.84-0.2c-0.72-.08-2-0.28-4.38-0.35a17.85,17.85,0,0,1,8.5.9c0.45-.09,2.12.26,2.59,0.22A31.08,31.08,0,0,0,180.52.15a51.09,51.09,0,0,0-7.36,0l2,0c0.66,0,1.26,0,1.67.08a51.71,51.71,0,0,0-6.79.7c-1.67.28-3.32,0.64-4.54,1l-1.47.38-0.55.16c-2.08.32-.51-0.24,1.09-0.72-2.65.64-4.43,1.3-8.18,2.54a6.5,6.5,0,0,1,1.24-1,21.82,21.82,0,0,1,4.68-1.72s-0.78.2-1.93,0.57-2.68.85-4.18,1.4c-0.75.27-1.5,0.54-2.19,0.82s-1.34.52-1.93,0.8l-1.4.63c-0.34.15-.52,0.25-0.52,0.25-0.22.07-.73,0.28-1.35,0.54a16.36,16.36,0,0,0-2,.94c-1.25.67-2.22,1.2-1.52,0.64a28.1,28.1,0,0,0-8.83,10,16.17,16.17,0,0,0-.84,1.66c-0.26.57-.55,1.12-0.78,1.71-0.44,1.18-.94,2.34-1.26,3.57a42.31,42.31,0,0,0-1.54,7.37c0,0.26,0,.65,0,1.24v1L132.21,36c0,0.58,0,1.16,0,1.73l0.15,1.7,0.08,0.85,0.1,0.78,0.19,1.55,0.79,6.21c0.56,4.2,1.23,8.58,2.24,13.56l0.15,5.8c1.33,7.84-.27-7.84,1.94,5.21,1.6,9.23-.08,3.55.21,6.83l0.91,4,0.06,0.29,0,0.11,0.07,0.2,0.15,0.46c0.1,0.33.2,0.7,0.3,1.1,0.2,0.8.39,1.75,0.51,2.6a4.59,4.59,0,0,1,.05,1.78c-0.19-.8-0.26-1.25-0.32-1.68s-0.11-.83-0.21-1.36a3,3,0,0,1-.12.55,0.29,0.29,0,0,1-.16.22c-0.65-2.19-.83-2.68-1-3.06a0.85,0.85,0,0,0-.21-0.32,1.62,1.62,0,0,1-.35-0.39,6.54,6.54,0,0,1,1,2.33,7.29,7.29,0,0,1,.23,1.27v0.64a4,4,0,0,1-.21-0.35A1,1,0,0,0,138.4,88c-0.12,0-.22.19-0.18,0.88l-0.37-1.09-0.3-.94c0.17,0.38.2,0.26,0.36,0.62a4.3,4.3,0,0,0-.56-1.43,5.16,5.16,0,0,0-.69-0.63,3.18,3.18,0,0,1-.51-0.53c-0.3-.46-0.63-1-1-1.62-0.73-1.26-1.61-2.94-2.73-5.41-1.53-3.45-2.49-5.92-1.23-3.66l-3.93-7.45c-0.83-1.78-.69-1.85-0.07-0.67l-2.3-4.67L122,55.69l0.08,0.07c-1-1.54-3.1-5.13-4.36-6.92-1.66-3,1,1.37.7,0.56l-0.17-.27-0.48-.7a25.2,25.2,0,0,0-1.53-2.07c-0.56-.75-1.21-1.43-1.69-1.94a10.17,10.17,0,0,0-.82-0.84c-0.95-1.2-.24-0.81,1.08.49A25.37,25.37,0,0,1,119.11,50a14.19,14.19,0,0,0-.86-2.2,10.28,10.28,0,0,0-.93-1.66,15.38,15.38,0,0,0-1-1.39c-0.39-.43-0.8-0.87-1.26-1.35s-1-1-1.63-1.53S112,40.68,111.16,40a36.3,36.3,0,0,0-7.66-4.66l0.3,0.11a7.82,7.82,0,0,1,.77.31c0.62,0.29,1.49.6,2.29,1.06l1.2,0.63c0.38,0.21.71,0.44,1,.61l1,0.61c-3.48-3.35-9.18-5.79-17.36-6.89,0.48,0.08,1.75.33,3.23,0.67a33.59,33.59,0,0,1,4.49,1.42c0.66,0.28,1.24.54,1.67,0.76a3.18,3.18,0,0,1,.78.53c0.15,0.23-.5,0-2.5-0.46a27.59,27.59,0,0,0-9.6-1.36A0.87,0.87,0,0,0,90,33.06a11.81,11.81,0,0,0-2.16,0,28.43,28.43,0,0,0-6.88,1.36l0.17-.72a23.67,23.67,0,0,0-4.87,2.17c-0.89.53-1.49,1-2.91,1.79-5.62,2.65-6.81,2.58-8.34,2.83-2.44,1.14-3.2,1.59-3.16,1.68A1.49,1.49,0,0,0,62.32,42l1.09-.36c0.77-.25,1.48-0.46,1.29-0.26a5.73,5.73,0,0,1-1,.65l-1.21.65-1.68,1.08a29.28,29.28,0,0,0-8.83,8.12A30.78,30.78,0,0,0,46.76,64C46,66.95,46,66.7,46,65.93s0.25-2-.07-0.94a33.77,33.77,0,0,0-.12,5.44c0,1.32-.19.89-0.26,0.67a7.5,7.5,0,0,0,.21,2.09,3.27,3.27,0,0,0,.28.68c0.24,0.4.26,1.15,1,4.56a17.81,17.81,0,0,1,1,3,26,26,0,0,0,.8,2.52l0.49,1.44,0.58,1.44a93.85,93.85,0,0,0,5.67,12.21c0.71,1.93-.78-0.73-0.73-0.06,5.33,10.08,4.51,8.67,9.14,16.83l3,7.38c-2-5.5,1.64,1,4.82,6.76l-0.31-.93,1,2.24L71.85,130l0.38,1.13,0.88,1.32,0.77,1.66c-0.31-.29-0.62-0.57-0.92-0.87l-0.73-2.11c-1.44-2.17-2.85-4.18-3-3.53,0.35,0.58,1,1.74,1.6,3-0.38-.57-0.65-0.92-0.57-0.61a4.89,4.89,0,0,0,.45.91l-1.05-1.16-1.35-1.22-1.44-1.22c-0.93-.83-2-1.53-3-2.28a40.87,40.87,0,0,0-6.84-3.76,31.82,31.82,0,0,0-8.5-2.26,27.51,27.51,0,0,0-10.46.81c3.68-1.37.66-1,.71-1.67a48.92,48.92,0,0,1,9.06-.26,27.06,27.06,0,0,1,11.41,3.75c-1-.55-1.62-0.94-2.06-1.22a3.26,3.26,0,0,1-.73-0.48c-0.12-.15.42,0,1,0.17,0,0-.22-0.1-0.61-0.26l-1.62-.65c-0.67-.27-1.49-0.48-2.35-0.75s-1.82-.41-2.75-0.63-1.91-.24-2.8-0.35l-2.46-.06-2.38.17c0.33-.53-3.34-0.23-7.22.93,0.81,0,.53.26-0.4,0.69-0.46.21-1.06,0.55-1.78,0.89a26.26,26.26,0,0,0-2.37,1.27,63.54,63.54,0,0,0-9.59,6.75c-0.24,0-.16-0.32.74-1.16a38.69,38.69,0,0,1,5.68-4.15,26.25,26.25,0,0,0-7.32,5.54,76.42,76.42,0,0,1-6.5,6.27,24,24,0,0,0,2.38-2.46c-1.43,1.5-3.93,4-5.78,6s-3.15,3.46-2.52,2.44l0.56-.69,0.27-.33c-0.89,1-1.84,2.18-2.81,3.5a30.82,30.82,0,0,0-3,5A28.35,28.35,0,0,0,0,160.1a26.73,26.73,0,0,0,1.86,10.18,21.46,21.46,0,0,0,1.5,3.06,6,6,0,0,0,1,1.33,5.15,5.15,0,0,1-2.12-1.52s0.17,0.3.51,0.81,0.86,1.2,1.49,2a40.8,40.8,0,0,0,5.24,5.13l2.95,2.56,4.28,4.91c0,1.13.1,2.7-4.46-2.1,1.73,2.14,3.87,4.78,7.88,9-1.15-1.48-2.28-4.22-.54-2.33,4,5.83,2.88,4,8.06,11-1.73-2.22,1.19-.62,4.08,2.75-0.59-.41-0.61,1-1.77-0.13L37.74,214c-1.46-1.29-.57.75,0.72,2.68-0.59-1,6.27,7.22,8.29,9.37l-2.88-3.7c8.08,9.52,9.3,8.26,17.4,17.63-1.16-1-3.51-1.85.52,3,1.27,1,4.25,3.2,7.92,6.3l9.16,10.52c-4.52-4-9.67-8.73-13-12,2.87,3.69.56,1.23,5.18,6.49,1.39,2.06-2.86-2.57-4.23-4.11l10.56,12.41c0-1,8.7,8.95,8.71,8.11L73.88,257.77c0-1,8.17,6.46,15.66,15.24,1.73,2.39-2.35-.87-2.36-0.54,0.58,0.49,2.46,2.48,4.27,4.46,0.88,1,1.87,2,2.35,2.69a7.32,7.32,0,0,1,.92,1.61,12,12,0,0,0-1.28-1.7c-0.18-.2-0.33-0.34-0.54-0.56l-0.56-.55-0.55-.54,1.41,1.69a16.11,16.11,0,0,1,2.6,4.76,10.13,10.13,0,0,1,.42,1.79c0.08,0.7.15,1.46,0.2,2.24,0.11,1.56.17,3.26,0.13,5.2,0.12,2.66-.37,8,0.06,8.43,0.3-2.7,1.3-4.12,2.19-4.16q0.29,4.59.56,9.18L99,306.57l0.12,1.75,0.31-.1q0.27,4.62.54,9.23c-0.5,1.29-1.73-7-2-3.64a19.07,19.07,0,0,1,.71,3.55c0,2.8-.64-1.12-0.18,4.95,0.74,1,.71,12.35.75,2.83,0.28,3,.35,4.54.4,6.25l0.09,2.85c0.07,1.12.06,2.41,0.3,4.23,0-.59.21-0.48,0.44,0.09,0.11,0.28.25,0.68,0.39,1.17l0.59,1.67c0.24,0.73.55,1.54,0.89,2.37a26.81,26.81,0,0,0,3.42,7.3l0.09,0.21a26.09,26.09,0,0,0,5.65,6c0.5,0.38,1,.7,1.53,1.05,0.25,0.17.5,0.35,0.76,0.5l0.79,0.42c0.53,0.27,1,.57,1.57.82l1.61,0.66c4.3,1.74,9,2,14.67,1.6,1.06,0.1,6.54,0,4.23.41,1.63-.22,3.11-0.54,6.61-0.76,6.81,0.19-7.8.55-2.6,1,0.42-.42,9-1.08,14-1.62-1.57-.52-11.53.56-16.51,1.1,0-.29,1-0.65,2.83-1l36.22-2.14c8.07-.2,29.05-1.7,41.17-2,1.89-.25,4.84-0.57,5.1-0.75q16.93-1,33.87-2l0.93,0-0.07,0L270,353.8c-0.15.08-.16,0.16,0,0.23l3.36-.33,2.31-.23,0.14,0,0.81-.07c-0.4.15-1.93,0.46-.32,0.38a8,8,0,0,1,2-.58,27.57,27.57,0,0,0,9.79-3.5l0.28-.13,0.23-.18a26.61,26.61,0,0,0,6.67-5.88l0.3-.35c0.11-.15.22-0.31,0.33-0.47a25.73,25.73,0,0,0,4.9-18.17c-1.34-13.09-1.79-26.27-2.35-39.42a9.57,9.57,0,0,1,2.18-6.1c5.41-6.21,11.31-12,16.75-18.17s10-12.77,15.56-18.68c12-12.82,24.68-25,36.41-38.05C378.57,193.85,379.6,178,371.66,167.12ZM287.72,184.2l0,0v-0.1l0.06,0v0.09h0Zm-0.05.4c0-.07,0-0.15,0-0.22l0.06,0.11v0Zm-163-71c-1.16-2.22-3.56-6.59-4.08-8.37C122.34,107.55,123,109.65,124.71,113.57ZM278.1,208.66h0l0,0.11-0.25.08Zm59.11,11h0l0-.11h0Zm-0.56.21-0.06-.05,0-.08Zm0.53-.19,0,0v0l0,0h0Zm-0.6.15,0.08,0.1V220l-0.07-.08,0.07,0.08h0v0l0,0-0.12-.16Zm0.66-.28,0,0.09v0h0v0l0-.09h0Zm-0.71.37,0.12,0.17h0l-0.12-.16h0Zm0,0,0.12,0.16h0l0,0,0,0h0l0,0,0,0-0.1.07,0-.19Zm-0.18.39,0,0v0h0Zm18.12-26.2c-4.22,4.65-8.49,9.26-12.76,13.86-2.64,2.27-5.49,4.73-5.44,4-0.65.85-1.4,1.75-2.21,2.67a3.49,3.49,0,0,0-2.56,1.82c-0.22.43-.27,0.65-0.41,0.95a12,12,0,0,1-2.08,2.83c-1.75,1.9-4,3.62-6.18,5.88a180.45,180.45,0,0,0-12.61,14.06c-2.37,2.28,1.67-2.27.32-1.13a131.49,131.49,0,0,1-11.12,12.53l0.57-.77-10.66,11.6a9.74,9.74,0,0,1-2.12,2c-0.21.14-.84,0.36-1.34,0.58a8.5,8.5,0,0,0-.85.4c-0.29.16-.6,0.29-0.87,0.47a11,11,0,0,0-4.87,5.88,20,20,0,0,0-.88,7.33l0.32,7.27,0.82,17.31,0.35-2c0.28,5.71.2,6.92,0.25,9.6,1.11,6.5-.92-16,0.23-10.11-0.26,3.81.36,13.89,0.9,23.6a22.73,22.73,0,0,1-.08,3.36,8.09,8.09,0,0,1-.79,2.75,4.31,4.31,0,0,1-1.65,1.7,8.79,8.79,0,0,1-2.37.85,19.62,19.62,0,0,1-2.48.31l-1.15,0h-1.11a23.59,23.59,0,0,1-3.13-.14c-8.78.52,2.61,0.39-6.17,0.91l-2.35-.16-2.2.51c-5.76.28-8.69,0.08-8.92-.15,1.4-.05,4-0.31,5.46-0.42-6.95.09-19.11,1.2-22.89,1.39l7.72-.29c-23.95,1.71-53.23,3.07-76.35,5.05l1.77,0.12c-17.66,1.47-14.18.6-33.58,2l0.7-.1c-1,.11-2,0.23-3,0.26a14.5,14.5,0,0,1-3.19-.21,5.44,5.44,0,0,1-4.49-4c0.44,1,.54.94,0.41,0.52a16,16,0,0,1-.48-2.32,11.51,11.51,0,0,1-.12-1.35,5.46,5.46,0,0,1,0-.88c0-.33.11,0,0.39,1.43-0.19-1.08-.29-2.07-0.38-3l-0.23-2.66-0.35-3.83c-0.19-2-.31-3-0.42-3.74-0.23-1.55-.46-2.28-1.27-8.59l0.19-2.95a136.82,136.82,0,0,1-1.51-14.33c0.82,7.93.18-6.23,1.15,2.65-0.12-5.1-.35-9.54-0.61-13.47l-0.42-5.54c0-.44-0.06-0.83-0.12-1.31s-0.13-.93-0.22-1.38a18.85,18.85,0,0,0-.69-2.54,21,21,0,0,0-2.08-4.33,17.31,17.31,0,0,0-1.33-1.84l-1.31-1.52a62.49,62.49,0,0,1-4.45-5.77c-3.47-3.19-.67.23,2.53,4l2.39,2.76c0.36,0.41.79,0.92,1.11,1.37s0.61,0.88.84,1.27c0.89,1.55,1.15,2.25.49,1,0.46,1.09.38,1.19,0,.63a26,26,0,0,0-2.19-3.07c-2.28-2.45-5.37-5.83-7.44-8.29-4.27-4.92-6.29-9.2-17.08-21.52,1.07,1.23,1.2,1.26,2.27,2.49-3.83-4.79-8.17-8.81-12.79-14.76-3.24-2.77-6.4-7.38-7.79-7.77l10,11.2c-5.76-6.28-11.71-11.69-20.6-22.55,0.84,0.72,3.74,3.73,5.72,5.81-2.52-3.24-5.31-5.85-7.93-9.21,1.4,0.39,12.14,13.64,18.6,20.12-2.64-3.54-11.79-12.63-8.12-9.73-5.16-4.25-10.51-12.25-18.44-20.05l0.84,0.24c-1.21-1.27-3.77-3.86-5.89-6.31l4.31,4c-6.3-6.42-11-13.34-16.92-19.64,11.88,13.57,2.23,3.43,7,9.4-7.56-8.17-9.42-10.78-11.48-13.68L25,167.2a18.71,18.71,0,0,1-1.65-2.76,7.81,7.81,0,0,1-.88-3.8,8.75,8.75,0,0,1,1.66-4.43c-0.27.4-.55,0.84-0.8,1.29a8.87,8.87,0,0,0-.95,2.5c-0.15.72-.16,1.27-0.21,1.4s-0.06,0-.1-0.14a3.62,3.62,0,0,1-.08-1c0.21-3.49,4.93-7.93,7-9.69,11.76-11.29-2.22,1.38,2.64-3.61a33.89,33.89,0,0,0,2.89-2.43c0.8-.72,1.49-1.44,2.26-2.12a15.71,15.71,0,0,1,1.2-1,12.62,12.62,0,0,1,1.38-1A9.49,9.49,0,0,1,43,138.88l0.1,0.47a8.68,8.68,0,0,1,4.34.75A21.84,21.84,0,0,1,50,141.52,22.57,22.57,0,0,0,52,142.86a6.52,6.52,0,0,1,1.77,1.35c1,0.94,2.52,2.68,5.29,5.88l-5.28-4.87,6,6.44-1.63-1c6.73,6.86,8.65,9.15,14.83,16.24-1.21-1.85,1.47.33,7.06,6.5,3.59,4.41-2.47-2.06,5.48,6.67a46.63,46.63,0,0,1-7.35-7.81c-0.47-.29-2-1.75-2.46-2C79.63,175,86,181.72,88.87,184.89c-1.09-1.24-2.38-2.71-3-3.51l11.95,12.27c1.67,2.12.13,0.63-1.39-.84,1.18,1.27,2.21,2.31,3.38,3.51l1.89,2a21.25,21.25,0,0,0,2.76,2.54,7.91,7.91,0,0,1-2-1c-0.23-.17-0.49-0.39-0.8-0.66s-0.58-.53-0.95-0.88c-0.72-.7-1.66-1.65-2.9-3l1.76,1.85,1.8,1.89a19.65,19.65,0,0,0,2.6,2.34,13.9,13.9,0,0,0,3.29,1.82,11.33,11.33,0,0,0,3.4.68,10.31,10.31,0,0,0,2.45-.21,7.87,7.87,0,0,0,.89-0.22l0.85-.18c0.36-.12.81-0.25,1.27-0.45a15.35,15.35,0,0,0,2.84-1.56c1.8-1.31,2.88-2.92,2.05-1.63a10.25,10.25,0,0,0,2.16-4.6,12.47,12.47,0,0,0-.19-5.15,15.76,15.76,0,0,0-.75-2.37c-0.14-.39-0.31-0.76-0.49-1.13s-0.34-.71-0.49-1l-2-3.89c-2.67-5.28-5.48-10.9-7.88-16.4-0.33-.53-0.93-1.63-2.06-3.92-4.66-10.26-8.56-19.45-14.75-31.29l-2.61-7.14c-4.63-9.38,3.6,9.64-4.11-6-5.49-11-1.43-4.41-3.11-8.4A253.63,253.63,0,0,1,72.19,83.18c1.73,3.33,2.89,6,4.44,9.17l-3.35-8c5,9.13,8.08,16,5.1,8.48-0.88-.26-4.5-7.82-8.13-15.37-0.21-.46-0.48-1-0.65-1.38A11.3,11.3,0,0,1,69.15,75a8.21,8.21,0,0,1-.32-1.15,7.09,7.09,0,0,1-.19-1.13,9.33,9.33,0,0,1,.4-4c0.75-2.31,2.09-3.65,2-4.08a5.09,5.09,0,0,1,.58-0.46,12.56,12.56,0,0,1,1.37-.9c0.55-.28,1-0.54,1.51-0.74l0.77-.33a10.59,10.59,0,0,0-1.41.75c-0.33.21-.68,0.4-1.21,0.79A14.93,14.93,0,0,1,74,63c0.44-.23.93-0.44,1.35-0.63,0.87-.39,1.63-0.74,2.32-1.08a26.28,26.28,0,0,0,3.51-2.07L82.86,58a13.62,13.62,0,0,1,2-1.21,11.79,11.79,0,0,1,6.73-1.54,8.55,8.55,0,0,1,4.29,1.67c0.58,0.52.63,0.6-.12,0.2l0.76,0.5c0.36,0.23.73,0.6,1.16,0.95s0.82,0.84,1.24,1.27,0.78,1,1.12,1.45l0.9,1.36,0.8,1.4c0.64,1.38.8,1.94,0.68,1.79a8.61,8.61,0,0,1-.69-1.29c0.16,0.33.35,0.73,0.56,1.19l2.37,5.32c1.77,3.87,3.62,7.68,3.62,7.68l-0.09-.1c1.23,2.1,3.89,6.87,5.17,9.21,1.67,3.95-1.05-1.88-.74-0.81l4.29,8.3c1.29,3.6-2.29-3.28-5-9.11,2.53,8.43,3.62,6.85,10.94,24.23l-3.91-7.91c1.73,5.48,4.91,11.59,8.73,20.83-0.78-2.25-7.41-18.59-2.79-9.56,1.12,2.63,2.69,6.06,5.26,10.9-0.41.25,2,5,4.84,11.08l-0.77-.14c3.24,6.47,3.32,5.8,5.43,9.51,3.46,7.29,3.74,9,4.2,10.9,5.54,11.68-3.18-8.38,3.6,5.33,2.25,4.9,4.2,9,6.45,13.35a11.41,11.41,0,0,0,2.9,3.52,9.69,9.69,0,0,0,4.54,2,10,10,0,0,0,5.18-.59,13,13,0,0,0,4.5-3,10.81,10.81,0,0,0,1.68-2c0.34-.51.51-0.82,0.6-1s0.08,0.1-.16.65c-0.46,1.13-1.73,2.67-.55,1.37a7.79,7.79,0,0,0,.67-1.19,9.84,9.84,0,0,0,.87-2.83,13,13,0,0,0,.1-2.75c-0.06-.71-0.12-1.16-0.12-1.16-0.14-1.77.05-1.21,0.17-.93a16.3,16.3,0,0,0-.54-2.63,4.73,4.73,0,0,0-.36-0.82c-0.23-.49-0.52-1.37-1.28-5.72-1.06-2.24-1.72-18-4.16-28.71-0.23-2.68.58,1.23,0.7,0.38-2.78-14.72-2.27-12.64-4.78-24.7L162.68,94.3c0.65,7.69-1.35-2-3.07-10.41l0.07,1.06-0.39-2.65,0.33,1.59-0.1-1.56L159,80.47q-0.5-3.42-1-6.84a14.69,14.69,0,0,1,1.17,3.74l0.33,5c0.88,3.3,1.77,6.38,2,5.63-0.2-.87-0.52-2.57-0.83-4.43,0.23,0.86.41,1.41,0.41,1a40.16,40.16,0,0,0-.84-4.07l0.25-3.2-0.39-.71L158,58.68l-4-19c-0.19-.87-0.32-1.69-0.45-2.54l-0.1-1.3c0-.44,0-0.88,0-1.33A13,13,0,0,1,154.92,29a12.48,12.48,0,0,1,4.31-4.57A15.91,15.91,0,0,1,166,22.22c-2.48.58-2.62,1-2.28,1.07s1.26,0.24,1.18.56A10.51,10.51,0,0,0,160.49,25a10.85,10.85,0,0,0-4.19,3.72,12.3,12.3,0,0,0-1.92,6.09l0,0.86,0,0.87a16.78,16.78,0,0,0,.16,1.76l0.55,3.88a17.52,17.52,0,0,1-.35-4c0.08-.2.22,0.35,0.39,1.06L155,38.48c0-.45-0.21-1.1-0.22-1.88a13.34,13.34,0,0,1,.76-5.54,11,11,0,0,1,3.21-4.5,6.08,6.08,0,0,1,.84-0.64c0.27-.17.48-0.35,0.69-0.46l0.63-.35c0,0.16.16,0.15,0.53,0s0.92-.29,1.65-0.45a18.3,18.3,0,0,1,2.59-.47l3.5-.26c-1.9-.3,1.55-0.84,6.43-1.43a23.29,23.29,0,0,1,3.72-.23,14.12,14.12,0,0,1,3.65.57,10.49,10.49,0,0,1,3,1.53,10.91,10.91,0,0,1,2,2.08c0,0.13-.09.16-0.29,0s-0.47-.45-1-0.89A10,10,0,0,0,184.47,24a12.19,12.19,0,0,0-4.72-1.26A13.78,13.78,0,0,1,185,24.54a10.54,10.54,0,0,1,3.17,3,13.18,13.18,0,0,1,1.95,4.34,40.37,40.37,0,0,1,.91,6.35,27,27,0,0,0-.77-4.34c1.12,5.19,2.51,18.21,1.84,15.2l-0.31-2.27c0.45,3.79,1.16,8.55,1.92,13.56s1.58,10.34,2.38,15.25c1.59,9.82,3.06,18,3.65,19.08a9,9,0,0,1-1.61-2.7l4.66,18,1.3,8.65c-0.61,1.19-1.27,3-2.83-5.59,0.43,3.59,1,8,2.36,15.54-0.26-2.46.14-6.24,0.7-2.91,0.56,9.27.52,6.42,1.52,17.8-0.39-3.68,1.35.21,2.18,6-0.3-.88-1,0.65-1.48-1.45l1.65,7.12c0.62,2.63,1.27,5.24,1.58,6.43-0.68-2.41-.88.44-0.6,3.49,0-.38.12,0.2,0.36,1.36l0.43,2.11,0.27,1.28a13.31,13.31,0,0,0,.45,1.59,9.91,9.91,0,0,0,1.82,3.18,9.13,9.13,0,0,0,2.92,2.24,11,11,0,0,0,5.2,1.06s-0.45,0-1.12-.07a11.51,11.51,0,0,1-2.47-.54,9.38,9.38,0,0,1-2.34-1.14,6.44,6.44,0,0,1-.7-0.52l-0.25-.21a9.79,9.79,0,0,0,6.06,2.19,11.75,11.75,0,0,0,4.83-.81,8.46,8.46,0,0,0,5-5.56,13.36,13.36,0,0,0,.51-3.27c0.07-1.09.12-2.24,0.17-3.51,0.11-2.55.18-5.59,0.48-9.65,0.1,2,1.09,5,1.8-3.3-0.17-2.06-.62-6.83-0.92-13q0.62-9.25,1.26-18.5c0.22,7.95.38,17.11,0.37,23.28,0.68-6.11.5-1.68,1.11-10.86,0.53-3.22.12,5,0,7.74L236,118.77c-0.74.9,0.44-16.4-.14-15.62l-0.17,3.63-0.31,8-0.45,11.63c-0.37.45-.61-2.94-0.62-8.34s0.21-12.79.86-20.36c0.56-3.83,1,3,1.22,2.67-0.08-2,.65-14.4.92-15.78l-0.13,6.45c0.89-8.41.16-13.82,1.57-23.91,0.31-3.49,1.66-10.38,1.31-11-0.71,3.32-1.84,5-2.72,5.06q0.45-6,.87-11.93l0.22,0.51,0.17-2.3-0.26.06c0-.3,0-0.61.07-0.91a14.41,14.41,0,0,1,4.58-10c0.19-.06.2,0.06,0.07,0.27a8.53,8.53,0,0,1-.57.94c-0.25.39-.5,0.88-0.77,1.34-1,2-1.27,4.1-.2,2.2a4.38,4.38,0,0,1,.62-1.63,11.36,11.36,0,0,1,.73-1.14c0.27-.35.54-0.64,0.74-0.87,1.31-1,1.14-.65,1.32-0.65a1.85,1.85,0,0,0,.79-0.35c0.26-.15.64-0.3,1.12-0.55a15.35,15.35,0,0,1,2-.67,2,2,0,0,1,.88-0.37,7.89,7.89,0,0,1,1.65-.26,16.88,16.88,0,0,1,2,0l2,0.15a8.28,8.28,0,0,0,1.58.1l-1.39-.18-1.45-.18-0.94-.11-1-.09c0.89,0,1.79,0,2.56.09l2.13,0.14c1.29,0.09,2.38.19,3.5,0.3l3.72,0.35A15.48,15.48,0,0,1,269,36.57c-0.59-.33-0.41-0.45.32-0.32a9.9,9.9,0,0,1,3.38,1.48,11.5,11.5,0,0,1,2.71,2.6,13.9,13.9,0,0,1,2.1,8.61c0,0.29,0,.58-0.06.87s-0.08.38-.11,0.54c-1.27,16-2.22,24.56-3.35,39.47-0.27,1.36-1,8.54-1.07,5.46,0,2.15,0,4.14-.3,8.74-1.28,8.86.7-10.26-.53-3.53,0.35,0.61-.37,11.94-0.63,18.51,0.76-2,1.29-15.13,1.55-21.71,0.29,0,.48,1.39.57,3.84q-1.83,23.84-3.68,47.68l-0.06.07a2.23,2.23,0,0,0-.67,1.43c0,0.61,0,1.25,0,1.93,0,1.36-.12,2.85-0.26,4.46-0.25,3.21-.73,6.84-1.17,10.7a86.92,86.92,0,0,0-.71,12.08c0.09,3.35.39,6.69,0.45,9.89l-0.87.94,0,0,0.91,0.41c0,0.25,0,.51,0,0.75v0.56l0,0,0,1.29c0,0.61-.11,1.2-0.16,1.79-0.12,1.15-.23,2.39-0.37,3.35a4.71,4.71,0,0,0-1.06,3.14v0.2l-0.1.08a3,3,0,0,0-.45,3.41,6.17,6.17,0,0,1-2,1.89l-0.18.12c-1,.5-2.22.87-3.37,1.29l-22.49,8.19-6.76,2.34,2.34-.74,2.15-.77q-14.74,5.37-29.47,10.79c0.13-.12.1-0.19-0.15-0.18l-4.12,1.64L198.43,231c-0.33.14-.59,0.26-0.8,0.36l-0.46.21c0.06-.19,2.61-1.43.37-0.59-0.09.16-.68,0.5-1.48,1.15-0.28.22-.58,0.5-0.89,0.81A9.84,9.84,0,0,0,192,239c-0.3,1.92-.61,3.84-0.92,5.77-0.07.32-.13,0.65-0.2,1s-0.07.63-.1,0.92q-0.84,5.2-1.7,10.39c-0.07.34-.15,0.75-0.24,1.28s-0.13,1-.2,1.44c-0.75,4.56-1.49,9.12-2.2,13.69-0.66,4.29,3.11,8.89,7.5,9.65s9.43-2.34,10.19-6.68c1.53-8.84,2.76-17.73,4.5-26.52,0.37-1.85,2.05-4.29,3.71-4.91,20.5-7.68,41.11-15.06,61.67-22.57,4.3-1.57,7.87-3.6,9.25-8.77,0.74-2.78,3.39-5.24,5.62-7.39,5.21-5,11-9.48,16-14.64,7.57-7.76,14.7-16,22.07-23.92,5.45-5.88,12.43-6.34,18.55-1.26,2.66,2.21,5.24,4.5,7.83,6.79C360.36,179.44,360.83,187.12,354.48,194.12ZM157.76,65a64.25,64.25,0,0,1,1.06,7.9C158.44,70.55,158.07,67.91,157.76,65Zm131.56,116.1c-0.39.3-.87,0.72-1.41,1.21-0.05-.15-0.09-0.1-0.12.1l-0.11.1c0-.1,0-0.19,0-0.29C289.22,180.6,290.31,179.56,289.32,181.06Zm-0.61-.08-1,1.06c0-.16,0-0.32,0-0.48ZM104.38,35.92c0.68,0.29,1.34.56,1.9,0.86a9.55,9.55,0,0,1,1.3.85,12.47,12.47,0,0,1-1.61-.57c-0.52-.2-1-0.41-1.55-0.66s-1.1-.5-1.72-0.78a21.77,21.77,0,0,0-2.16-.85A29.51,29.51,0,0,1,104.38,35.92ZM74.91,136.31c-0.28-.22-0.56-0.45-0.85-0.7l-0.34-.52,1,0.89Z"/>
    <path class="cls-1" d="M94.46,56.47c-0.16-.07-0.33-0.11-0.5-0.16A6.12,6.12,0,0,0,92.58,56a9.28,9.28,0,0,1,2.7.91l-0.41-.2Z"/>
    <path class="cls-1" d="M107.7,78.13l0.45,0.5C107.53,77.57,107.24,77.15,107.7,78.13Z"/>
    <path class="cls-1" d="M162.68,94.3c-0.13-1.57-.37-3.81-0.74-7Z"/>
    <path class="cls-1" d="M111.59,165.39l2.2,3.67C111,163,112,165.78,111.59,165.39Z"/>
    <path class="cls-1" d="M254.35,334.42l1.18,0A3,3,0,0,0,254.35,334.42Z"/>
    <path class="cls-1" d="M277.33,50.35l0-.29C277.2,51.06,277.23,50.89,277.33,50.35Z"/>
    <path class="cls-1" d="M64.66,214.37l0.45,0.58C67.52,217.43,66.5,216.31,64.66,214.37Z"/>
    <path class="cls-1" d="M201.2,112.66l0.08,0.38-0.06-.5Z"/>
    <path class="cls-1" d="M199.06,100.56a79.78,79.78,0,0,1,2.16,12l0.64-4.2Z"/>
    <path class="cls-1" d="M231.47,335.8l-0.73,0Z"/>
    <path class="cls-1" d="M95.28,56.88l0.44,0.24-0.1-.07A2.33,2.33,0,0,0,95.28,56.88Z"/>
    <path class="cls-1" d="M24.13,156.21c0.26-.38.52-0.74,0.75-1.06C24.6,155.52,24.35,155.87,24.13,156.21Z"/>
    <path class="cls-1" d="M101.7,64.55c-0.32-.65-0.53-1-0.53-1C101.37,63.9,101.54,64.24,101.7,64.55Z"/>
    <path class="cls-1" d="M161.66,86.86a2.59,2.59,0,0,1-.1,1.1C161.78,88.91,161.87,88.92,161.66,86.86Z"/>
    <path class="cls-1" d="M111.18,164.71l0.16,0.36a1.55,1.55,0,0,0,.25.32Z"/>
    <path class="cls-1" d="M242,40.75l0.72-1a14.42,14.42,0,0,1,1.3-1.41,14.21,14.21,0,0,0-2.5,3C241.55,41.44,241.69,41.28,242,40.75Z"/>
    <path class="cls-1" d="M268.26,152.56l0.09-1.45a8.79,8.79,0,0,1,.11-1,2.81,2.81,0,0,1,.8-1.43l-0.37-.2,0.24-.49a2.76,2.76,0,0,0-.35.43h0a3.44,3.44,0,0,0-.61,2.17Z"/>
    <path class="cls-1" d="M269.36,148.77l0.17-.35a3.44,3.44,0,0,0-.27.25l0.11,0.06v0Z"/>
    <path class="cls-1" d="M270.57,126.34c-0.1-.91.52-13.14-0.33-1.69C270.34,125.58,269.78,134.63,270.57,126.34Z"/>
    <path class="cls-1" d="M231.65,170.34c0.13-.4.19-0.78,0.27-1.14s0.11-.62.16-0.9c0.09-.55.16-1,0.22-1.46,0.11-.85.16-1.47,0.19-1.93a5.28,5.28,0,0,0-.05-1.48c-0.11-.52-0.19-1,0.28-5.78,0-1.26-.23.71-0.42,2.67s-0.43,4-.42,2.65c-0.08,1.64-.2,3.11-0.33,4.32l-0.2,1.63c-0.09.54-.16,1-0.25,1.37a3.34,3.34,0,0,0-.21,1.21A2.47,2.47,0,0,0,231.65,170.34Z"/>
    <path class="cls-1" d="M231.88,163c0-1.05.08-2.17,0.09-3.34Z"/>
    <path class="cls-1" d="M131.69,131.48l0.37,0.41a49.6,49.6,0,0,0-2.33-5.45Z"/>
    <path class="cls-1" d="M87.39,56.24a3.1,3.1,0,0,1,.65.12l0.62,0.17,0.64-.13,0.62,0A12.37,12.37,0,0,0,87.39,56.24Z"/>
    <path class="cls-1" d="M84.6,106.36c-0.3-.65-0.62-1.32-1-2C83.93,105,84.26,105.67,84.6,106.36Z"/>
    <path class="cls-1" d="M88.07,113.5c-1-2.25-2.32-4.77-3.48-7.14C86.95,111.43,87.82,114.48,88.07,113.5Z"/>
    <path class="cls-1" d="M131.19,74.23l1.29,2.45C131.89,75.52,131.5,74.77,131.19,74.23Z"/>
    <path class="cls-1" d="M122.48,56.12l-0.39-.36C122.6,56.55,122.84,56.86,122.48,56.12Z"/>
    <path class="cls-1" d="M67,123.23c0.42,1.13,1.06,2.72,2,4.94Z"/>
    <path class="cls-1" d="M132,31.45l0-1.23,0-1.24,0.06-.56c-0.5,2.75-.5,3.54-0.42,3.69s0.22-.34.31-0.11C132.05,32,132,31.78,132,31.45Z"/>
    <path class="cls-1" d="M290.73,145.84l-0.12.89A1.78,1.78,0,0,0,290.73,145.84Z"/>
    <path class="cls-1" d="M105.9,351.29l-0.12-.19A1.77,1.77,0,1,0,105.9,351.29Z"/>
    <path class="cls-1" d="M218.76,50.63l0.08-.55C218.82,47.44,218.78,48.6,218.76,50.63Z"/>
    <path class="cls-1" d="M12.07,186.26l0.21,0.21-0.24-.3Z"/>
    <path class="cls-1" d="M8.33,181.23C7.67,180.77,7,180.35,6.51,180l-0.84-.65c0.78,0.79,1.44,1.38,2,1.95s1.11,1.11,1.6,1.64c1,1.06,1.81,2.08,2.75,3.26L11,183Z"/>
    <path class="cls-1" d="M292.06,128.43l0.06-.53C292.1,128,292.08,128.22,292.06,128.43Z"/>
    <path class="cls-1" d="M8.67,139.61l0.3-.35Z"/>
    <path class="cls-1" d="M127.19,66.11l0.54,1.1C127.52,66.77,127.34,66.41,127.19,66.11Z"/>
    <path class="cls-1" d="M69.38,128.43a1.62,1.62,0,0,1-.11-0.85C68.88,126.94,68.79,127,69.38,128.43Z"/>
    <path class="cls-1" d="M132.09,32.66l0-.32a1.14,1.14,0,0,0-.07-0.33Z"/>
    <path class="cls-1" d="M98,317.31c0-1.81,0-2.83,0-3.5C97.89,313.72,97.84,314.55,98,317.31Z"/>
    <polygon class="cls-1" points="243.42 355.38 249.74 355.15 247.87 355.16 243.42 355.38"/>
    <path class="cls-1" d="M177.15,360.43l3.23-.43a18.58,18.58,0,0,1-3.05-.2Z"/>
    <path class="cls-1" d="M160.35,361.32c-0.67.21-9.94,1.08-1.24,0.53C159.8,361.64,166.67,361.09,160.35,361.32Z"/>
    <path class="cls-1" d="M56,236.43c-3.43-3.54-5-5.59-4-3.44,5.18,6.31,1.75,1,6.36,6.8C59.72,241.08,54.51,235.09,56,236.43Z"/>
    <path class="cls-1" d="M56,236.43l1.77,1.79C56.74,237.19,56.26,236.72,56,236.43Z"/>
    <path class="cls-1" d="M88.84,32.21c-0.44,0-1,0-1.6,0-1.16,0-2.32.11-2.32,0.11l-0.41.24c0.92,0,2.28-.26,5.06-0.28Z"/>
    <polygon class="cls-1" points="134.1 78.81 134.55 81.13 134.61 79.92 134.1 78.81"/>
    <path class="cls-1" d="M137.56,81.68c0.07,0.54.16,1.1,0.26,1.69C137.74,82.82,137.65,82.25,137.56,81.68Z"/>
    <path class="cls-1" d="M136.59,75.72c0.26,1.87.65,4,1,6C137,77.47,137.15,75,136.59,75.72Z"/>
  </g>
</svg>
