<svg id="rock" data-name="rock" xmlns="http://www.w3.org/2000/svg" viewBox="0 0 271.89 274.09">
  <title>rock</title>
  <g>
    <path d="M186.64,150.54l1.46-.6C187.4,150.21,187,150.39,186.64,150.54Z"/>
    <path d="M175.82,154.07l-0.2.27C176.08,154.07,176.26,153.93,175.82,154.07Z"/>
    <path d="M145.26,127.58l0.56-.13,0.48-.13-0.46.11a9.09,9.09,0,0,1-1.25.23l-1.49.13c0.29,0,.67,0,1.21-0.07A9.39,9.39,0,0,0,145.26,127.58Z"/>
    <path d="M199.69,170.29l-1.6,1C200.81,170.38,199.54,170.57,199.69,170.29Z"/>
    <path d="M62.16,197.54H61.65A0.61,0.61,0,0,0,62.16,197.54Z"/>
    <path d="M218.31,179.78l0.05-.12A0.59,0.59,0,1,0,218.31,179.78Z"/>
    <path d="M124.34,222.76a7.53,7.53,0,0,0,1.13.68,3.32,3.32,0,0,1-.28-0.22A4,4,0,0,0,124.34,222.76Z"/>
    <path d="M222.31,102l0.15-.07-0.21.05Z"/>
    <path d="M217.4,104a15,15,0,0,1,4.86-2l-2.06-.63Z"/>
    <path d="M146,201.6c0-.16.07-0.31,0.09-0.44Z"/>
    <path d="M181.89,152.21l0.56-.19Z"/>
    <path d="M146.45,127.05a0.73,0.73,0,0,1-.52-0.1C145.55,127.16,145.57,127.25,146.45,127.05Z"/>
    <path d="M199.69,170.29l0.3-.18-0.16,0A0.39,0.39,0,0,0,199.69,170.29Z"/>
    <path d="M226.64,161.6a12.54,12.54,0,0,1,1.23-1.57C227.79,159.93,227.47,160.28,226.64,161.6Z"/>
    <path d="M204.89,253.75h0.87a3.66,3.66,0,0,0,.39,0s-0.22,0-.56,0l-1.23,0-1.79-.07,1.06,0.1Z"/>
    <path d="M214.39,221.77l0.23,1.84a6.31,6.31,0,0,1,.39-1.72Z"/>
    <path d="M214,211.53c0.18,0.39.33,4.29,0.46,0.71C214.31,211.86,213.94,206.6,214,211.53Z"/>
    <path d="M247.43,114.49c-1.09-2.5-1.5-3.87-1.68-2.47,0.64,2.14.85,2.35,1.06,2.5s0.41,0.26.83,2.23C248.2,117.68,246.93,113.52,247.43,114.49Z"/>
    <path d="M247.43,114.49l0.56,1.28A11.69,11.69,0,0,0,247.43,114.49Z"/>
    <path d="M151.88,160.85l-0.34,0-0.15.21a8.14,8.14,0,0,0,2.45-.58l-1.16.19Z"/>
    <polygon points="190.75 149.12 190 148.76 189.34 148.97 190.75 149.12"/>
    <path d="M221.39,151a9.8,9.8,0,0,0-.49-1.31C221.07,150.07,221.25,150.51,221.39,151Z"/>
    <path d="M221.82,152.54a11.78,11.78,0,0,0-.4-1.49l0-.1a10.69,10.69,0,0,1,.41,3.38c-0.06,1.08-.13,1.56.26,1.32A10.94,10.94,0,0,0,221.82,152.54Z"/>
    <path d="M31,221.58h0C31.07,221.57,31.06,221.57,31,221.58Z"/>
    <path d="M39.19,57.36l-0.5.22A2.93,2.93,0,0,0,39.19,57.36Z"/>
    <path d="M42.78,56.73l0.06-.2C42.7,56.65,42.64,56.74,42.78,56.73Z"/>
    <path d="M57.62,74.68a5.21,5.21,0,0,0-.1,1.05Z"/>
    <path d="M23.12,65.47c0.34-.64,0-0.46-0.17-0.62L23,65.16C23.07,65.32,23.12,65.47,23.12,65.47Z"/>
    <path d="M32.82,138.08c0,0.06,0,.13,0,0.18S32.85,138.19,32.82,138.08Z"/>
    <path d="M70.2,139.65v0C70.14,139.77,70.15,139.74,70.2,139.65Z"/>
    <path d="M24.78,98s0,0.07,0,.11C25,98.62,25,98.4,24.78,98Z"/>
    <path d="M61.94,102.46l0,0.05v-0.08Z"/>
    <path d="M61.32,100.75a1.89,1.89,0,0,1,.65,1.69l1.13-.8Z"/>
    <path d="M57.73,75.77a0.44,0.44,0,0,1,.23-0.2C57.86,75.44,57.77,75.46,57.73,75.77Z"/>
    <path d="M22.92,64.73l0,0a0.21,0.21,0,0,0,.05.08Z"/>
    <path d="M67.22,133.33a1.7,1.7,0,0,1,.14-0.7C67.23,132.63,67.16,132.8,67.22,133.33Z"/>
    <path d="M73.9,166.32l-0.19.58-0.13.39-0.08.17a2.42,2.42,0,0,0,.2-0.31Z"/>
    <path d="M71.82,154l0.37,0.56a1.2,1.2,0,0,1,.25-0.65Z"/>
    <path d="M71.24,150.78c-0.19-.09-0.86-1.79-0.49-0.15C70.94,150.73,71.35,152,71.24,150.78Z"/>
    <path d="M64.17,115c-0.41-.89-0.35-1.4-0.94-0.86,0,1.58.68,0.26,0.62,1.7C64.15,116.21,63.9,114.71,64.17,115Z"/>
    <path d="M64.17,115a4.51,4.51,0,0,0,.23.45A2,2,0,0,0,64.17,115Z"/>
    <path d="M48.85,58.24l0.37,0.56,0.12-.11A0.68,0.68,0,0,0,48.85,58.24Z"/>
    <polygon points="37.76 57.72 38.07 58.24 38.3 58.2 37.76 57.72"/>
    <path d="M28,61.31a7.21,7.21,0,0,1,.93-0.46C28.27,61.16,27.58,60.69,28,61.31Z"/>
    <path d="M108.77,132.33l0-.58A3.24,3.24,0,0,0,108.77,132.33Z"/>
    <path d="M107.94,136.34l0.18,0.12C108,136.27,108,136.18,107.94,136.34Z"/>
    <path d="M103.91,156.68a5.44,5.44,0,0,0-1-.15Z"/>
    <path d="M117.91,114.08c-0.09.56,0.16,0.36,0.37,0.45l-0.18-.23Z"/>
    <path d="M107.23,42.23s0-.1,0-0.15S107.18,42.15,107.23,42.23Z"/>
    <path d="M82.54,104.43v0C82.61,104.31,82.6,104.34,82.54,104.43Z"/>
    <path d="M115.26,80.91s0-.07,0-0.11C115,80.34,115.09,80.55,115.26,80.91Z"/>
    <path d="M90.78,141l0-.05V141Z"/>
    <path d="M91.39,142.64a1.83,1.83,0,0,1-.65-1.66l-1.13.79Z"/>
    <path d="M108.45,134.12l0-.21A1.12,1.12,0,0,0,108.45,134.12Z"/>
    <path d="M102.87,156.75a0.45,0.45,0,0,1,.18.24C103.18,156.9,103.17,156.8,102.87,156.75Z"/>
    <path d="M118.34,114.62v0l-0.08-.05Z"/>
    <path d="M85.53,110.62a1.66,1.66,0,0,1-.13.69C85.52,111.31,85.59,111.14,85.53,110.62Z"/>
    <path d="M81.23,90.36l-0.34-.56a1.18,1.18,0,0,1-.28.63Z"/>
    <path d="M81.67,93.5c0.19,0.1.81,1.77,0.49,0.16C82,93.55,81.61,92.3,81.67,93.5Z"/>
    <path d="M88.57,128.6c0.41,0.87.35,1.38,0.94,0.84,0-1.56-.68-0.25-0.62-1.67C88.59,127.46,88.83,128.93,88.57,128.6Z"/>
    <path d="M88.57,128.6a4.4,4.4,0,0,0-.23-0.44A2,2,0,0,0,88.57,128.6Z"/>
    <path d="M107.2,145.63a1.46,1.46,0,0,0,.08-1l-0.25.91Z"/>
    <path d="M108.44,131.08l0.35-.14,0.36-.13-0.62,0S108.44,131.08,108.44,131.08Z"/>
    <path d="M113.53,119.61c-0.31.4-.53,1-0.84,1.35C113.22,120,114.2,119.93,113.53,119.61Z"/>
    <path d="M173.61,93.46l-0.08-.26A0.77,0.77,0,0,0,173.61,93.46Z"/>
    <path d="M173,94.61l0.11,0.17C173.13,94.65,173.09,94.58,173,94.61Z"/>
    <path d="M152,102.46h0.82A3.25,3.25,0,0,0,152,102.46Z"/>
    <path d="M171.12,78.39l-0.51-.4C170.72,78.72,170.89,78.37,171.12,78.39Z"/>
    <path d="M160.34,24.39a0.93,0.93,0,0,1-.05-0.09S160.28,24.36,160.34,24.39Z"/>
    <path d="M133.39,73.57v0C133.46,73.47,133.45,73.5,133.39,73.57Z"/>
    <path d="M168.62,51.57a0.83,0.83,0,0,1,0-.09C168.42,51.13,168.47,51.3,168.62,51.57Z"/>
    <path d="M139.72,101.86l0,0v0.06Z"/>
    <path d="M140.25,103.15a1.18,1.18,0,0,1-.56-1.28l-1.17.64Z"/>
    <path d="M152,102.68a0.48,0.48,0,0,1,.2.21C152.28,102.77,152.25,102.68,152,102.68Z"/>
    <path d="M171.21,78.47v0l-0.09,0Z"/>
    <path d="M136,78.34a1.14,1.14,0,0,1-.17.54C136,78.88,136,78.75,136,78.34Z"/>
    <polygon points="130.36 53.2 130.36 52.27 130.3 52.56 130.36 53.2"/>
    <path d="M132.88,62.62l-0.31-.43a0.94,0.94,0,0,1-.31.49Z"/>
    <path d="M133.14,65.06c0.19,0.07.7,1.37,0.48,0.12C133.44,65.1,133.15,64.13,133.14,65.06Z"/>
    <path d="M138.12,92.28c0.36,0.67.28,1.06,0.89,0.64,0.06-1.21-.66-0.18-0.53-1.29C138.2,91.39,138.37,92.53,138.12,92.28Z"/>
    <path d="M138.12,92.28a2.91,2.91,0,0,0-.21-0.34A1.3,1.3,0,0,0,138.12,92.28Z"/>
    <path d="M168.43,95.68l-0.68-.17v0.17A0.78,0.78,0,0,0,168.43,95.68Z"/>
    <path d="M173,92.93s0.59-.21.59-0.23l-0.57.12Z"/>
    <path d="M171.39,85.88c-0.22-.75.46-1.31-0.25-1.1C171.17,85.13,171.36,85.52,171.39,85.88Z"/>
    <path d="M195.49,87l-0.17.19A0.37,0.37,0,0,0,195.49,87Z"/>
    <path d="M192.29,71a2.36,2.36,0,0,0,.18-0.67Z"/>
    <path d="M206.38,83.27l0.22-.54C206,82.92,206.36,83,206.38,83.27Z"/>
    <path d="M223,52.18a1,1,0,0,1,0-.11C223,52.06,223,52.11,223,52.18Z"/>
    <path d="M186.53,30.75v0C186.63,30.72,186.61,30.73,186.53,30.75Z"/>
    <path d="M225.47,76.86l0.05,0C225.42,76.54,225.42,76.65,225.47,76.86Z"/>
    <path d="M190.07,53.67l0,0v0Z"/>
    <path d="M190.56,54.72a0.85,0.85,0,0,1-.52-1l-1.18.55Z"/>
    <path d="M192.26,70.29a0.54,0.54,0,0,1-.24.13C192.11,70.5,192.2,70.49,192.26,70.29Z"/>
    <path d="M206.34,83.37h0a0.23,0.23,0,0,0,0-.09Z"/>
    <path d="M187.43,34.9a1,1,0,0,1-.27.34C187.28,35.25,187.35,35.17,187.43,34.9Z"/>
    <path d="M192.66,24.77l0.27,0.56,0.21-.37A0.88,0.88,0,0,1,192.66,24.77Z"/>
    <path d="M191.5,26.68c0-.18.46-0.76-0.17-0.45C191.38,26.43,190.8,27.28,191.5,26.68Z"/>
    <path d="M188.77,45.85c0.34,0.54.24,0.87,0.87,0.5,0.09-1-.66-0.13-0.49-1C188.88,45.12,189,46,188.77,45.85Z"/>
    <path d="M188.77,45.85a2.16,2.16,0,0,0-.2-0.27A1,1,0,0,0,188.77,45.85Z"/>
    <path d="M195.84,84.38l0.29-.54-0.16,0A0.56,0.56,0,0,0,195.84,84.38Z"/>
    <path d="M196.39,87l0.11-.64h0l-0.05.33Z"/>
    <path d="M201.22,84c-0.28.07-.56,0.3-0.84,0.37C200.94,84.09,201.53,84.69,201.22,84Z"/>
    <path d="M247.12,71.84l0.22,1.63C247.25,72.7,247.18,72.2,247.12,71.84Z"/>
    <path d="M246.38,60l-0.21-.28C246.31,60.22,246.41,60.44,246.38,60Z"/>
    <path d="M190.81,4.6l1.58-.3c-0.72.1-1.74,0.28-3.16,0.61Z"/>
    <path d="M270.54,131.85a5.27,5.27,0,0,0,.64-2.15c-0.05-.11-0.25.15-0.31,0,0,0-.05.55-0.15,1.08S270.54,131.85,270.54,131.85Z"/>
    <path d="M137.52,273.91a0.67,0.67,0,0,0,.53.05Z"/>
    <path d="M7,51.11L7.09,51A0.64,0.64,0,1,0,7,51.11Z"/>
    <path d="M234.49,229.27l0,0.33C234.64,231.15,234.61,230.47,234.49,229.27Z"/>
    <path d="M112.68,16.94l-0.09,0h0.13Z"/>
    <path d="M114.36,17.65a2.07,2.07,0,0,0,.2-0.88,2.58,2.58,0,0,1,.1-0.65l0.16-.74c0.11-.49.26-1,0.4-1.47l-0.71,1.38-0.32.6-0.16.28a1,1,0,0,0-.07.14,0.91,0.91,0,0,1-.5.49,2.29,2.29,0,0,1-.74.17,6.27,6.27,0,0,0,.72.44A3,3,0,0,0,114.36,17.65Z"/>
    <path d="M148.41,273.94l0.32,0Z"/>
    <path d="M148.41,273.94l-3.5-.17c10.84-.28,24.07.1,34.53-0.51l-0.8-.22c8-.42,6.4.24,15.18,0l-0.32.05a50.52,50.52,0,0,1,6.5-.31c-2.22.26,4.17,0.51,1.26,0.8a56.71,56.71,0,0,0,6.11-.45c0.67-.14,1.1-0.28,4-1l1.42,0.13c1-.31,1.48-0.64,2.29-1s1.91-.75,3.93-1.74c-1.61.93-.92,0.73-0.22,0.63a1,1,0,0,1,.67-0.08,2.38,2.38,0,0,1-1.22.88,10.18,10.18,0,0,0,1.67-.65l1.52-.72c0.92-.57,1.8-1.1,2.55-1.68s1.43-1.17,2-1.77l1.61-1.74c1.87-2.34,3-4.27,4.63-6,0.31-1.12.12-1.24-.18-0.78s-0.94,1.37-1.54,2.38-1.35,2-1.88,2.56-0.73.84-.37,0.33c-0.81.67-.32-0.12,0.5-1.41,0.37-.67.89-1.43,1.33-2.23s0.9-1.58,1.22-2.24a15.38,15.38,0,0,1,1.1-1.92l1.23-2.21c0.19-.44.39-0.92,0.59-1.45a9.64,9.64,0,0,0,.55-1.8,15.1,15.1,0,0,0,.39-2.24c0-.81.13-1.8,0.09-2.7,0,0.72.08,0.81,0.06,1.6,0-.37.08-0.76,0.08-1.12s0-.69,0-1c0-.69-0.09-1.38-0.14-2.1a25.19,25.19,0,0,1,0-4.63c-0.65-1.89,0-4.39-.81-4.93l0.27,6.77c-0.27-3.83-1.24-7.42-.8-13.76a30.68,30.68,0,0,1,.5,3.67c0.23-1.85-.17-3.56.07-5.48,0.79,0.55.18,8.23,0.85,12.33,0.3-2-.64-7.77.23-5.71-1.11-3,.11-7.27-0.7-12.27l0.47,0.33a35.84,35.84,0,0,1-.27-3.89l0.6,2.64c-0.51-4,.51-7.8.26-11.68-0.06,8.13-.59,1.82-1,5.26-0.54-9.89,1.24-5.89,1.19-16.52,0,1.75-.37,5-0.54,2.85,0.06-1.07.14-2.31,0.24-3.45a7,7,0,0,1,.56-2.25c0.3-1.49.59-2.17,0.62-2.42s-0.11-.06-0.3.24c-0.38.59-.89,1.68-0.61,0.32a10.16,10.16,0,0,0,1.22-2.5,32.35,32.35,0,0,1,1.45-3.47l0.43,0.22c4.55-7.17.26-2.44,4.44-8.85l-1,3.12,1.86-3.52,0.06,1a58.8,58.8,0,0,1,4.88-8.64c-0.79.68-.48-0.92,1.4-4.17,1.54-2.07-.33,1.47,2.3-3.17a9.66,9.66,0,0,1-2.24,4.3c0,0.28-.34,1.17-0.33,1.46a79.78,79.78,0,0,0,4.54-7.62c-0.39.63-.86,1.39-1.15,1.74l3.32-7c0.77-1,.41-0.05.05,0.84,0.74-1.38,1.1-2.42,2.22-4.43,0,0.71.46,0.79-1,3.69l3.34-6.57c0.4-.34,2.31-3,2-2.13a63,63,0,0,0,3.42-6.36c1.2-2.47,2.48-5.21,3.54-8,0-.32.16-0.94,0.4-2.21a21,21,0,0,0,.37-8.49,43.23,43.23,0,0,0-2.21-8.07l-0.25-3.48c-1.51-4.6.49,4.79-2-2.85-1-2.68-1.07-3.23-.89-3.37s0.55,0.15.27-.84c-0.67-1.3-1.7-3-2.85-5s-2.56-4.19-4-6.52a14.49,14.49,0,0,1,1.54,2c0.46,0.65.84,1.32,1.3,2L262.17,92c-0.17-.35-0.39-0.83-0.66-1.28L260.8,89.5c-0.2-.34-0.35-0.56-0.35-0.56A29.62,29.62,0,0,1,264,93.55c0.58,0.89.63,0.8-.08-1.09-0.39,0-1.07-.83-2-2.09a53.91,53.91,0,0,0-3.65-4.42c-2.85-3.07-6.43-5.31-7-4.86l-0.34-.27a9.35,9.35,0,0,0-.76-0.56L249,79.47c0.67,0.39.82,0.38,1.49,0.76a17.8,17.8,0,0,0-1.74-1.14c-0.16-.1-0.27-0.11-0.52-0.26s-0.48-.3-0.66-0.4c-0.39,0-.65-1.67-0.77-4.3,0-2.24.06-3.82,0.32-2.3l-0.66-5c-0.06-1.21.11-1.16,0.21-.29l-0.55-7,0,0.05c-0.28-1.07-.77-3.51-1-4.7,0.07-1.94.21,1,.34,0.46l-0.6-4.19c0.24-1.73.81,1.73,0.94,4.64,1.1-4-.57-3.47-0.32-12l0.43,4c0.6-2.6.13-5.68,0.32-10.2-0.18,1.08-.63,9.05-1.26,4.51a27.72,27.72,0,0,0-.47-5.44c0.24,0,.29-0.64.26-1.62s-0.15-2.3-.29-3.95l0.65,0.16a12.36,12.36,0,0,0-.8-3.15c-0.25-.6-0.5-1-0.87-2-0.46-1.9-.75-3.06-0.88-3.89a11.81,11.81,0,0,1-.11-1.85c-1.39-2.94-1.09-1.82-.84-0.87,0.13,0.48.2,0.93,0,.83a15.5,15.5,0,0,1-1.48-2.33,22.4,22.4,0,0,0-4.32-5.73,25.11,25.11,0,0,0-2.8-2.35,34.63,34.63,0,0,0-3.49-2.31c-2.87-2.16.74,0-.24-0.84,0,0-.73-0.35-1.48-0.65l-1.53-.53c-0.68-.38-0.39-0.4-0.24-0.41-1.23-.56-1.37-0.39-1.66-0.35s-0.75,0-2.71-.69c-0.66.18-2.54-.81-5.09-1.56a19.14,19.14,0,0,0-8.27-.81c-1.27-.18.61-0.39,0.22-0.64a44.58,44.58,0,0,0-6.32.9,19.84,19.84,0,0,0-2.06.52c-0.79.23-1.76,0.5-3.1,1l-0.75.09c-0.45.05-1,.13-1.64,0.23l-1.64.26-0.74.12c3.54-.39-0.72,1.2-4.27,2.82l0.5-.06-1.22.38,0.71-.32-0.71.08-0.79.49c-1,.33-2,0.63-2.95.9a3.5,3.5,0,0,1,1.49-1.1l2.25-.29c1.35-.82,2.61-1.66,2.2-1.92A18.18,18.18,0,0,1,187.7,6c0.36-.22.57-0.39,0.38-0.39a7.94,7.94,0,0,0-1.73.78l-1.55-.26-0.24.37s-2,.51-3.81.79a16.25,16.25,0,0,1-2.48.18,6.28,6.28,0,0,1-.78,0l-0.29,0a12.5,12.5,0,0,1-7.56-1.73l-2.24-1.17L166.15,4a10,10,0,0,0-1.31-.5,25.67,25.67,0,0,0-6.13-1.32c2.37-.2.64-0.77,0.84-1.37a15.56,15.56,0,0,0,2.29.7c0.87,0.29,1.88.47,2.92,0.87A20.91,20.91,0,0,1,168,3.82c0.53,0.32,1.06.65,1.6,1s0.92,0.63,1.38,1a4.44,4.44,0,0,1-1.29-1.16c0-.14.32,0,0.57,0.09L169,4a22.89,22.89,0,0,0-2.87-1.43,23.27,23.27,0,0,0-3-1l-1-.24a2.57,2.57,0,0,0-.39-0.07c0.33-.43-1.81-0.88-4.18-1.27,0.43,0.28.21,0.43-.4,0.51A11.19,11.19,0,0,1,156,.56l-1.59.07a43.75,43.75,0,0,0-7,.79c-0.13-.15,0-0.35.7-0.55a18.81,18.81,0,0,1,4.18-.54,11.49,11.49,0,0,0-5.42.79,14.87,14.87,0,0,1-5.19,1.12,6.3,6.3,0,0,0,2-.45,33.31,33.31,0,0,1-4.79.87c-1.58.18-2.79,0.25-2.1,0l1.05-.18a38.88,38.88,0,0,0-6.26,1.35,31.3,31.3,0,0,0-6.69,2.9A24.54,24.54,0,0,0,120,10.46a7,7,0,0,0-1.82,2.43,3.53,3.53,0,0,1,.12-1.82,29,29,0,0,0-3.15,6.16A2.47,2.47,0,0,1,114,18.65a4.24,4.24,0,0,1-2.73.21l-1-.38c-0.14-.72-0.41-1.59,1.33-1.35a3,3,0,0,0,1-.15,1.64,1.64,0,0,1-.85-0.17l-0.39-.17-0.53-.22c-0.37-.15-0.77-0.27-1.21-0.42a21.31,21.31,0,0,0-3.08-.73c1.15,0.36,2.5,1.8,1,1.41A18.92,18.92,0,0,0,104,15.26c-0.86-.22-1.83-0.5-4.52-1,1.74,0.26-.27,1.21-2.92,1.26,0.42-.18-0.27-1.13.74-1.27,0,0-.43.07-1.07,0.21s-1.48.33-2.31,0.54c-1.23.32-2.41,0.71-3,.89C92,15.47,90.66,15,89.21,15c0.39,0-1.16.35-2.7,0.61S82.89,16,82,16.18l2.78-.08a26.76,26.76,0,0,0-4.36.75A19,19,0,0,0,77.52,18c-1.72.86-3.4,1.65-6.76,3.2A1.23,1.23,0,0,0,71.3,20c-0.16-.28-0.91-0.4-2.7.52a32.82,32.82,0,0,0-3.44,4.54l-0.28.45a22.13,22.13,0,0,0-3.21,3.88c-0.62,1-1.24,1.85-1.87,2.68,0.2-.43.4-0.87,0.59-1.32a34.3,34.3,0,0,1,2.08-4.48,20,20,0,0,1,2.71-3.61c-1.26.84-1.44,1-1.79,1.19a4.22,4.22,0,0,0-.71.61,17.89,17.89,0,0,0-1.55,1.77c-0.63.54-.33,0,0.24-0.86a17.27,17.27,0,0,1,2.05-2.31l-0.35.31a12.34,12.34,0,0,0-.89.86,23.44,23.44,0,0,0-2.42,2.86l-1.91,2.67c-0.51.65-.85,1.07-0.85,1.07,0.38,0-.49,1.54-1.56,2.59s-2.34,1.67-2.13,1.89a7.15,7.15,0,0,0,1.15-.63,11.28,11.28,0,0,0,2.19-2.1,23.55,23.55,0,0,0,1.88-2.72c0.48-.79.79-1.35,0.79-1.35,0.38,0,0,1.55-1.12,3.58a10.86,10.86,0,0,1-2.51,3.06,7.07,7.07,0,0,1-4.21,1.61C50.66,36.64,51,36.35,51.43,36a2.17,2.17,0,0,0,.87-0.8,5.75,5.75,0,0,1-3,.25A11.54,11.54,0,0,1,47.42,35l-0.73-.25-0.58-.22s0.24,0,.62.12,0.6,0.11.94,0.17a6,6,0,0,0,.88.12l0.39,0c-0.39-.12-0.77-0.21-1.14-0.34l-0.55-.16-0.71-.18a7.84,7.84,0,0,0-3.18,0c-1.88.31-3.62,1-5.75,1-1.64.19-4.92,0-5.09,0.46a2.9,2.9,0,0,1,2.78,1.87c-1.77.34-3.54,0.72-5.31,1l0.18-.3-1,.18,0.07,0.23c-0.55.09-1.11,0.18-1.66,0.25a28.07,28.07,0,0,0-3.77.73c-0.22-.19.39-0.65,1.09-1.05,1-.52,2-1.05.84-1.1a13.45,13.45,0,0,1-2.09.94c-0.85.16-.72,0-0.82-0.11a0.65,0.65,0,0,0-.49,0,7.72,7.72,0,0,0-1.76.57c-0.42.72-7,3.2-1.45,1.19-0.83.39-1.42,0.77-2,1s-1,.46-1.46.73A21.16,21.16,0,0,0,12,44.31c0.34-.12.37,0,0.2,0.38s-0.58.84-1,1.52c-0.28.42-.62,0.85-1,1.3A31.77,31.77,0,0,0,7.11,51L7,51.11l-0.81,1c-0.25.35-.46,0.71-0.69,1a22.16,22.16,0,0,0-1.22,2l-1,1.92L2.47,59A24,24,0,0,0,.72,67.7a11.18,11.18,0,0,0-.21,2.05C0.46,70.49.37,71,.17,70.29c0.16,1,.54,1.84.82,3.92,0,4.08-.7-4.6-1-1.46C0.42,73,1.26,78,1.95,80.93c0.46-1-.88-6.8-1.48-9.73,0.29,0,.67.56,1.09,1.63,0.93,7.11,2,14.19,3.25,21.26,0.53,4.77,3,17,3.76,24.18,0.29,1,.67,2.47.88,2.85,1.51,9.11,3,18.24,4.54,27.34-0.08-.07-0.16-0.07-0.22.05L14.6,152l0.07,0.38c-0.13-.09-0.5-1.23-0.41-0.19a3.09,3.09,0,0,1,.62,1.36q0.51,2.88,1,5.76c0,0.1,0,.21,0,0.31s0.05,0.17.08,0.26q0.43,2.33.88,4.66c0,0.17,0,.41.09,0.73s0.17,0.66.24,1L17.37,167c1.16,5.9,4,11.46,6,17.19,1,2.81,2.49,5.61,2.7,8.5,0.37,5.12.19,10.28,0.14,14.91h0v0h0c0,0.62,0,1.23,0,1.83h0.52a58.87,58.87,0,0,0-1.63,10.14c-0.23,8-1,15.94-.43,23.89,0.43,6.48,1.43,14,5.25,19.44,4.09,5.82,11.1,7.15,17.53,8.92a2.26,2.26,0,0,0,2.14-.43,22.68,22.68,0,0,0,8.48.14c0.72,0,1.49,0,2,.07a2.16,2.16,0,0,1,.43.06,1.47,1.47,0,0,1,.29.17,0.3,0.3,0,0,1,.16.35,17.13,17.13,0,0,1,5-.11c0.94,0.08,2,.16,3,0.28,0.56,0.06,1.15.14,1.77,0.19v0L72,272.86a9.94,9.94,0,0,0,2.21.34,25.53,25.53,0,0,0,4.12-.38c1.48,0.19-1.26.31-.47,0.53a27,27,0,0,1,7.56-.32l-0.43.1c10.69-.1,15.28.3,27.29,0.56l-0.89-.47a37.33,37.33,0,0,1,4.33.33c3-.72-7.25,0-4.55-0.83,3.42,1,18.2,0,20.52,1.1,4,0-1.16-.55,2.8-0.54l1.05,0.3,1-.38c2.6,0.06,3.92.43,4,.68-0.63,0-1.8.07-2.47,0.09C141.19,274.29,146.72,273.9,148.41,273.94ZM31.1,221.86l-0.05,0h0.1s0,0,0,0h0Zm0-.06H31l-0.05,0h0.16S31.15,221.79,31.15,221.8ZM31.08,223h0Zm0.07-1.36H30.94v0H31l0.08-.05,0.08,0.06v0Zm-0.46-2.29h0.24l0,0.07-0.28.07v-0.14Zm0.4,3.66h0.07v0H31.09v0Zm15.5,13.93a24.63,24.63,0,0,1-.48-7.21l0.11,0.41C46,225,46,221.37,46.07,217.57l0.07-6,0.2-7.45-0.47.85a33.86,33.86,0,0,1,.33-4.13c-0.18-.43-0.27-0.37-0.32-0.12,0,0.42-.06,1.33-0.06,2.2,0,1.76,0,3.54-.44,2.27a20,20,0,0,0,.42-4.12l0.06-1.76v-0.43c0.13,0,.29,0,0.43-0.06l0.87-.1,2.6-.3c1-.11,1.92-0.2,2.76-0.27a11.55,11.55,0,0,1,3.57.05c3.76-.47-1.17-0.4,2.59-0.87l1,0.17,0.9-.5c2.45-.23,3.84-0.1,4,0.14-0.62.06-1.79,0.35-2.41,0.44a23.21,23.21,0,0,0,2.9-.3c1.06-.2,2.17-0.42,3.19-0.73,2.06-.55,3.78-1.27,4.35-1.43l-0.58.18c-0.35.11-.81,0.25-1.28,0.36l-1.29.32a5.79,5.79,0,0,1-.59.13,47.11,47.11,0,0,0,6.38-2.38A35.85,35.85,0,0,0,81.4,190a32.16,32.16,0,0,0,5.3-5,36.39,36.39,0,0,0,4-5.74,1.75,1.75,0,0,1,.51-0.59,5.19,5.19,0,0,1,1-.56,6.53,6.53,0,0,1,2.4-.54l-0.74-.19a34.8,34.8,0,0,1,6.85-.11c0.81,0.05,1.65.12,2.83,0.14a36,36,0,0,0,4.86-.22l-0.31.08c1.72-.36,4-0.81,6.22-1.16-2,.59,4-0.11,1.31.6,2-.43,3.21-0.64,4-0.79l0.81-.14a1.58,1.58,0,0,1,.38-0.07,3.34,3.34,0,0,1,.85-0.06,6.11,6.11,0,0,1,2.27.6s0.72,1,.72,1a9.18,9.18,0,0,1,1.75,1.11,6.62,6.62,0,0,1,1,1,4.84,4.84,0,0,1,.93,1.87c-0.22-.66-0.41-0.79-0.46-0.75a1.64,1.64,0,0,0-.05.52,0.43,0.43,0,0,1-.17.41,2.08,2.08,0,0,1-.5-0.68,2,2,0,0,1,0,1.2c0,0.11-.1.35-0.16,0.57l-0.16.63-0.29,1.22c-0.18.79-.33,1.53-0.46,2.24-0.26,1.42-.45,2.68-0.64,3.83a17.63,17.63,0,0,1-1.65,5.81c0.15,4.14,2.17-7.29,1.91-5,0.74-1.78,0,3.4-.65,6.07s-2.37,4.32-3.74,11.34c0.14-.7.07-0.76,0.21-1.46a22.66,22.66,0,0,0-.7,4c-0.08.69-.16,1.41-0.27,2.15-0.05.37-.12,0.75-0.19,1.14s-0.17,1-.18,1.48a24.08,24.08,0,0,0,1.07,3.42c0.47,1,1,1.72,1.53,1.71l-0.2-.25-0.48-.71a9.19,9.19,0,0,1-1-2.42,8.73,8.73,0,0,1-.26-2.64l0-.49,0-.32,0-.28c0,0.24,0,.45,0,0.71v0.81a8.28,8.28,0,0,0,.27,1.61,8.86,8.86,0,0,0,1.48,3,11.06,11.06,0,0,0,2.69,2.53,12.52,12.52,0,0,0,4,1.79,5.56,5.56,0,0,1-1.62-.16,9.26,9.26,0,0,1-2.17-.78,6.74,6.74,0,0,0,2.69,1.21,20.79,20.79,0,0,0,3,.45c-0.27.42-2.75,0.49-5.32-.83a11.19,11.19,0,0,1-3.51-2.85,11.8,11.8,0,0,1-2.07-3.8A6.37,6.37,0,0,0,121,220a9.13,9.13,0,0,0,1.74,2.27c1.24,1.18,2.23,1.71,1,1.35a27.28,27.28,0,0,0,6,2,9,9,0,0,0,7.51-2l-0.07.6a14.58,14.58,0,0,0,3.08-3.35,11.72,11.72,0,0,1-.73,1.41,8.28,8.28,0,0,1-.63.92l-0.31.41a15.15,15.15,0,0,0,3.8-6.09,34.58,34.58,0,0,0,1.35-5.41c-1.61,7.59-.92,1.58-1.95,4.72,1.36-9.36,2.34-5.26,4.3-15.2-0.35,1.63-1.31,4.62-1.07,2.55a54.11,54.11,0,0,1,1.77-5.74c1.39-7-.7,1-0.36-2.06,1.07-2.24.5-3.46,1-6.55l0.48,0.09c0.22-.85.38-1.55,0.5-2.12,0.07-.35.07-0.34,0.11-0.48s0.08-.24.12-0.34a3.1,3.1,0,0,0,.26-0.87,1.62,1.62,0,0,1,.08-0.55,1.26,1.26,0,0,1,.79-0.71c0.42-.15,1.15-0.37,2-0.58-0.62.35-1.33,0.75-1.83,1.09a1.41,1.41,0,0,0-.26.34,1.36,1.36,0,0,1,.32-0.2c0.31-.13.83-0.33,1.25-0.48l1.34-.47-0.57.74c3.72-1.5,5.05-1.56,9.12-2.59-1,0,.33-1,3.69-2.14,2.41-.5-1.16.87,3.65-0.8a8.84,8.84,0,0,1-4.31,1.69c-0.17.22-1,.65-1.15,0.87a72.75,72.75,0,0,0,8.06-2.61,19.83,19.83,0,0,1-1.93.52l6.79-3c1.16-.2.33,0.23-0.49,0.66,1.4-.52,2.31-1.06,4.38-1.79-0.42.55-.16,0.89-3.05,2.05l6.53-2.63c0.5,0,3.57-.7,2.75-0.27,3.77-1,8.83-3.74,13.82-5.09a10.11,10.11,0,0,1,1.74-.8c2.32-.73,4.53-1.31,6.83-2,1.15-.35,2.32-0.73,3.53-1.16l0.47-.17,0.55-.23a9.21,9.21,0,0,0,1.09-.52,11.45,11.45,0,0,0,2.13-1.45l0.58-.29c0.33-.2.79-0.47,1.23-0.79a12.67,12.67,0,0,0,1.67-1.48c0.81-1.35.83-1.78,0.71-1.7s-0.5.59-.86,0.93-0.65.57-.53,0.2a18,18,0,0,0,1.24-3.63,15,15,0,0,0,.2-3.21,1.06,1.06,0,0,1,.14-0.82c0.18-.12.53,0.32,0.39-0.9a12.16,12.16,0,0,0-3.83-5.52,13.94,13.94,0,0,0-8-2.89,10.76,10.76,0,0,1,5.38,1,5.43,5.43,0,0,0-.67-0.35,11.3,11.3,0,0,0-1.54-.61,14,14,0,0,0-2.34-.49,11.41,11.41,0,0,1,6.64,1.58c0.56,0.35.83,0.52,0.75,0.36a6.55,6.55,0,0,0-1.58-1.4c-0.34.22-1.62-.33-3.48-0.63a15.72,15.72,0,0,0-6.39.31c-1.17.32-1.88,0.6-2.72,0.88s-1.55.56-2.2,0.82c-1.29.53-2.15,1-2.17,1.36l-2.42.49c0.67-.21.75-0.32,1.42-0.52-4.73.87-3.06,2-9,3.78-2.07.57-3.55,0.85-2.21,0.24l-4.43,1.81c-1.1.34-1.1,0.17-.32-0.13l-6.32,2.18,0-.05c-0.92.53-3,1.57-4.1,2.07-1.82.39,0.84-.43,0.33-0.44l-3.72,1.57c-1.67.18,1.39-1.19,4.05-2-4-.11-3.07,1.37-11,3.15l3.56-1.35c-2.58,0-5.31,1.23-9.55,2.12,1.05-.08,8.57-1.54,4.52.14a25.32,25.32,0,0,0-4.91,1.74c-0.15-.48-2.4.45-4.91,1.19v-0.66c-0.67.21-1.15,0.39-1.53,0.54a7.16,7.16,0,0,0-.87.35,6.34,6.34,0,0,1-1.58.63,8.45,8.45,0,0,1-1.83-.08A6.11,6.11,0,0,1,143,163a3,3,0,0,1-1-.85,3.7,3.7,0,0,0-1.23-.4,1,1,0,0,0,.45.51c0.24,0.21.47,0.44,0.35,0.5a1,1,0,0,1-.5-0.06,4.66,4.66,0,0,1-.54-0.17l-0.73-.37a13.83,13.83,0,0,1-3.54-3.81,31.72,31.72,0,0,1-3-5.75c-0.63-3.12.53,0.45,0.4-.7l-0.64-1.35c-0.33-.71-0.75-1.45-0.75-1.45-0.3-.77-0.07-0.59.07-0.49-0.57-1.1-.7-1-0.94-1.17s-0.57-.41-1.18-2.1a1.26,1.26,0,0,1-.34-0.53,6.25,6.25,0,0,1-.22-1,12.76,12.76,0,0,1-.11-2.9,14.61,14.61,0,0,1,.62-3.26l0.23-.79q0.17-.37.31-0.74c0.15-.52.43-1,0.6-1.45,0.66-.73.07,0.62,0.44,0.5l0.21-.43,0.25-.37,0.46-.67c0.31-.4.64-0.71,0.89-1,0.54-.58,1-0.92,1.43-1.31l1.45-1.1c0.29-.21.63-0.42,1-0.68a14.27,14.27,0,0,1,1.42-.86l0.66-.18a14.75,14.75,0,0,1,1.46-.35l1.47-.31a5.07,5.07,0,0,1,.59-0.08l-0.8,0a0.35,0.35,0,0,1-.32-0.1,1.13,1.13,0,0,1,.69-0.61,18,18,0,0,1,2.06-.79c0.88-.36,1.68-0.81,2.55-1.21l-0.5.06,1.21-.41-0.71.34,0.68-.09,0.74-.49,2.79-.93a3.15,3.15,0,0,1-1.38,1.12l-2.15.3c-1.26.83-2.42,1.68-2,1.93a16.21,16.21,0,0,1,1.79-.78c-0.33.22-.53,0.39-0.34,0.39a7.61,7.61,0,0,0,1.62-.79l1.5,0.25,0.22-.37,7.49-2c5-2.44,9.26-5,17.51-8-1.9,1.19-.17,1-0.09,1.58-2.48.14-6.37,2.43-10.74,3.75,2.28-.69,1.88-0.24,1.33,0l7.52-3.15c0,0.54,1.76-.19,3.84-0.66-1.84-.44,5.54-2.56,8.58-3.9,0.3,0.25-.34.83-4.2,2,4.46-.7,5.08-2.94,9.43-3.72a5.75,5.75,0,0,0-1.77.73c2.09-1,7.5-2.58,6.34-1.88l-0.93.32c6.24-2,18.89-6.32,19.55-7.44a3.61,3.61,0,0,1-.81,1.53l7-4.43,3.48-1.17c0.69,0.59,1.69,1.23-1.79,2.7a41.7,41.7,0,0,0,6.41-2.18c-1,.24-2.85-0.16-1.49-0.68l2.2-.29c0.5,0,.84-0.11,1.21-0.16a11.53,11.53,0,0,1,3.74.09c-0.67-.1-0.67-0.4-0.16-0.71a3.57,3.57,0,0,1,1.11-.34,4.43,4.43,0,0,1,1.6.13c-0.39.09-.1,1.13-0.88,1.08a10.54,10.54,0,0,1,2.71.31,10.23,10.23,0,0,1,1.84.67l0.6,0.3a1.34,1.34,0,0,1,.22.13c-1.26-.74-0.72.57-0.17,1.6-0.12-.27.7,0.54,1.45,1.75,0.17,0.31.37,0.63,0.54,1l0.47,1c0.31,0.71.58,1.35,0.76,1.71L244.24,106c-0.1-.32-0.2-0.63-0.27-0.83l-0.12-.35,0.93,2c0.29,0.61.57,1.15,0.84,1.62,0.53,1,1,1.68,1.53,2.41a18.28,18.28,0,0,1,2.89,6.34c-0.47-.77-1.88-1.59-1.17,1.78l0.41,0.59a5.55,5.55,0,0,1,.47.92,8.73,8.73,0,0,1,.61,3c0,0.17,0,.35,0,0.52a10.75,10.75,0,0,1-.93,2.26l-2.7,4.71,0.4-1.29,1.4-4.35a12,12,0,0,0,.32-3.48,4.67,4.67,0,0,1-.6,1.45c-0.07.13-.14,0.29-0.26,0.61-0.06.16-.14,0.35-0.25,0.59l-0.19.38-0.28.51c-0.24.27-.32,0.27-0.29,0.1a7.66,7.66,0,0,1,.27-0.79,15.22,15.22,0,0,0,.56-1.92,9.25,9.25,0,0,1-.36,1,6.87,6.87,0,0,1-.47,1l-0.85,1.42-2.38,4c0.79,0-2.92,6.46-2.26,6.43l4.38-9c0.78,0-1.22,6-4.58,11.59-1.06,1.31-.42-1.67-0.68-1.67a39.63,39.63,0,0,1-3.16,6l1.08-2.58c-2,3-2.2,5.59-5,9-0.8,1.28-3,3.44-2.82,3.87a2.87,2.87,0,0,1,3.18-.75l-2.62,4.43-0.11-.3-0.5.86,0.22,0.09c-0.9,1.51-1.79,3-2.69,4.53-0.74.13,1-4.1-.35-2.74a6.46,6.46,0,0,1-.63,2c-1,1.28-.15-0.85-1.85,2.14,0.29,0.84-3.68,6-.35,1.69-1.58,3-2,3-4,6.36,0.71-.55.16,1.29-0.62,3.5a43.19,43.19,0,0,0-1.93,3.88l-0.15.18a43.18,43.18,0,0,0-2.71,8.3,36.36,36.36,0,0,0-.8,8.38c-0.17.62-.26,3.71-0.59,2.4a20.78,20.78,0,0,1,.47,3.75c-0.5,3.85-.2-4.42-0.84-1.48,0.41,0.24.66,5.11,0.94,7.94,0.61-.88,0-6.54-0.31-9.36,0.29,0,.6.57,0.9,1.59,0.17,6.89.2,13.79,0.17,20.7-0.28,4.66-.12,16.45-0.58,23.22a18.68,18.68,0,0,1,0,2.23,3.58,3.58,0,0,0,0,.58c-1,3.81-3.88,5.57-9,5.76-1.16,0-2.33,0-3.5,0h-11.4a0.13,0.13,0,0,0,0-.23l-3.4.23h-0.41c0.12-.11,1.22-0.27.24-0.37a2.8,2.8,0,0,1-1.36.37h-5.64l-0.26,0-0.24,0h-4.6l-0.65,0a8.92,8.92,0,0,1-.95,0h-115l0,0.19a6.92,6.92,0,0,1-1.46,0,15.68,15.68,0,0,0-3.2-.46,19.51,19.51,0,0,1-4.76-.55l-0.12,0a10.5,10.5,0,0,1-1.6-1c-0.46-.39-0.57-0.71-0.35-0.88a2.28,2.28,0,0,1-1.1-.4,0.88,0.88,0,0,1-.39-0.45,2.85,2.85,0,0,0,.26-0.62c0.09-.56.11-1.69,0.21-2.72s0.16-2.16.2-3.29a28.1,28.1,0,0,0-.46-7.07C46.2,235.07,46.38,237.68,46.58,236.92ZM35.22,166.74c-0.15-.91-0.31-1.81-0.47-2.72a1.78,1.78,0,0,1,1.08-1.15c-1.06-1.16.65-3.64-.91-5.57,0.11-.5.37,0.35,0.55,0.06a3,3,0,0,1-.72-2.35l0.12,0.12c-0.68-3.39-.53-4.91-0.92-8.78l-0.42.36a4.24,4.24,0,0,1,.09-1.43c-0.87-.82.36,2.31-0.57,1.59,0.76-1.25-1-5.79,0-6.71-0.21-1.26-.48.46-0.69-0.8l0.23-.38-0.43-.26a1.3,1.3,0,0,1,.46-1.39,4.38,4.38,0,0,0,.23.77c0.16-1.13-.64-3-0.59-3.4l0,1.24c-0.86-3.4-1.2-7.68-2.37-10.91l-0.18.29c-0.84-2.47-.11-2.08-0.77-4.84L29,120.57a5.48,5.48,0,0,1-.66-2c0.38,0.66.27-1.41,0.72-.54-0.91-2.68-.58-1.31-1.71-3l0.29-.48a3.45,3.45,0,0,1-1-2c0.51,1.09.4-1,1,.23,0.3-3.06-1.55-4.21-.61-5.75-1.24-1.17-.13,2.63-0.47,1.91-0.22.69-.95-1-1-1.92s1-1.81.6-4.16c0,0.23.11,0.24,0.15,0.47,0.11-.92-0.65-1.67-0.41-2.82-0.72-.5-0.21-1.41-1-1.45l0.55,2.13C25.12,100,24,99,24.11,97A3.9,3.9,0,0,1,24.78,98c0.14-.63-0.33-1.11-0.2-1.76,0.81,0,.59,2.59,1.42,3.8,0.22-.69-1-2.38,0-1.87-1.23-.76-0.24-2.34-1.32-3.8l0.48,0a4.12,4.12,0,0,1-.48-1.19L25.4,94c-0.72-1.2.05-2.56-.43-3.75,0.43,2.59-.47.67-0.64,1.83-1.14-3.09.93-2,.13-5.58,0.14,0.47,0,1.86-.33,1.14a6.82,6.82,0,0,1,.2-2.08c-0.48-2.35-.42.44-0.87-0.52,0.44-.9-0.42-1.13-0.77-2.14l0.48-.08c-0.13-2.75-1.11-.56-1.13-3l0.83,0.92L22.5,79.44l0.58,0.18a6.22,6.22,0,0,1-.65-3.14c-0.29.37-.89,0-1.1-1.24,0.15-.86.53,0.39,0.19-1.3a1.19,1.19,0,0,1,.48,1.5c0.17,0.05.36,0.33,0.53,0.39A8.34,8.34,0,0,0,22.14,73a2.35,2.35,0,0,1,0,.68l-1.06-2.36c0.12-.41.31-0.13,0.5,0.15a10.49,10.49,0,0,1-.51-1.42,3.52,3.52,0,0,1,.59.16,0.72,0.72,0,0,1,.25.21,2.33,2.33,0,0,1,.27.57,18.38,18.38,0,0,1-.6-1.88,2.69,2.69,0,0,0,.32-0.46c0.14-.18.26-0.3,0.32-0.18a6.57,6.57,0,0,0,.08-1.73,3,3,0,0,1,.61-2A0.88,0.88,0,0,1,23,64.22c0.81-1.09,1.86-1.61,2.75-2.94l0.55,0a3.46,3.46,0,0,1,.54.07c0.45-.35.1-0.41-0.18-0.51S26.11,60.6,27,60c1.26-.83.74,0.32,1.27,0.31,0.13-.14.28-0.31,0.47-0.5a4,4,0,0,1,.68-0.47,3.9,3.9,0,0,1,2.24-.37,9.45,9.45,0,0,1-1.44.38l1.31,0.13a11.61,11.61,0,0,1-1.6.86c-0.15.08-.15,0.13-0.12,0.19a0.88,0.88,0,0,0,.5.19c-0.08-1.37,4.76-1.11,4.67-2.48l0.87,0.11c-0.24,0-.26.12-0.49,0.15,1.7,0.32,1-1.2,3.06-1.43,0.73,0,1.26.05,0.81,0.31l1.52-.65c0.46-.07.4,0.19-0.07,0.25L41,56.87c0.24-.06.51-0.12,0.77-0.17l0.74-.15a2.55,2.55,0,0,1,.34-0.06v0a7.39,7.39,0,0,1,1.33-.76c0.57,0.21-.28.13-0.13,0.31l1.23-.31c0.47,0.37-.54.67-1.35,0.63,0.57,0.66.78,0.6,1.18,0.45a1.73,1.73,0,0,1,.77-0.13,2.31,2.31,0,0,1,1.26.42l-0.53,0a5,5,0,0,0-.53,0c0.55,0.82,1.35.73,2.19,1.52-0.07-.15-0.47-0.6-0.76-1s-0.47-.75.18-0.79a2.39,2.39,0,0,0,1.43.36c-0.19.47,0.46,0.54,1.13,0.95l-0.37.53a4.23,4.23,0,0,0,1.47,0,1.24,1.24,0,0,1,.33,1.59c0.41,0.56.41,0.25,0.44-.06s0.07-.65.71,0C53,60.5,53.14,60.77,53.3,61s0.35,0.44.52,0.69,0.38,0.47.6,0.73l0.67,0.91c0.11,1-.41,0-0.47.36l0.74,0.64c0.05,0.2-.12.18-0.21,0.17,0.4,0.63.65-.13,1.08,1,0.79,0.12-.55,2.74.51,4.15-0.11.42-.42-0.12-0.64,0a16.93,16.93,0,0,0,1.68,3.42l-0.16,1.58c0.29-1.19,1.08.12,1.75,1.28l0.1-.26,0.11,0.61L59.38,76l-0.09.25,0.33,0.29,0.16,0.92A0.92,0.92,0,0,1,59,77l0.27-.78A1.54,1.54,0,0,0,58,75.57a2,2,0,0,1,.28.62C58.12,76.08,58,76,58,76.08a1,1,0,0,0,.33.55l-0.63.57L58,77.27v2.66c1,1.72,2.33,3.15,3.12,6-0.64-.64-0.87,0-1.48.06,0.51-.91-0.66-2.22-0.79-3.77,0.07,0.81-.25.68-0.39,0.5l1,2.61c-0.51,0-.28.64-0.36,1.39,0.9-.71,1,1.91,1.49,3-0.32.13-.7-0.08-0.85-1.44-0.49,1.61,1.48,1.72,1.1,3.28a0.74,0.74,0,0,0-.23-0.61c0.42,0.72.51,2.63,0.15,2.24l-0.06-.33c0.25,2.2,1.12,6.64,2,6.82a4.25,4.25,0,0,1-1.25-.21l2.45,2.39,0.2,1.17c-0.75.29-1.64,0.73-2.14-.5a4.83,4.83,0,0,0,.42,2.25c0-.37.89-1.06,1-0.59a11.42,11.42,0,0,0-.68,2.75c0.06-.56,1.29-0.16,1.4.68-0.19-.1-1.1.26-1.27,0l1.46,1.9c-0.29-.49-1,0.07-1.19.59,0.18-.25.29,1.81,0.49,2.35l0.11-.93c0.23,2.39,2,2.06,2.29,4.41a0.89,0.89,0,0,0-1.47.76,18.57,18.57,0,0,1,2.09,1.55l0.44,2.62a29.43,29.43,0,0,1-2.47-3c-0.11.93-.34,0.31-0.09,1.63-0.22.52-.58-0.64-0.67-1l0.33,3.11c0.64-.25,1.06,2.24,1.6,2l-1.25-3.22c0.64-.25,2.21,1.61,2.46,3.81-0.17.6-1.25-.21-1.46-0.13a4.75,4.75,0,0,1,.66,2.22l-0.51-.86c0,1.26,1.22,1.83.83,3.4,0,0.51-.6,1.64-0.19,1.66a3.57,3.57,0,0,1,2.21-1.14l0.29,1.72-0.27,0,0.06,0.33,0.25-.05,0.29,1.76c-0.53.27-1.47-1.13-1.82-.44a1.31,1.31,0,0,1,.59.6c-0.07.55-.6-0.13-0.32,1,0.7,0.08.33,2.35,0.66,0.45,0.38,1.09.06,1.22,0.31,2.54,0.24-.33.9,0.2,1.43,0.9l0.24,1.44-0.05.09c0.33,2.31.24,3.6,0.63,5.75-0.13.23-.13,1.3-0.5,0.91a2.9,2.9,0,0,1,.6,1.19c-0.34,1.39-.37-1.46-0.88-0.35,0.4,0,.86,1.61,1.29,2.51,0.54-.41-0.31-2.2-0.73-3.1a1.21,1.21,0,0,1,1,.4q0.64,3.41,1.37,6.79c0.06,1.56,1.28,5.46.9,7.81a3.27,3.27,0,0,0,.43,1A15.41,15.41,0,0,1,72.06,171a0.28,0.28,0,0,0-.21-0.13l-0.25.6c-0.08.2-.16,0.38-0.22,0.49l-0.07.09c-0.06-.09,0-0.49-0.24-0.29a0.66,0.66,0,0,1,0,.62,12.22,12.22,0,0,1-1.25,1.25l-0.17.07a0.89,0.89,0,0,0-.05.12,12.92,12.92,0,0,1-1.18.87,1,1,0,0,0-.27.09,1.7,1.7,0,0,1-.3.25,18.92,18.92,0,0,1-9.27,2.31c-3.27.05-6.53,1.14-8.82,1.58C41.93,179,36.43,173.91,35.22,166.74ZM84.47,36c0.9-.1,1.79-0.24,2.69-0.38a1.84,1.84,0,0,1,1.14,1.09c1.14-1.05,3.61.61,5.46-.93,0.49,0.12-.34.37-0.06,0.55A2.7,2.7,0,0,1,96,35.64l-0.12.12a9.83,9.83,0,0,1,3.74.08,12.39,12.39,0,0,1,3.49,1.47V36.79a2.12,2.12,0,0,1,.85.84c0.53-.1.12-0.35-0.3-0.64s-0.9-.49-0.39-0.69c0.25,0.62,1.3,1.22,2.17,2a5.79,5.79,0,0,1,1.05,1.27,1.25,1.25,0,0,1,.15,1.08c0.5,0.91.31-.56,0.83,0.37l-0.12.38,0.45,0.08a1,1,0,0,1-.21,1.26,1.78,1.78,0,0,0-.33-0.56,5.25,5.25,0,0,0,.46,1.55,4.35,4.35,0,0,1,.36,1.19V44.77l0-.36,0-.52a14.86,14.86,0,0,1,.59,2.48l0.49,2.78a32.35,32.35,0,0,0,1.28,5.28l0.18-.29c0.83,2.42.1,2,.76,4.75l-0.07-.09a5.26,5.26,0,0,1,.65,2c-0.38-.65-0.28,1.39-0.72.53,0.9,2.63.57,1.28,1.7,2.92l-0.29.47a3.34,3.34,0,0,1,.95,1.93c-0.51-1.07-.41,1-1-0.22-0.31,3,1.54,4.13.59,5.64,1.24,1.15.14-2.58,0.48-1.87,0.22-.67.94,1,1,1.88s-1,1.77-.61,4.07c0-.23-0.11-0.23-0.15-0.46-0.1.9,0.62,1.64,0.35,2.77,0.7,0.5.16,1.39,1,1.44l-0.49-2.1c0.38,1.17,1.46,2.16,1.3,4.22a3.8,3.8,0,0,1-.65-1.08c-0.15.62,0.31,1.1,0.16,1.73-0.81-.05-0.54-2.56-1.33-3.76-0.24.67,0.92,2.36,0,1.84,1.21,0.77.19,2.3,1.24,3.75l-0.48,0a4,4,0,0,1,.46,1.18l-0.73-.74c0.7,1.19-.1,2.52.36,3.69-0.38-2.55.48-.66,0.67-1.79,1.08,3.06-1,2-.23,5.48-0.13-.47,0-1.83.35-1.12a6.62,6.62,0,0,1-.24,2c0.43,2.32.43-.43,0.86,0.52-0.46.88,0.4,1.11,0.73,2.11l-0.48.08c0.08,2.7,1.1.56,1.07,3L116.84,98l0.35,1.22L116.61,99a6,6,0,0,1,.59,3.09c0.29-.36.89,0.05,1.08,1.23-0.17.84-.52-0.39-0.21,1.27a1.16,1.16,0,0,1-.45-1.49c-0.17-.05-0.35-0.33-0.52-0.39a8.06,8.06,0,0,0,.33,2.79,2.28,2.28,0,0,1,0-.67l1,2.33c-0.12.41-.31,0.12-0.5-0.16a15,15,0,0,1,.54,1.51,1.21,1.21,0,0,1-1.14-1l0.76,2.25c-0.15.18-.29,1.25-0.48,1a6.5,6.5,0,0,0,.58,2.23,4.16,4.16,0,0,0,.17.39,1.41,1.41,0,0,1,.09.38,1.47,1.47,0,0,1-.14.84,0.65,0.65,0,0,1,.09.46,1.92,1.92,0,0,1-.73.93,7.58,7.58,0,0,0-1.62,2.22l-1.26.47c-0.85,1.35,1.65-.68.25,1.55-0.89,1.64-.89.22-1.43,0.64a7.28,7.28,0,0,1-1.86,3.91,7.11,7.11,0,0,1,.72-1.38l-0.51.46c-0.26.23-.51,0.48-0.51,0.48,0.26-1.7,1.09-2.61,0-1.81,0.53,0.44-.14,1.55-0.69,2.74s-1.06,2.41-.48,2.75l-0.62.69c0.11-.23.06-0.29,0.17-0.52a1.23,1.23,0,0,0-.36,1.53,2.46,2.46,0,0,1-.07,2c-0.3.7-.63,1.17-0.65,0.62l-0.06.87c0,0.43,0,.87,0,0.87-0.1.4-.26,0.35-0.24,0l-0.16,1.08a7.89,7.89,0,0,0-.1.89l0,0.41,0,0a14,14,0,0,1,.5,1.67c-0.22.64-.13-0.34-0.3-0.18,0,0,.05.36,0.13,0.72l0.14,0.71c-0.36.57-.7-0.62-0.57-1.62a1.12,1.12,0,0,0-.51,1.45,5,5,0,0,1,0,2.67l-0.24-1.38a2.71,2.71,0,0,0-.52,1.55l-0.08,1a8.84,8.84,0,0,1-.11,1.13,15.3,15.3,0,0,1,.58-1.6c0.28-.57.59-0.86,0.8-0.1a2.85,2.85,0,0,0,.32,1.83c-0.46.07-.3,0.89,0,1.88l-0.64,0a3.77,3.77,0,0,0,1.12,1.49,1.92,1.92,0,0,1-.47,2c0.45,2,.39-1.54,1.15.68a7.78,7.78,0,0,0,.72,2.12l0.26,0.5,0.23,0.34a7,7,0,0,1,.49.92c-0.06,1-.41-0.09-0.53.27l0.13,0.15,0.12,0.07a1.43,1.43,0,0,1,.31.24c0,0.11-.18.06-0.25,0a0.85,0.85,0,0,0,.37.37l0,0a3.39,3.39,0,0,0-2.49.38c-0.41-.11.11-0.42,0-0.64a17.42,17.42,0,0,0-3.32,1.7l-1.52-.19c1.14,0.31-.13,1.09-1.31,1.7l0.18,0.08-0.42,0,0.24-.12-0.24-.11-0.25.25-1,.1a1.12,1.12,0,0,1,.49-0.67l0.74,0.32a1.51,1.51,0,0,0,.68-1.28,1.78,1.78,0,0,1-.6.25c0.11-.12.18-0.22,0.11-0.28a1,1,0,0,0-.55.3l-0.5-.67-0.08.29s-0.62-.05-1.24-0.13l-0.84-.12L99,156.57a7.64,7.64,0,0,1-2.47.84,4.37,4.37,0,0,1-3.29-.94c0.87,0.09.68-.54,1.13-1a0.8,0.8,0,0,0,.29.55,2.28,2.28,0,0,0,.68.31,17.14,17.14,0,0,1,1.7.4c-0.59-.25-0.35-0.48-0.18-0.54a5.85,5.85,0,0,1-1-.1,4,4,0,0,1-.71-0.19l-0.33-.11c0.35-.38-0.12-0.56-0.32-1.09-0.22.49-.62,0.34-1-0.09s-0.8-1.12-1.11-1.52c0.3-.2.65-0.08,1.13,0.88a1.2,1.2,0,0,0-.84-1.15,1.16,1.16,0,0,1-.76-1.3,0.58,0.58,0,0,0,.27.51c-0.51-.55-0.59-2.35-0.22-2L92,150.41c-0.25-2.16-1.11-6.53-2-6.7a4.31,4.31,0,0,1,1.25.21l-2.39-2.3-0.21-1.21c0.74-.29,1.61-0.68,2.1.5a4.67,4.67,0,0,0-.41-2.21c0,0.37-.89,1-1,0.58a11.08,11.08,0,0,0,.68-2.71c-0.07.55-1.29,0.16-1.4-.67,0.19,0.1,1.1-.26,1.27,0l-1.46-1.86c0.29,0.48,1-.07,1.19-0.58-0.18.25-.28-1.78-0.49-2.31l-0.11.91c-0.23-2.35-2-2-2.29-4.33a0.89,0.89,0,0,0,1.47-.75,18.61,18.61,0,0,1-2.06-1.5l-0.44-2.58a28.68,28.68,0,0,1,2.44,2.88c0.11-.91.34-0.31,0.09-1.6,0.23-.51.58,0.63,0.67,1l-0.32-3.06c-0.64.25-1.06-2.2-1.59-2l1.25,3.17c-0.64.25-2.21-1.58-2.46-3.74,0.17-.59,1.25.2,1.46,0.12a4.59,4.59,0,0,1-.66-2.18l0.51,0.85c0-1.24-1.21-1.8-.82-3.34,0-.5.6-1.62,0.19-1.64a3.59,3.59,0,0,1-2.19,1.13l-0.29-1.68,0.25,0-0.06-.32-0.23.05-0.29-1.73c0.54-.23,1.46,1.1,1.8.43a1.29,1.29,0,0,1-.59-0.59c0.07-.55.6,0.12,0.32-1-0.7-.07-0.34-2.31-0.66-0.44-0.38-1.07-.06-1.2-0.31-2.49-0.24.32-.87-0.17-1.4-0.84l-0.25-1.48,0-.06c-0.33-2.27-.23-3.54-0.59-5.65,0.13-.22.15-1.28,0.52-0.89a2.8,2.8,0,0,1-.57-1.17c0.36-1.36.34,1.44,0.87,0.36-0.4,0-.83-1.59-1.23-2.48-0.55.39,0.25,2.16,0.65,3a1.19,1.19,0,0,1-.93-0.38L80.09,90.4c0-1.62-.91-5.34-0.91-7.6A4.08,4.08,0,0,0,78.64,82L78,78.21,77.93,77l0,0.36L78,78.21l-0.85-4.93a0.29,0.29,0,0,0,.22,0L77,72.17l0-.15c0.12,0,.33.35,0.37,0a0.67,0.67,0,0,1-.43-0.38l-0.32-1.84s0-.06,0-0.09l0-.05-0.26-1.54a1.58,1.58,0,0,0,0-.21,1,1,0,0,1-.09-0.29c-0.2-1.16-.4-2.32-0.6-3.48a78.42,78.42,0,0,0-2.73-10.07C70,45.19,75.3,37,84.47,36Zm55.79-14.27q1-.22,2.06-0.4a1.75,1.75,0,0,1,.92,1.12c0.87-1,2.69.88,4.16-.44,0.37,0.17-.28.33-0.07,0.54a1.69,1.69,0,0,1,1.78-.42l-0.1.11c2.54-.19,3.65.22,6.45,0.67l-0.18-.49a2.41,2.41,0,0,1,1,.41c0.76-.66-1.71-0.18-1-0.92a1.65,1.65,0,0,0,1,.51c0.43,0.11,1,.16,1.43.25a4,4,0,0,1,1.2.37,0.88,0.88,0,0,1,.5.71c0.67,0.32,0-.61.71-0.26l0,0.35,0.18-.12,0.18-.11a0.77,0.77,0,0,1,.27,1,1,1,0,0,0-.42-0.17c0.31,0.58,1.43,1,1.48,1.25,0,0-.08-0.17-0.17-0.33l-0.2-.31a7.1,7.1,0,0,1,2.1,2.69c0.55,1.11,1,2.31,1.49,3.39l0.19-.22a3.09,3.09,0,0,1,.34,1.68,5.33,5.33,0,0,0,.18,1.93l-0.06-.07a3.26,3.26,0,0,1,.54,1.53c-0.34-.5-0.35,1.09-0.74.43,0.75,2,.5,1,1.53,2.25l-0.32.38a2.21,2.21,0,0,1,.84,1.48c-0.45-.82-0.46.77-1-0.15-0.47,2.36,1.31,3.19.29,4.4,1.17,0.87.27-2,.58-1.48,0.26-.53.89,0.73,0.89,1.45s-1.12,1.41-.83,3.2c0-.18-0.1-0.18-0.12-0.36-0.16.71,0.55,1.26,0.25,2.15,0.68,0.37.13,1.07,0.93,1.09l-0.43-1.62c0.34,0.9,1.39,1.63,1.18,3.24a2.65,2.65,0,0,1-.62-0.82c-0.16.49,0.28,0.84,0.12,1.34-0.8,0-.47-2-1.22-2.88-0.26.53,0.85,1.8-.07,1.43,1.19,0.56.13,1.79,1.14,2.88H168.1a2.54,2.54,0,0,1,.43.9l-0.7-.55c0.67,0.9-.17,2,0.26,2.87-0.31-2,.5-0.53.72-1.42,1,2.34-1,1.59-.38,4.28-0.12-.36.07-1.43,0.38-0.89a4.27,4.27,0,0,1-.29,1.6c0.37,1.79.44-.35,0.84,0.37-0.48.7,0.37,0.85,0.67,1.62l-0.48.08c0,2.11,1.08.39,1,2.3l-0.78-.68,0.32,0.94-0.57-.12A3.66,3.66,0,0,1,170,68c0.3-.29.89,0,1,0.91-0.19.67-.51-0.28-0.24,1a0.77,0.77,0,0,1-.41-1.14c-0.16,0-.34-0.24-0.5-0.28a4.87,4.87,0,0,0,.25,2.16,1.42,1.42,0,0,1,0-.52L171.1,72c-0.13.32-.31,0.11-0.49-0.1A9.28,9.28,0,0,1,171.1,73a1.05,1.05,0,0,1-1.11-.75L170.7,74c-0.15.15-.33,1-0.5,0.78-0.08,1,1.12,2.31,1,3.67a0.88,0.88,0,0,1,.28.45c0.1,1.25-.21,2.41.54,3.79l-0.57.94c0.33,1.12.71-1.26,1.25,0.61,0.42,1.32-.52.6-0.64,1.1a3.44,3.44,0,0,1,1,3,5.47,5.47,0,0,1-.25-1.1l-0.24,1c-0.81-1-.71-1.9-1.12-0.93,1.36-.08.69,3.65,2,3.57,0,0-.2.63-0.2,0.61s-0.09-.17-0.1-0.32a0.59,0.59,0,0,0,.33.91,1,1,0,0,1,.6,1.06c-0.13.4-.36,0.59-0.49,0.34a4.93,4.93,0,0,1,.16.73,0.12,0.12,0,1,1-.2-0.12,1.89,1.89,0,0,1-.14.38c0,0.09-.11.18-0.15,0.25l-0.1.11,0,0a1.67,1.67,0,0,1-.21,1c-0.4,0,.08-0.22-0.09-0.31a5.57,5.57,0,0,1-.56.66c-0.47-.19.08-0.77,0.47-1-0.61-.41-0.68-0.3-0.84,0a1.33,1.33,0,0,1-1.48.51s0.25-.12.42-0.22l0.34-.21c-0.64-.59-1.38-0.08-2.57-0.21,0.33,0.16,2.49.5,1.51,1.16a1.76,1.76,0,0,0-1.25.52c-0.15-.46-0.68-0.17-1.39.08l-0.14-.63a2.61,2.61,0,0,0-.92,1.13,1.37,1.37,0,0,1-1.53-.53c-1.4.35,1.19,0.45-.39,1.09a6.76,6.76,0,0,0-3.16,1.46c-0.86.06,0-.42-0.33-0.5l-0.54.72c-0.18,0-.17-0.12-0.17-0.21-0.53.39,0.15,0.62-.72,1.1,0,0.75-2.23-.33-3.12.82-0.34-.08,0-0.42-0.16-0.62a10.7,10.7,0,0,0-2.28,1.93l-1.23,0c1,0.18.12,1.07-.63,1.82l0.16,0.05-0.31.11,0.16-.16-0.21-.07-0.13.29-0.71.24a1.07,1.07,0,0,1,.2-0.73l0.65,0.2a1.62,1.62,0,0,0,.23-1.34,1.28,1.28,0,0,1-.42.33,0.25,0.25,0,0,0,0-.29,0.68,0.68,0,0,0-.36.37l-0.56-.56V103l-2,.22c-1.11,1.14-1.94,2.54-4,3.54,0.36-.67-0.16-0.85-0.33-1.44,0.79,0.42,1.57-.82,2.72-1.08-0.6.13-.57-0.19-0.45-0.34L145,105.18c-0.12-.5-0.54-0.22-1.12-0.24,0.35,0.41,0,.69-0.45.94-0.24.12-.55,0.25-0.79,0.36a2,2,0,0,0-.48.31,0.76,0.76,0,0,1,.05-0.5,0.52,0.52,0,0,1,.17-0.19l0.14-.07,0.33-.1a1.29,1.29,0,0,0-.4,0,0.19,0.19,0,0,0-.15.08,2.62,2.62,0,0,0-.24.47c-0.17.38-.51,0.78-0.84,0.46,0.17,0,.26,0,0.34-0.17a1,1,0,0,1-.81.18c-0.24-.05-0.33-0.19-0.14-0.35l0.15,0h-0.72l0-.11a5.4,5.4,0,0,0-.24-0.9,2,2,0,0,0-1-1.26,6.84,6.84,0,0,1,1.23.12,4.11,4.11,0,0,1-.51-0.38l-1.13-.87-0.63-.49-0.15-.92c0.76-.24,1.65-0.58,2.08.34a2.82,2.82,0,0,0-.3-1.71c-0.06.29-.94,0.83-1.06,0.48a7.76,7.76,0,0,0,.81-2.12c-0.09.43-1.29,0.15-1.36-.49,0.19,0.07,1.11-.23,1.26,0l-1.36-1.42c0.26,0.37,1-.08,1.21-0.48-0.19.2-.2-1.38-0.37-1.79l-0.15.71c-0.11-1.82-1.84-1.53-2.06-3.33,0.26,0.18,1.5.32,1.49-.61a16.89,16.89,0,0,1-2-1.16l-0.31-2a22.29,22.29,0,0,1,2.34,2.23c0.15-.71.35-0.25,0.17-1.25,0.25-.4.55,0.48,0.61,0.77l-0.17-2.37c-0.65.21-.95-1.69-1.49-1.52L138,88.2c-0.65.2-2.12-1.19-2.26-2.86,0.2-.46,1.23.14,1.45,0.07a2.82,2.82,0,0,1-.55-1.69l0.47,0.65c0.1-1-1.12-1.38-.66-2.58,0-.39.69-1.27,0.28-1.28a4.36,4.36,0,0,1-2.26.92l-0.2-1.31,0.28,0,0-.25-0.26,0L134,78.59c0.54-.24,1.41.83,1.79,0.29a1,1,0,0,1-.55-0.45c0.1-.43.59,0.08,0.38-0.78-0.7,0-.2-1.79-0.63-0.33-0.32-.83,0-0.93-0.17-1.93-0.26.26-.91-0.15-1.4-0.7l-0.15-1,0.08-.09c-0.2-1.77,0-2.76-.26-4.4,0.14-.17.22-1,0.56-0.7a1.83,1.83,0,0,1-.5-0.9c0.44-1.06.26,1.11,0.85,0.27-0.4,0-.73-1.23-1.08-1.91-0.57.31,0.13,1.68,0.48,2.37a1.33,1.33,0,0,1-1-.33l-0.74-5c0.21-1-.59-4.29-0.44-6.2a1.56,1.56,0,0,0-.56-0.67q-0.34-2.36-.69-4.73V51.05l-0.05,0-0.25-1.73a0.37,0.37,0,0,0,.28,0l-0.39-.94c0.11,0,.34.29,0.4,0a0.68,0.68,0,0,1-.48-0.4l-0.17-1.21a1.66,1.66,0,0,1,0-.19,0.6,0.6,0,0,0-.08-0.1l-0.15-1.07a0.57,0.57,0,0,0,0-.24c-0.08-.11,0-0.25-0.12-0.36h0c-0.25-1.8-.51-3.61-0.76-5.41C126.91,29.09,130.08,24,140.26,21.71Zm19.53,137.85c1-.43,2.93-1.4,3.77-1.38C162.57,159.1,161.58,159.14,159.79,159.57ZM58.93,78.84a1.44,1.44,0,0,1-.09-1.16A3,3,0,0,1,58.93,78.84Zm-11.27-22a1.24,1.24,0,0,1-1.14-.11C46.95,56.24,47.19,56.57,47.66,56.82ZM101,157.71a2.5,2.5,0,0,1-1.11,0A1.36,1.36,0,0,1,101,157.71Zm7-15.28c-0.12-.37-0.47-1.14-0.2-1.43C108.35,141.42,108.11,141.76,108,142.43Zm83.33-74a0.6,0.6,0,0,1,0,.73A1.17,1.17,0,0,1,191.31,68.4Zm3.77,17.3c0.12,0.1.44,0.15,0.18,0.31C194.72,86.11,194.95,85.88,195.08,85.7Zm21.22-2.65h0a1.06,1.06,0,0,1,.32-0.1Zm8-48.75c0,0.57.08,1.14,0.11,1.7a2,2,0,0,1-1.22.68c0.9,0.76-1.12,2.23.18,3.5-0.18.31-.32-0.23-0.54-0.06a1.3,1.3,0,0,1,.41,1.49l-0.11-.08c0.24,2.13-.11,3.07-0.22,5.48l0.46-.21a1.87,1.87,0,0,1-.27.89c0.75,0.55-.05-1.45.77-1-0.92.74,0.22,3.64-.84,4.16,0,0.79.53-.27,0.58,0.53l-0.28.23,0.39,0.18a0.85,0.85,0,0,1-.63.84,1.74,1.74,0,0,0-.12-0.49c-0.31.69,0.24,1.89,0.14,2.13l0.13-.77c0.42,2.15.2,4.81,0.93,6.87l0.21-.17c0.52,1.57-.16,1.29.14,3l-0.06-.06a2.26,2.26,0,0,1,.39,1.28c-0.29-.43-0.45.86-0.78,0.3,0.55,1.71.4,0.84,1.31,1.93l-0.35.28a1.67,1.67,0,0,1,.69,1.26c-0.36-.7-0.53.59-1-0.19-0.69,1.88,1,2.68-.14,3.59,1.08,0.79.47-1.62,0.72-1.16,0.31-.41.81,0.65,0.74,1.24s-1.25,1.07-1.13,2.54c0-.15-0.08-0.15-0.09-0.3-0.23.55,0.43,1.09,0,1.74,0.63,0.2-.07.4,0.7,0.63a3.19,3.19,0,0,0,0-.46l-0.11-.54a1.28,1.28,0,0,0,.28.48,1.67,1.67,0,0,1,.28.47,1.21,1.21,0,0,1-.31,1.31,2.53,2.53,0,0,1-.23-0.76c-0.31.2-.06,0.61-0.42,0.79a0.66,0.66,0,0,1-.13-0.87,0.75,0.75,0,0,0-.12-0.93c-0.17.08,0,.22,0,0.45s0,0.33-.37.07c0.94,0.69-.51,1-0.06,1.72L224,77.75a0.54,0.54,0,0,1,0,.47,3.14,3.14,0,0,0-.27-0.62c0.13,0.4-.27.31-0.47,0.17a0.45,0.45,0,0,0-.22,0,0.9,0.9,0,0,0-.36.17c0.53-.18.52-0.12,0.62-0.07a1.71,1.71,0,0,0,.45.68l-0.1.11a1,1,0,0,1-.74.21,1.72,1.72,0,0,1-.62-0.26,1.76,1.76,0,0,0-1.86,0c0.27-.16,1.18-0.09.8,0.26a3.13,3.13,0,0,1-1.37-.1c-1.38.56,0.38,0.39-.12,0.86-0.67-.38-0.61.45-1.17,0.84L218.38,80c-1.71.25-.09,1.09-1.66,1.22l0.39-.84-0.7.42,0-.57a2.46,2.46,0,0,1-1.83.77c0.3,0.26.18,0.86-.52,1.11-0.58-.11.12-0.52-0.87-0.12,0.13-.36.25-0.8,0.84-0.53,0-.16.12-0.36,0.12-0.52a3.25,3.25,0,0,0-1.7.49,1,1,0,0,1,.43,0l-1.24,1.12c-0.29-.09-0.15-0.29,0-0.49a6.42,6.42,0,0,1-.83.61,1,1,0,0,1,.38-1.16l-1.25.88c-0.15-.13-0.87-0.2-0.73-0.4-0.85,0-1.65,1.35-2.77,1.41a0.66,0.66,0,0,1-.31.32c-1,.24-2,0.07-3,1l-0.87-.45c-0.84.45,1.16,0.55-.24,1.29-1,.56-0.59-0.44-1-0.5-0.41.51-1.09,1.5-2.24,1.28a3.65,3.65,0,0,1,.85-0.37l-0.86-.12c0.69-.91,1.4-0.91.53-1.2,0.16,0.66-.54.93-1.25,1.21a4.08,4.08,0,0,0-.95.46,1.1,1.1,0,0,0,0,.65,1.64,1.64,0,0,1-.21-0.23s0-.09.09-0.09c-0.17-.29-0.17,0-0.28.33a0.92,0.92,0,0,1-.58.79c-0.19,0-.2-0.25,0-0.49,0,0-.58.55-0.6,0.56s0.11-.31.19-0.31l-0.11.05-0.11.06a0.31,0.31,0,0,1,0-.09l-0.09-.26,0,0a0.93,0.93,0,0,1-.67.16c0.14-.38.14,0,0.29-0.21a2,2,0,0,1-.37-0.23c0.3-.39.66-0.26,0.65,0,0.57-.74.5-0.65,0.34-0.66s-0.4-.09-0.06-0.51l0.2,0.18c0.7-.55.49,0,0.79-1.3a11.06,11.06,0,0,1-.61.94,0.88,0.88,0,0,1-.8.14,1.13,1.13,0,0,0-.28-1c0.48-.08.29-0.54,0.17-1.13l0.64-.05a2.18,2.18,0,0,0-.94-0.86,1.19,1.19,0,0,1,.81-1.18c-0.07-1.17-.67.91-1-0.43a4.61,4.61,0,0,0-.81-2.72c0.12-.7.4,0.06,0.55-0.21l-0.59-.52c0-.15.15-0.12,0.23-0.11-0.27-.47-0.64.05-0.93-0.71-0.73-.11.78-1.77-0.16-2.63,0.14-.27.41,0.06,0.64-0.05A7.9,7.9,0,0,0,192,72l0.27-1c-0.37.76-1.07,0-1.64-.73l-0.08.11,0-.25,0.12,0.14,0.11-.16-0.25-.14-0.09-.61a1.12,1.12,0,0,1,.66.25l-0.32.5a1.75,1.75,0,0,0,1.26.35,0.93,0.93,0,0,1-.23-0.38,0.28,0.28,0,0,0,.27.05,0.52,0.52,0,0,0-.29-0.34l0.66-.39-0.29,0,0.2-1.67c-0.88-1-2.08-1.88-2.64-3.66,0.58,0.37.86,0,1.48-.1-0.57.6,0.49,1.37,0.5,2.34,0-.5.3-0.44,0.42-0.33l-0.84-1.6c0.51,0,.32-0.42.46-0.89-0.94.48-.85-1.16-1.26-1.8,0.33-.09.69,0,0.74,0.87,0.6-1-1.35-1-.85-2,0,0.2,0,.32.19,0.38-0.37-.43-0.31-1.64,0-1.4l0,0.2c-0.09-1.37-.63-4.13-1.5-4.21a6.17,6.17,0,0,1,1.22.08l-2.21-1.37L188,53.41c0.76-.22,1.65-0.51,2.05.23a1.9,1.9,0,0,0-.25-1.4c-0.07.24-1,.71-1.07,0.42a6.17,6.17,0,0,0,.87-1.76c-0.1.35-1.29,0.16-1.34-.37a4.57,4.57,0,0,1,1.26,0l-1.31-1.13c0.25,0.29,1-.09,1.22-0.43-0.2.17-.15-1.13-0.32-1.46l-0.17.59c-0.06-1.49-1.79-1.21-2-2.67,0.26,0.14,1.48.22,1.51-.55a17,17,0,0,1-2-.87l-0.25-1.63a18.7,18.7,0,0,1,2.23,1.74c0.17-.59.36-0.21,0.2-1,0.26-.34.53,0.38,0.59,0.62l-0.1-1.95c-0.65.19-.89-1.36-1.43-1.2l1,2c-0.65.19-2.07-.91-2.16-2.28,0.21-.39,1.22.07,1.44,0a1.93,1.93,0,0,1-.49-1.37L188,39.37c0.14-.79-1.07-1.11-0.57-2.09,0-.29.78-0.87,0.38-0.88a6.71,6.71,0,0,1-2.32.63c0-.36-0.07-0.72-0.07-1.08l0.26,0V35.8h-0.26c0-.37,0-0.74,0-1.1a1.26,1.26,0,0,1,.75.3,0.91,0.91,0,0,0,.94.23,0.81,0.81,0,0,1-.46-0.4c0.19-.28.55,0.16,0.54-0.46-0.69-.2.27-1.27-0.54-0.38-0.08-.67.27-0.65,0.41-1.37a1.28,1.28,0,0,1-1-1q0.15-.43.33-0.84l0.08,0a14.28,14.28,0,0,1,2.13-2.8c0.21,0,.76-0.32.81,0.07a1.1,1.1,0,0,1,.23-0.79c0.48-.05.34,0.12,0.2,0.3s-0.26.43,0.18,0.46c-0.27-.31.3-1.07,0.58-1.62-0.27-.19-0.54,0-0.76.33a3.39,3.39,0,0,0-.48,1,1.32,1.32,0,0,1-.41-0.85,13.57,13.57,0,0,1,3.43-2.59c0.43-.09,1-0.4,1.78-0.64a6.7,6.7,0,0,1,2.9-.48,2.66,2.66,0,0,0,.52-0.48l2.38-.25,0.75,0.07-0.23-.08H200q1.57-.15,3.14-0.27a0.44,0.44,0,0,0,0,.22l0.69-.27h0.09c0,0.11-.23.29,0,0.37a0.56,0.56,0,0,1,.26-0.39l1.18-.06,0,0,0,0,1-.05,0.12,0a0.33,0.33,0,0,1,.17,0c1.39-.07,2.78-0.12,4.17-0.15A13,13,0,0,1,224.33,34.3ZM170.18,96.12c0.23-.18.7-0.65,0.91-0.42C171,96.31,170.66,96.14,170.18,96.12Zm-20.29,8a0.86,0.86,0,0,1,.87-0.19A1.73,1.73,0,0,1,149.89,104.1Zm5.42,19.29a12,12,0,0,1-3.29,1A25.28,25.28,0,0,1,155.31,123.39Zm90.12-76.93c-0.63-1.25-.43-2.25-0.4-4.18C245.2,43.4,245.66,45.62,245.43,46.46Zm-65.69-38a20.77,20.77,0,0,1,3.41-.66A14,14,0,0,1,179.74,8.44Z"/>
    <path d="M246.67,66.59l0,0.62C246.71,67,246.69,66.77,246.67,66.59Z"/>
    <path d="M236.23,193.8c0,0.16,0,.32,0,0.47C236.23,194.1,236.23,193.94,236.23,193.8Z"/>
    <path d="M189.07,5.17a0.77,0.77,0,0,1,.54.11C190,5.08,190,5,189.07,5.17Z"/>
    <path d="M270.91,129.29l-0.07.19a0.5,0.5,0,0,0,0,.22Z"/>
    <path d="M25.27,37.53a7.49,7.49,0,0,0-1.76.3l0.75-.15,0.61,0c0.36,0,.63,0,0.85,0C25.74,37.54,25.62,37.51,25.27,37.53Z"/>
    <polygon points="11.37 132.88 11.84 136.6 11.76 135.49 11.37 132.88"/>
    <path d="M4.29,94.19l-0.63,0L4.22,96A6.78,6.78,0,0,1,4.29,94.19Z"/>
    <path d="M2.14,84.28c-0.24-.37-1.38-5.8-0.57-0.67C1.81,84,2.58,88,2.14,84.28Z"/>
    <path d="M73.58,18.16c1.42-.63,2.56-0.94,3.14-1.17s0.6-.37-0.17-0.52c-2.55.54-2.79,0.85-3,1.06s-0.32.36-2.56,1.13c-0.51.36,0.4,0,1.31-.27S74.14,17.86,73.58,18.16Z"/>
    <path d="M73.58,18.16a14.93,14.93,0,0,0-1.43.7C73,18.45,73.35,18.3,73.58,18.16Z"/>
    <path d="M245.57,36l0.21-2.44-0.17-.23A10.17,10.17,0,0,0,245.57,36Z"/>
    <polygon points="248.01 75.7 247.97 74.98 247.47 76.37 248.01 75.7"/>
    <path d="M268.27,102.6c-0.38-1.17-.93-2.47-1.44-3.69C267.83,101.52,267.74,103.17,268.27,102.6Z"/>
    <path d="M266.83,98.92c-0.11-.27-0.22-0.56-0.35-0.85Z"/>
  </g>
</svg>
