<svg id="scissors" data-name="scissors" xmlns="http://www.w3.org/2000/svg" viewBox="0 0 296.97 380.99">
  <defs>
    <style>
      .cls-1 {
        fill: #19171c;
      }
    </style>
  </defs>
  <title>scissors</title>
  <g>
    <path class="cls-1" d="M292.73,196.82a63.28,63.28,0,0,0-7.43-9.69c-1.23-1.91-2.75-3.86-2.19-3.95-2.51-1.69-5.37-4.41-9.16-6.83a30.35,30.35,0,0,0-13.43-4.95c-1.05-.3-0.58-0.29,0-0.26s1.32,0.15.78-.11l-1.77-.13-1-.11-1-.13a8.61,8.61,0,0,1-1-.21l-0.52-.16-0.39-.15a3,3,0,0,1-.76-0.43,1.13,1.13,0,0,1-.35-0.88l-0.09-.62a10.13,10.13,0,0,0-.21-1l0.27,0.61a29.42,29.42,0,0,0-4.4-9.77,45,45,0,0,0-5.87-6.87c-2.1-2.06-4.33-4-6.85-6.14a52,52,0,0,0-9.62-6.59,6.62,6.62,0,0,1,.49.51l0.47,0.53c-3.38-1.85-4.15-2.19-5.82-3-1.13-.17-1,0-0.33.23s2,0.79,3.24,1.35a24.93,24.93,0,0,1,3.14,1.67c0.66,0.44.78,0.62-.19,0.31-0.25-.21-0.56-0.44-0.92-0.69s-0.81-.48-1.29-0.75a28.63,28.63,0,0,0-3.46-1.62,30.89,30.89,0,0,0-9.38-1.95,35.83,35.83,0,0,0-9.27.87c-1.28.36-2.45,0.6-3.37,0.89a11.68,11.68,0,0,1-2.11.48h0c2.1-4.54,4.66-11.83,5.24-13.25l-1.06,2.53c-0.26.63-.54,1.26-0.75,1.73l-0.35.78c5.36-14.62,12.4-32.25,17.2-46.51l-0.61,1c1.84-5.44,2.72-7.55,3.66-9.83,0.47-1.15.95-2.33,1.5-4a43.29,43.29,0,0,0,1.71-7.12l0,0.48a50.8,50.8,0,0,0,.1-9.74c0.13,0.82.2,0.85,0.23,0.48,0-.19,0-0.47,0-0.8L225.84,52c0-.73-0.1-1.44-0.11-1.68s0.17-.05.42,1a26.21,26.21,0,0,0-1.17-4,22.07,22.07,0,0,0-1.07-2.45,16.3,16.3,0,0,0-1.32-2.23,15.39,15.39,0,0,0-1.11-1.35c-0.27-.3-0.57-0.71-1-1.2l-1.72-1.88a2.5,2.5,0,0,0-.14-0.28l-0.34-.59-0.49-.86c-1-1-1.73-1.43-2.65-2.25-0.45-.42-1-0.84-1.79-1.46s-1.74-1.33-3-2.28c2.19,1.46,1.47.74,0.8,0a2,2,0,0,1-.59-0.73,5.07,5.07,0,0,1,1.83,1,31.14,31.14,0,0,0-7.64-5c-1.19-.6-2.38-1-3.47-1.42s-2.16-.7-3.16-1c-4-1.06-7.15-1.53-10.14-2.56-3.15.15-.25,0.57,2.94,1.18s6.68,1.6,5,1.21c1.35,0.58.08,0.36-2.05,0-1.06-.21-2.35-0.37-3.61-0.59l-3.57-.51c-1.05-.14-2-0.33-3.05-0.54s-2.14-.43-3.48-0.63a15.51,15.51,0,0,0-2.21-.19,16,16,0,0,0-2.66,0l-1.53.14c-0.53.08-1.08,0.21-1.66,0.33a24.41,24.41,0,0,0-3.74,1.13c1.07-.38,1.12-0.47,2.2-0.84a16.45,16.45,0,0,0-3,1.08l-1.45.72c-0.48.26-.93,0.58-1.4,0.87a51.93,51.93,0,0,0-5.68,4.33,16.91,16.91,0,0,1-1.37,1.85c-0.46.62-.94,1.22-1.38,1.77-0.84,1.12-1.43,2.11-1.34,2.65l0.87-1.31c0.49-.81,1.31-1.78,2.08-2.78,0.4-.49.85-0.94,1.25-1.39a13.64,13.64,0,0,1,1.14-1.17l1.18-1.08a29.58,29.58,0,0,0-5.5,7,101.65,101.65,0,0,0-5.26,10.12,12.94,12.94,0,0,1,.64-2.16,29.58,29.58,0,0,1,1.15-2.92c-1.48,2.32-2.06,4.81-3.28,7.34-0.22-.49.75-3.38,2.36-6.73a63.52,63.52,0,0,1,5.9-9.63,21,21,0,0,0-2,2.37c-0.65,1-1.39,2.07-1.88,3-1.07,1.88-1.67,3.15-1.33,1.56a69.42,69.42,0,0,1-3,7.47,65.28,65.28,0,0,0-3.28,9.4l-0.28-.61c-0.33,1.09-.95,3.37-1.69,5.33l0.75-3.76c-1.55,5.63-4.37,10.34-6.06,15.66,4.09-10.94,1.46-2.26,3.52-6.76-4.4,13.51-4.09,7.52-9.29,21.86,0.89-2.35,2.82-6.64,1.92-3.66-1.17,2.84-2.77,6.57-3.66,8.25-3.66,10,1-1.37-.29,3-1.82,3.2-1.62,5-3.1,9.45l-0.46-.14c-2.28,5.65-2.33,6.49-2.33,7.19a4.19,4.19,0,0,1,0,.57,2.65,2.65,0,0,1-.09.61,17.74,17.74,0,0,1-1.12,2.91s0.2-1,.31-1.74,0.16-1.37.16-1.37l-0.39,1.28-0.45,1.4v-0.8l0-.72a24.72,24.72,0,0,1-1,3.26,17.91,17.91,0,0,1-.93,2,22.46,22.46,0,0,1-.64,3.19c-0.26.43-.58-0.05-0.65-1.68a5,5,0,0,1,.36-2,10.8,10.8,0,0,0,.11-2.38,0.53,0.53,0,0,1,.42.18,7,7,0,0,1-.14,2.32,10.32,10.32,0,0,0,.57-1.28,25.13,25.13,0,0,0,.1-2.7c0-.58,0-1.11,0-1.55a10.09,10.09,0,0,1-.17,1.17,11.47,11.47,0,0,1-.25-1.59l-0.08-.82,0-.42v-2.37c0.27-1.73.35-.34,0.41,1,0.07-2.25-.07-3.81.07-7.11,0.35,0.87.76,0.69,0.69,5.37L122.28,96c0.21-.7.76-5.39,0.83-4,0.54-5.84,0-14.38.73-22.12a22.55,22.55,0,0,1-.05-2.87c0.48-7.28,1.31-13.71,1.23-22.37l1-4.86c0-.85,0-1.38,0-1.68s-0.07-.41-0.12-0.34a12.92,12.92,0,0,0-.39,1.37c-0.15.54-.29,0.94-0.37,0.5a9.19,9.19,0,0,1-.08-1.38L125,35c0-1-.12-1.88-0.15-2.54s-0.07-1.16-.08-1.53a1.67,1.67,0,0,1,.13-1c0.18-.13.53,0.42,0.38-1.08a30.46,30.46,0,0,0-1.06-3.61l-0.74-2.12-1-2.24a48,48,0,0,0-5.85-9.5A35.75,35.75,0,0,1,119,14.12c0.62,1,1.28,1.9,1.9,3a5.83,5.83,0,0,0-.43-0.85l-1-1.83a14.83,14.83,0,0,0-1.17-1.76l-0.57-.78a27.75,27.75,0,0,1,5.05,6.86c0.41,0.67.57,1,.56,0.8a14.08,14.08,0,0,0-.82-2.31,2.31,2.31,0,0,1-.95-1c-0.48-.56-1.08-1.35-1.76-2.3s-1.62-1.91-2.52-3c-0.5-.51-1-1-1.58-1.52A15,15,0,0,0,114,7.95l-1.79-1.36c-0.6-.44-1.24-0.78-1.84-1.15a19.54,19.54,0,0,0-1.78-1l-1.68-.74a14.56,14.56,0,0,0-1.46-.57c-0.46-.13-0.86-0.23-1.21-0.3a2.09,2.09,0,0,0-1.3,0c0-.11-3.73-1.31-3.73-1.31,1.1,0.29,1.29.25,2.37,0.54a16.58,16.58,0,0,0-4.16-1A18.07,18.07,0,0,0,94.69.93c-0.85.09-1.77,0.2-3.06,0.23s-2.85.05-5.14-.1c-3.17-.24-5.37-0.53-3.19-0.6l-3.7,0-1.41,0c-0.45,0-.87.09-1.22,0.13l-1.19.14c-1.11,0-1.53.11-1.41,0a3,3,0,0,1,1-.21,6,6,0,0,0-.9.11L72.6,1l-1,.2-1.05.3-2.06.61-1.74.7-1.23.5L65,3.58l0.06-.08a40.67,40.67,0,0,0-5.8,4.34c-2.43,1.64,1.07-1,.38-0.69l-0.76.65A18.18,18.18,0,0,0,57.28,9.3l-1.51,1.58c-0.4.44-.63,0.77-0.63,0.77-1,.86-0.69.24,0.27-1,0.52-.58,1.22-1.31,2-2.07s1.75-1.43,2.64-2.1a15.13,15.13,0,0,0-3.17,1.83,20.24,20.24,0,0,0-2.13,2.16L53.6,12l-0.71.89-0.74,1.09a31.65,31.65,0,0,0-1.81,2.72c-0.32.54-.7,1.1-1.05,1.73l-1.07,2.07,0.37-.9a19.44,19.44,0,0,1,.88-2l1-1.88a6.3,6.3,0,0,1,.5-0.84c-2.83,3-5,7.64-6.23,14.83,0.13-.42.3-1.54,0.66-2.82a27,27,0,0,1,1.41-3.83A8,8,0,0,1,48,21c0.19-.12.1,0.45-0.37,2.16a21.74,21.74,0,0,0-1.37,8.24c-0.48,0-.55,3.47-0.76,7.8l-0.62-.33c-0.07,4.69.27,4.34,0.41,7.1-0.35,5.21-.9,6.26-1.38,7.47-0.56,8.34,1.11-5.72.69,4.17C44,64.52,44,69.41,43.93,77.73c-0.48,4.85-.35-0.87-0.62.86l0.28,4.33c-0.07,1.05-.21.7-0.28,0.53,0,3.64.62,0.33,0.49,6,0.62,1.58-1.65,11.66-1.23,18.76-0.27,1.73-.35-0.86-0.62-0.34,0,9.71-.06,8.32.22,16.32L41.38,131c0.76-5,1,1.44,1.13,7l0.15-.8-0.11,2.05,0-1.25-0.19,1,0.16,1.34-0.25,4.38c-0.19,0-.35-1.15-0.49-2.54L42.32,139c-0.27-2.22-.58-4.29-1-3.86,0,0.58,0,1.7,0,2.92-0.07-.58-0.15-1-0.23-0.69a17,17,0,0,0,.09,2.7l-0.82,2,0.26,0.51-0.55,5.8L40,149.47l0,0.53,0,0.27-0.12.84,0,0.32c0,0.07,0,.22-0.1.18H39.41l-0.63.15-0.35.09-0.17,0-0.38.07c-1.06.15-2.1,0.41-3.14,0.66a37.63,37.63,0,0,0-6.29,2.19,34.49,34.49,0,0,0-12.94,10c1.83-2.8-.15-1.11-0.51-1.64,1.47-1.21,3.35-3.1,5.82-5a26.62,26.62,0,0,1,9.12-4.62,12.86,12.86,0,0,1-2.7.67c-0.17,0,.21-0.3.66-0.49l-0.52.21c-0.33.14-.79,0.37-1.34,0.63l-0.89.43-1,.54-1,.58-1,.67a21.37,21.37,0,0,0-1.93,1.4,18.53,18.53,0,0,0-1.58,1.33,18.59,18.59,0,0,0-1.46,1.39c-0.06-.28-0.64.11-1.5,0.88l-1.42,1.44c-0.52.55-1,1.19-1.62,1.82,1.2-.68-0.25,1.24-1.87,4.12-0.82,1.44-1.68,2.94-2.6,4.45s-1.74,3-2.28,4.11c-0.46.15-.17-1.24,3.1-6.31a22.89,22.89,0,0,0-3.77,6.77,52,52,0,0,1-2.92,7.18c-0.47,1.33-1,2.8-1.29,4.11-0.6,2.34-.77,4.09-0.85,3,0,0,0-.4.09-0.79l0.11-.78a20,20,0,0,0,.48,9.51c1,3.19,2.11,6.46,3.18,9.52C6.15,216,8.1,221,8.73,221.61A5,5,0,0,1,7,220.2l5.73,10.94q0.85,2.58,1.7,5.16c-0.53.91-1.06,2.26-3.09-3,0.63,2.26,1.42,5,3.16,9.65-0.38-1.55-.21-4.11.52-2.05,0.52,3,.73,4,1,5.18l0.51,2.18c0.23,1,.56,2.24,1,4-0.7-2.32,1.35-.19,2.57,3.35-0.35-.49-1,0.66-1.53-0.58,0,0,1.07,2.06,1.89,4.17a23.3,23.3,0,0,1,1.25,4.35c-0.18-1.12-.45-1.18-0.65-0.74a14.41,14.41,0,0,0-.61,2.32c0.11-.44.16,1.41-0.41,3.56-0.61,2.39-1.33,5.25-1.55,6.49l1.17-3.85a46.33,46.33,0,0,0-1.62,10.51,59.3,59.3,0,0,1-1.31,10.46c0-1.3-.78-3.37-2,1.86,0,1.34.21,4.45,0.09,8.45-0.82,3.87-1.7,7.73-2.67,11.56q0.09-1,.2-2l1.17-12.82c-1.07,3.83-.59,1-1.82,6.81-0.76,2,.25-3.25.58-5,0,0-.75,3.37-1.57,6.71-0.41,1.67-.83,3.33-1.16,4.58L9.22,314l-0.11.42,0,0.17c0.2-.12.19,0.54,0.08,1.58,0,0.52-.17,1.13-0.19,1.81l-0.1,2.12a19.17,19.17,0,0,0,.05,2.11A13.29,13.29,0,0,0,9.08,324c0.19,1,.35,1.66.48,1.5l-0.1-.68a15.23,15.23,0,0,1-.2-1.81c0-.75-0.08-1.64-0.08-2.58s0.1-2,.19-3l0.48-2.93,0.47-2.35,0.44-2.3c0.4-.2.36,2-0.1,5.48a38.71,38.71,0,0,0,.57,13.52c0.22,1.26-.2.9-0.7,0.2a7.34,7.34,0,0,0-1-1.62c0.13,0.32.31,1.1,0.6,2.08l0.55,1.57a12.9,12.9,0,0,0,.65,1.69L12,334.49c0.23,0.53.53,1,.74,1.41l0.9,1.7a4,4,0,0,1-.41-0.57l-0.84-1.29a11.62,11.62,0,0,1-.8-1.33l-0.32-.63a18.61,18.61,0,0,0,1.87,3.66c0.38,0.52.78,1,1.17,1.52a12.56,12.56,0,0,0,1.24,1.43l1.34,1.4c0.47,0.46,1,.9,1.51,1.39l0.79,0.75,0.88,0.73c0.61,0.48,1.19,1.09,1.91,1.6,0.51,0.33,1.12.78,1.77,1.26s1.39,0.89,2.06,1.32l1,0.58c0.31,0.16.61,0.28,0.86,0.39a2.05,2.05,0,0,0,1,.26c-1.78-1-2.47-2.28-2.45-3.1a1.2,1.2,0,0,1,.09-0.41A30.89,30.89,0,0,0,33.67,349l-0.36.18s0.36,0.1.73,0.17l0.73,0.14v-0.26l7.77,1.55c0.6,0.7-6.18.05-3.54,1a14.06,14.06,0,0,1,3.1.12c2.31,0.62-1.08.36,4,1.3,1-.5,10.32,2.13,2.52-0.08,5,0.81,5.25,1.2,11.09,2.35-1.17-.53,1.61-0.54,5.08-0.24l6.43,1.31,0.31,0.13c10.17,2.16,15.57,3.59,25,5.58,0.84,0.34,5.37,1.5,3.37,1.38a49.54,49.54,0,0,1,5.62.81c5.54,1.77-6.54-1.28-2.37.32,0.45-.31,7.68,1.06,11.89,1.71-1.15-.87-9.6-2.16-13.82-2.79,0.05-.29,1-0.39,2.58-0.34q15.28,3.22,30.55,6.52c6.88,1.74,24.08,5.23,33.93,7.82,1.44,0.19,3.58.53,4.21,0.53l9,2a29.25,29.25,0,0,0,8.09.66h0.55l1.85-.18a12.21,12.21,0,0,0,1.83-.28l0.83-.17-1.58.25a3.65,3.65,0,0,1-.59.09l-0.84.1A26.62,26.62,0,0,0,209,371.1c0,0.13,0,.18.2,0.1l0.51-.75c0.29-.46.74-1,1.07-1.67l0.93-1.75,0-.07c0.12-.23.24-0.47,0.36-0.7,0,0.26-.62,1.72.17,0.48a3.17,3.17,0,0,1,.24-1.2c0.06-.18.13-0.38,0.2-0.6a28.55,28.55,0,0,0,1.92-6.43c0.12-.67.24-1.33,0.37-2,0-.12.06-0.24,0.09-0.35s0-.2,0-0.3q0.64-3.44,1.34-6.87c0.06-.23.14-0.53,0.23-0.92s0.15-.9.24-1.35c1.51-7.17,3.16-14.31,4.64-21.48,1.37-6.62,3.4-12.39,8.07-18.07,19.91-24.22,38.86-49.22,58.22-73.89C296.75,222,300.54,209.28,292.73,196.82Zm-98.79,65.55a1.43,1.43,0,0,1-.8.85A2.94,2.94,0,0,1,193.94,262.37Zm-8,22.86a1.41,1.41,0,0,1,.83.89C186.08,286.18,186.12,285.77,185.92,285.23ZM192.13,45.5c-0.48-.09-1.49-0.17-1.7-0.56C191.15,44.64,191.44,45,192.13,45.5ZM118.66,185c-0.17-1.93,2.81-3.83,2.69-6.93,0.41-.52.1,0.61,0.42,0.38a5.08,5.08,0,0,1,.86-3.12l0,0.21c1.53-4.28,2.6-6,4.67-10.64l-0.58.18a7.07,7.07,0,0,1,1-1.6c-0.22-1.43-1.14,2.87-1.47,1.51,1.42-1,2.77-7.23,4.15-7.76,0.61-1.58-.69.27-0.08-1.31l0.44-.31-0.2-.53c0.45-1,1-1.4,1.25-1.35a7.63,7.63,0,0,0-.29,1c0.84-1.22,1.33-3.83,1.61-4.25l-0.75,1.45c1.38-4.41,3.74-9.53,4.76-13.9l-0.33.24c0.82-3.32,1.2-2.46,2.34-6v0.15a9.32,9.32,0,0,1,.69-2.7c-0.09,1,1.11-1.48.94-.22,0.89-3.6.32-1.83,0.41-4.4l0.55-.39a5.57,5.57,0,0,1,.41-2.8c-0.25,1.54,1-.91.74,0.84,2.15-3.37,1.3-5.72,3-7-0.32-2-1.73,3-1.58,1.94-0.61.67-.19-1.66,0.34-2.77s2-1.52,3.08-4.47c-0.12.29-.05,0.34-0.17,0.63,0.66-1,.49-2.28,1.4-3.48-0.29-1,.7-1.74,0-2.24l-0.85,2.76c0.39-1.6.06-3.36,1.44-5.72a6.17,6.17,0,0,1-.1,1.63c0.5-.65.39-1.47,0.91-2.15,0.66,0.5-1.08,3.34-1.14,5.19,0.61-.67.64-3.3,1.13-2.17-0.57-1.57,1.23-2.85,1.2-5.13l0.39,0.3a7,7,0,0,1,.31-1.65l0.18,1.27c0.12-1.8,1.6-2.95,1.91-4.6-1.2,3.24-.81.53-1.65,1.77,0.89-4.13,2-2,3.4-6.15-0.29.7-1,1.78-.88,0.88a11.34,11.34,0,0,1,1.43-2.31c1-3-.63.28-0.43-1.08,0.92-.8.33-1.54,0.64-2.9l0.45,0.16c1.56-3.27-.6-1.25.89-4.16l0.14,1.52,0.43-1.65,0.39,0.52a10.74,10.74,0,0,1,1.35-4c-0.47.27-.74-0.53-0.19-2,0.65-.92.21,0.73,0.95-1.41a1.92,1.92,0,0,1-.5,2c0.11,0.15.11,0.58,0.21,0.73a14.47,14.47,0,0,0,1.39-3.5,4,4,0,0,1-.42.79L162.58,71c0.35-.42.34,0,0.33,0.45,0.19-.64.14-1.15,0.44-2.08,0.28,0.38.68,0.46,0.36,1.82l0.69-3.08c0.23-.14,1-1.34,1-0.91,0.83-1.54.79-4.25,1.88-6.3a2.19,2.19,0,0,1,.11-0.87c0.84-2,2-3.61,2.37-6.2l1.17-1.11c0.56-1.92-1.52,1.5-.59-1.66,0.63-2.09.85-.51,1.33-1.1a8,8,0,0,1,.45-2.06,3.87,3.87,0,0,1,1.64-2c-0.33.5-.65,0.87-1,1.33l0.58-.43,0.39-.29a1.17,1.17,0,0,1,.19-0.12c-0.55,1.64-1.24,2.54-.15,1.77-0.51-.45.22-1.56,1.1-2.44l1.26-1.13a1,1,0,0,0,.43-1l0.45-.06a2.36,2.36,0,0,1,.44,0,3.76,3.76,0,0,0-.45.27,2,2,0,0,0,.88-0.23,1.65,1.65,0,0,0,.43-0.52,2.16,2.16,0,0,1,.58-0.57,2.27,2.27,0,0,1,.5-0.24,4,4,0,0,1,.75-0.08,2.15,2.15,0,0,1,.93.16c0.18,0.08.18,0.17-.09,0.25l0.9-.16c0.46-.05.93-0.07,0.93-0.07,0.41,0.06.41,0.21,0.15,0.23a18.8,18.8,0,0,1,2.51.45l0,0a8.54,8.54,0,0,1,1-.1c0.38,0,.76,0,1,0,0.65,0.46-.41,0-0.29.23L188,43.25l0.6,0.12,0.28,0.06c0.54,0.6-1,.33-2-0.09,0.91,1.79,1.41.18,4.44,2.29l-1.63-.49c0.71,1.13,2,1.37,3.61,2.55-0.32-.4-3.06-2.58-1.13-2.14a5.08,5.08,0,0,0,2.19.77c-0.18.45,0.81,0.73,2,1.19l-0.33.55a5.37,5.37,0,0,0,2.23.06,3.46,3.46,0,0,1,.65.44,1.64,1.64,0,0,1,.31.45,1.69,1.69,0,0,1,.11.8c0.72,0.57.59,0.23,0.49-.12s-0.17-.74.82-0.05c0.58,0.62,1,1.13,1.58,1.66a13.34,13.34,0,0,1,1.65,2c0.23,1.18-.44,0-0.46.41l0.13,0.12a2.66,2.66,0,0,1,.28.27l0.39,0.43c0.06,0.25-.13.21-0.2,0.19a0.6,0.6,0,0,0,.51.44,0.92,0.92,0,0,1,.52.9c0.37,0.17.15,1-.19,1.86a6.4,6.4,0,0,0-.79,3.08c-0.31.44-.31-0.34-0.59-0.25a42.33,42.33,0,0,0-.33,4.83l-1,1.75c0.93-1.22.87,0.73,0.74,2.44l0.17-.18-0.2.53,0-.35-0.23.23,0.08,0.43-0.46,1.23a1.27,1.27,0,0,1-.33-0.91l0.7-.75c-0.14-.74-0.34-1.46-0.74-1.46a3.27,3.27,0,0,1-.13.87c0-.2-0.09-0.33-0.18-0.28a1.64,1.64,0,0,0,0,.82l-0.88.31,0.22,0.23-1.63,3.06c-0.2,2.56,0,4.94-1.09,8.71-0.14-1.09-.73-0.5-1.29-0.76,1-.77.81-2.94,1.66-4.79-0.44,1-.63.64-0.63,0.36l-0.73,3.6c-0.45-.26-0.63.59-1.16,1.4,1.19-.32-0.33,2.76-0.57,4.25-0.35,0-.54-0.48.17-2.14-1.41,1.59.19,2.81-1.1,4.41a1.21,1.21,0,0,0,.18-0.84c-0.08,1.06-1.19,3.33-1.26,2.67l0.15-.41c-1.14,2.68-3.15,8.29-2.51,9a3.64,3.64,0,0,1-.92-0.95l0.58,4.09-0.57,1.49c-0.81-.08-1.81-0.09-1.48-1.77a8.33,8.33,0,0,0-1,2.83c0.27-.41,1.41-0.73,1.24-0.1a17.73,17.73,0,0,0-2.27,2.8c0.4-.61,1.19.53,0.76,1.57-0.1-.22-1.09-0.31-1.06-0.74l0.06,3c0.06-.72-0.85-0.45-1.37,0,0.31-.19-0.87,2.25-1,3l0.66-1c-1.28,2.89.38,3.47-.79,6.37-0.08-.44-1-1.38-1.7.06a22.89,22.89,0,0,1,.81,3l-1.25,3.28a43.27,43.27,0,0,1-.26-4.82c-0.66,1-.48.17-1.08,1.83-0.51.47-.1-1.07,0.07-1.56l-1.64,3.77c0.69,0.07-.48,3.18.1,3.23l0.93-4.42c0.69,0.07.87,3.09-.27,5.77-0.51.6-.92-0.94-1.15-1a8.12,8.12,0,0,1-.82,2.93l0.1-1.28c-0.81,1.43-.1,2.79-1.4,4.39-0.28.61-1.52,1.57-1.19,1.82a3.05,3.05,0,0,1,2.58-.09l-0.82,2.15-0.22-.19-0.15.42,0.25,0.08-0.83,2.19c-0.62,0-.55-2.13-1.27-1.51a1.79,1.79,0,0,1,.13,1c-0.4.61-.43-0.48-0.89,1,0.55,0.48-1.16,2.9.28,0.88-0.35,1.47-.7,1.44-1.29,3.1,0.4-.25.64,0.72,0.65,1.83l-0.67,1.8-0.1.07c-1.13,2.87-2,4.32-3,7-0.24.19-.9,1.43-1,0.77a4.7,4.7,0,0,1-.22,1.7c-1.14,1.41.58-1.89-.53-0.9,0.34,0.24-.26,2.34-0.46,3.61,0.71-.15,1.1-2.7,1.3-4a1.22,1.22,0,0,1,.56,1c-1,2.89-2.09,5.78-3.19,8.64-1,1.86-2.66,6.82-4.26,9.41a7.09,7.09,0,0,0-.15,1.28c-0.33.74-.65,1.48-1,2.21a65.57,65.57,0,0,1-4.67,8.14,0.22,0.22,0,0,0-.19-0.12l-0.63,1.33-0.13.19c0-.13.07-0.58-0.24-0.28a0.86,0.86,0,0,1,0,.7q-0.71,1-1.45,2.07l-0.08.08s0,0,0,.07l-1.21,1.7-0.2.21a1.71,1.71,0,0,1-.21.36c-1.59,2.2-3.18,4.38-4.7,6.6-1.75,2.56-3.86,4.89-6,7.6-8-4.84-15.24-9.59-22.83-13.59-3.17-1.67-3.69-3-2.49-6.11,0.44-1.14.88-2.28,1.32-3.42C117.67,185.19,118.3,184.71,118.66,185Zm84.13-25.43a16.13,16.13,0,0,1,1.84-2,1.65,1.65,0,0,1,1.5.39c0.2-.7,1.06-0.91,1.93-1a7.6,7.6,0,0,0,1.29-.26,2.8,2.8,0,0,0,1.21-.71c0.43,0.12-.28.36,0,0.54a1.76,1.76,0,0,1,2-.48l-0.12.1a7,7,0,0,1,3.46.82,17.07,17.07,0,0,1,3.24,2.24l0.06-.53a3.78,3.78,0,0,1,.9,1c0.59,0,.13-0.36-0.32-0.72s-0.88-.66-0.34-0.78c0.3,1.36,4.6,3.38,4.49,4.69,1,0.76,0-.66,1,0.11l0.08,0.43,0.48-.11a1.24,1.24,0,0,1,.55,1.31,3.87,3.87,0,0,0-.66-0.41c0.6,0.92,2.36,1.76,2.56,2.08l-0.79-.89c0.69,0.48,1.38,1,2.08,1.61s1.42,1.23,2,1.76a15.23,15.23,0,0,1,2.61,3.56l0.15-.26a2.65,2.65,0,0,1,.4,1.86c-0.07.45-.16,0.9-0.27,2.06l0-.09a3.25,3.25,0,0,1,.05.85,4.7,4.7,0,0,1-.26.94c0-.65-0.93.85-0.88,0-0.11.57-.24,0.93-0.3,1.18a1.92,1.92,0,0,0-.07.51,4,4,0,0,1,0,1.35l-0.53.1a2.91,2.91,0,0,1-.75,2c0.45-1.09-1,.34-0.53-0.92-2.43,1.78-2,3.9-3.77,4.21,0,1.69,2-1.62,1.71-.9,0.65-.28-0.08,1.34-0.72,2s-2,.42-3.43,2.27c0.15-.18.1-0.24,0.24-0.42-0.74.52-.78,1.57-1.77,2.15,0.12,0.86-.89,1.07-0.37,1.7l1.18-1.8c-0.59,1.08-.56,2.56-2.15,3.85a3.83,3.83,0,0,1,.33-1.22c-0.54.32-.57,1-1.14,1.31-0.51-.63,1.47-2.15,1.8-3.55-0.65.29-1.07,2.29-1.34,1.25,0.27,1.42-1.53,1.72-1.85,3.49l-0.31-.38a4,4,0,0,1-.53,1.15l0-1c-0.38,1.33-1.88,1.66-2.42,2.8,1.58-2,.8-0.1,1.75-0.74-1.46,2.89-2.1.66-4.11,3.6,0.24-.42,1.34-1.24,1-0.52a6.57,6.57,0,0,1-1.64,1.23c-1.37,1.91.61,0,.22,1-0.95.27-.53,1.05-1,2L212.1,205c-1.9,1.92.35,1.18-1.43,2.85l0.1-1.22-0.64,1.1-0.27-.54a6,6,0,0,1-1.82,2.56c0.46,0,.58.68-0.14,1.62-0.72.46-.08-0.64-1.07,0.73a1.15,1.15,0,0,1,.76-1.35c-0.08-.16,0-0.48-0.08-0.64a8,8,0,0,0-1.78,2.16,2.27,2.27,0,0,1,.5-0.45l-1,2.33c-0.38.19-.31-0.14-0.23-0.46a14.85,14.85,0,0,1-.72,1.42,1.19,1.19,0,0,1,0-1.53l-1.09,2.1c-0.23,0-1.1.65-1,.32-1,.87-1.35,3-2.65,4.11a1.31,1.31,0,0,1-.23.62c-1.06,1.21-2.32,2-3.07,3.86L195,225c-0.79,1.28,1.59-.61.28,1.51-0.9,1.53-.88.15-1.41,0.52a5.5,5.5,0,0,1-2.06,3.48,9,9,0,0,1,.83-1.2l-1.06.73c0.4-1.57,1.24-2.28.1-1.7,1,1-2.82,3.86-1.86,4.83l-0.72.47c0.15-.18.11-0.25,0.26-0.43-1.48.85,0.06,1.53-1.34,3-0.52.5-1,.77-0.81,0.29l-0.7,1.45c-0.3.35-.42,0.11-0.12-0.23l-1.39,2,0,0a11.09,11.09,0,0,1-.38,1.6c-0.53.36,0.07-.33-0.16-0.31l-0.56,1.25c-0.61.21-.2-0.87,0.4-1.56-1.84.16-.41,1.08-2.68,2.72l0.64-1.1c-1.11.17-1.49,1.12-2.74,1.95,0.41-.11,2.71-1.51,2.09-0.16a2.84,2.84,0,0,0-1,1.44c-0.39-.29-0.76.39-1.32,1.16l-0.47-.44a3.53,3.53,0,0,0-.32,1.72,1.73,1.73,0,0,1-1.79.72c-1.21,1.39,1.41-.52.17,1.27a11.1,11.1,0,0,0-2.4,3.75c-0.83.71-.2-0.39-0.58-0.19l-0.18,1.06c-0.15.18-.23,0-0.27-0.06-0.33.75,0.47,0.44-.16,1.54,0.35,0.69-2.4,1.42-2.72,3.13-0.38.19-.2-0.38-0.47-0.44-0.44,1-.66,1.44-0.8,1.8L168.77,262l-0.63.31-0.63.26c1-.26.53,1-0.32,2h0.19l-0.38.21,0.18-.21-0.26,0-0.15.34c-0.29.14-.58,0.28-0.88,0.39a1.2,1.2,0,0,1,.25-0.79c0.26,0,.51,0,0.78.06a1.38,1.38,0,0,0,.05-1.41,1.46,1.46,0,0,1-.38.44c0-.15.05-0.27,0-0.29a0.88,0.88,0,0,0-.33.45l-0.32-.23-0.32-.25,0,0.29-0.33.06-0.73.09c-0.54,0-1.08,0-1.08,0a12.2,12.2,0,0,1-2.38,1.38,8.59,8.59,0,0,1-1.48.47,0.49,0.49,0,0,1-.4-0.06l-0.4-.17c-0.27-.13-0.59-0.29-0.9-0.48,0.89,0,.63-0.6,1-1.08a1.12,1.12,0,0,0,.89.79l0.67-.17a2.14,2.14,0,0,1,.44-0.05c0.17,0,.34,0,0.51,0-0.72-.06-0.56-0.37-0.37-0.46l-0.38.08c-0.19.05-.31,0.12-0.52,0.18a0.75,0.75,0,0,1-.29.07l-0.23-.05-0.24-.06a0.55,0.55,0,0,0,.12-0.25,0.28,0.28,0,0,0,0-.1l-0.1-.14c-0.16-.19-0.42-0.4-0.65-0.69-0.15,1.12-2-.63-3.09-1,0.14-.31.55-0.44,1.59,0.41-0.75-1.47-2.23-.15-3-1.52a0.7,0.7,0,0,0,.58.27c-0.79-.2-2.13-1.5-1.61-1.47l0.26,0.19c-0.51-.43-1.21-1-1.94-1.51l-1.1-.79c-0.17-.11-0.4-0.28-0.5-0.33l-0.34-.19c-0.66-.21-0.9-0.71-1.23-0.72,0.11,0,1.06-.1,1.25-0.13a2.36,2.36,0,0,1-1.41-1.08,4.88,4.88,0,0,1-.39-0.81,4,4,0,0,1,.41-1l0.06-.1a2,2,0,0,1,1.29.85,1.14,1.14,0,0,1,.22.58c0.08-.1.17-0.18,0.26-0.29a5.06,5.06,0,0,0,.64-1.35c-0.27.26-1.37,0.23-1.18-.22,1.39-.74.84-0.58,2.26-1.72-0.4.4-1.11-.66-0.71-1.4,0.09,0.2,1,.44,1,0.78l0-1.21c0-.6-0.06-1.2-0.06-1.2,0,0.57.83,0.49,1.32,0.17-0.15.06,0.06-.36,0.29-0.88a10.13,10.13,0,0,0,.56-1.43l-0.58.76a3,3,0,0,0,.15-2.51,3.76,3.76,0,0,1-.1-2.48,0.88,0.88,0,0,0,1.64-.11c-0.23-.39-0.82-1.22-1.37-2.21q0.23-1.28.35-2.58c0.08,0.15.17,0.3,0.25,0.46a14.52,14.52,0,0,1,1.18,3.14c0.43-.87.43-0.18,0.64-1.58,0.39-.45.34,0.84,0.28,1.26l0.37-1.63,0.28-1.66c-0.66.08-.53-2.58-1.12-2.45a5.21,5.21,0,0,1,.1.55l0.18,1.23c0.08,0.45.1,0.9,0.13,1.24l0,0.57c-0.34,0-.76-0.54-1.05-1.36a8,8,0,0,1-.52-3c0.26-.58,1.2.4,1.43,0.37a3.71,3.71,0,0,1-.31-1.23,2.89,2.89,0,0,1-.08-1.16l0.43,1a3.3,3.3,0,0,0-.4-1.7,2.57,2.57,0,0,1-.24-1.9c0-.52.54-1.73,0.13-1.74a3.35,3.35,0,0,1-2.17,1.24c-0.11-.55-0.23-1.1-0.37-1.66h0.28l-0.09-.32-0.25.07c-0.1-.39-0.19-0.77-0.31-1.16a2.64,2.64,0,0,1-.09-0.52,2.57,2.57,0,0,1,1.13.35c0.29,0.14.55,0.2,0.66-.11a0.09,0.09,0,0,1-.08,0,0.71,0.71,0,0,1-.48-0.3c0.15-.35.54,0.08,0.5-0.57-0.72-.22.51-1.69-0.5-0.49a1.43,1.43,0,0,1,.29-0.91l0.63-.81c-0.4,0-.46-0.79-0.3-1.65l0.87-1.11,0.11,0c1.47-1.76,2.47-2.53,3.8-4.2,0.25-.05,1-0.74,1-0.21a2.77,2.77,0,0,1,.48-1.21c1.25-.63-0.84,1.21.32,0.88-0.26-.31.62-1.67,1-2.56-0.66-.15-1.43,1.63-1.82,2.51a1.23,1.23,0,0,1-.34-1l4-5.15c1.09-.82,3.47-4.33,5.28-6a2,2,0,0,0,.22-1l3.71-4.71L174,196l-0.09,0,1.42-1.8a0.3,0.3,0,0,0,.21.24l0.58-1.15c0.1,0.05,0,.52.26,0.31a1,1,0,0,1,.11-0.87l0.77-1a2.63,2.63,0,0,1,.34-0.24,0.85,0.85,0,0,0,.06-0.27l0.77-1c0,0.05.11,0,.31-0.17s0.2-.26.25-0.42l-0.06,0Q190.79,174.55,202.78,159.52ZM164.48,264.7a1.29,1.29,0,0,1,1-.2A1.91,1.91,0,0,1,164.48,264.7ZM181.57,244c0.14-.34.33-1.09,0.71-1.13C182.47,243.57,182.07,243.65,181.57,244ZM200.7,72.85a2.44,2.44,0,0,1,.63-1.39A5,5,0,0,1,200.7,72.85Zm-68.63,153a29.6,29.6,0,0,1-2.41-2.19,8,8,0,0,1,1.23.94A8.38,8.38,0,0,1,132.07,225.82Zm-5.29-5.07-0.67-.29,0.52,0.45,0.86,0.24,0.38,0.21c0.77,0.43,1.46.89,2.12,1.35a0.12,0.12,0,0,1-.1,0,8.6,8.6,0,0,1-1.62-.42l-1.63-1.42c-1.46-.4-2.86-0.71-2.78-0.23a16.27,16.27,0,0,1,1.77.83c-0.38-.1-0.64-0.14-0.52,0a7.63,7.63,0,0,0,1.67.69l0.4,0.65,0.36,0.64,0.41-.08a20,20,0,0,1,2.73,2.28,12.09,12.09,0,0,1,2,2.67,10,10,0,0,1,2.52,6.77,16.15,16.15,0,0,1-.68,4.68,23.72,23.72,0,0,1-.92,2.62,19.2,19.2,0,0,1-1.56,2.69c0.82-2.08-.43-0.87-0.87-1.33a5.77,5.77,0,0,0,1.29-1.57,15.21,15.21,0,0,0,1-2.36,27.64,27.64,0,0,0,1.13-5.86,2.8,2.8,0,0,1-.39,1.51c-0.11.06-.15-0.2-0.19-0.46v0.3l-0.09.81a8.16,8.16,0,0,1-.19,1.16,13.2,13.2,0,0,1-.31,1.34c-0.23.92-.56,1.83-0.8,2.52-0.12.36-.21,0.57-0.3,0.76l-0.13.28c-0.34-.37-1.08,1.05-2.58,2.75,0.71-.3.35,0.45-0.38,1.83a7.55,7.55,0,0,0-1,1.68,16.17,16.17,0,0,1-1,1.68c-0.72,1.12-1.55,2.11-2.16,3-0.2,0-.23-0.26.13-0.87s1.07-1.49,2.08-3a16.21,16.21,0,0,0-2.67,3.77c-0.33.65-.6,1.28-0.95,1.91a8.57,8.57,0,0,1-.6.94,3.73,3.73,0,0,1-.65.71,4.91,4.91,0,0,1-.58.12l0.52-.2a1.15,1.15,0,0,0,.38-0.64,3.77,3.77,0,0,1-.4.6c-0.19.09-.4,0.19-0.63,0.28s-0.66.24-1,.35a18.54,18.54,0,0,1-1.92.5l-0.77.13-0.3,0h-0.16c-0.17,0-.19-0.07,0-0.17l0.83-.21-0.59.13a2.83,2.83,0,0,1-.42.08l-1.2,0h-0.45a1.24,1.24,0,0,1-.4-0.19l-1.29-.74c-1.91-1.09-3.93-2.23-5.82-3.25-3.78-2-7-3.63-7.65-3.51a3.62,3.62,0,0,1,1.69-.41l-8-2.33-3.17-1.83c0-.91-0.2-2.09,3.21-0.45a41.94,41.94,0,0,0-5.9-3.37c0.87,0.62,1.77,2.24.48,1.57-3.05-2.7-2.19-1.76-6.1-4.84,1.3,0.94-.81,1-3-0.26,0.43,0,.38-1.09,1.24-0.72L75,235c1.46,0.61.72-.69-0.34-1.67,0.45,0.52-4.69-2.75-6.19-3.49l2.17,1.57a24,24,0,0,0-6.45-2.92c-0.86-.26-1.71-0.52-2.73-0.93-0.51-.21-1.06-0.46-1.67-0.76s-1.28-.69-2.11-1.06a1.3,1.3,0,0,0,1.23-.31c0.13-.29-0.23-1-2.23-1.7a12,12,0,0,0-2.29.29,10.6,10.6,0,0,0-3.18,1.32l-0.36.25a8.73,8.73,0,0,0-4.62,3.95,9,9,0,0,0-.73,1.6,7.94,7.94,0,0,1,.25-1.32,9.22,9.22,0,0,1,2.52-4.28,9.11,9.11,0,0,1,4.15-2.3c-1.63.11-1.88,0.2-2.33,0.25a6.7,6.7,0,0,0-1,.34,9.89,9.89,0,0,0-2.19,1.38c-0.76.48-.38-0.11,0.52-0.82a9.36,9.36,0,0,1,3.08-1.61,10.65,10.65,0,0,0-1.81.67,11.44,11.44,0,0,0-3.4,2.49,12.7,12.7,0,0,0-2.3,3.46,10.08,10.08,0,0,0-.49,1.32l-0.15.52c0.19-.1.19,0.44,0.17,1.29a13.15,13.15,0,0,0,.34,3.12c0.52,2.26,1.93,4,2,3.66a10.32,10.32,0,0,1-1-1.62,10.12,10.12,0,0,1-1-4.13,11,11,0,0,1,.77-4.26,11.69,11.69,0,0,1,.62-1.29l0.27-.47c0.47,0-.41,1.68-0.62,4.38a11.12,11.12,0,0,0,.64,4.47,11.92,11.92,0,0,0,2.77,4.25c0.56,0.7.13,0.71-.49,0.54a6.65,6.65,0,0,0-1.41-.5,20.55,20.55,0,0,0,3.3,2.47,26.57,26.57,0,0,1,2.89,1.72l-2.58-1.1c3,2.06,5.59,2.24,9.05,5,1.28,0.8,3.46,3,3.89,2.82a2.85,2.85,0,0,1-.74-3.21L65.82,251l-0.36.13,0.86,0.5,0.11-.27L71,254c0.39,0.9-4.12-.91-2.71.45a6.59,6.59,0,0,1,2,.62c1.29,0.94-.86.16,2.17,1.83,0.84-.3,6,3.6,1.7.33,3,1.54,3,1.94,6.47,3.92-0.6-.7,1.47-0.19,3.8.71l3.33,1.95,0.28,0.3c5.95,3.55,9,5.7,14.58,9,0.43,0.44,3,2.19,1.72,1.77l1.5,0.6a3,3,0,0,1,1.34,1.2c0.33,0.81.28,1,.18,0.89s-0.35-.58-0.68-1a2.25,2.25,0,0,0-.9-0.76c-0.22-.06-0.21,0,0,0.45a1.35,1.35,0,0,1,1,.7,5.06,5.06,0,0,1,1.09,2.37l0.31,3.22a7.89,7.89,0,0,0,.2-3.23,5.32,5.32,0,0,0-2.54-3.91l-0.66-.32a0.87,0.87,0,0,1,.91-0.09,2.18,2.18,0,0,1,.92.32,6.63,6.63,0,0,1,1.83,4c0.17,5.39.19,10.77,0.22,16.16-0.11,2-.11,5.36-0.07,9.08,0,1.22,0,2.48.08,3.75a17.84,17.84,0,0,0,.61,3.75,9,9,0,0,0,1.68,3.25,5.73,5.73,0,0,0,5.53,2.3,15.31,15.31,0,0,0,1.95.08c5.12-.11,8.15-4.38,8-11,0-.79,0-1.58,0-2.37v-0.23q0-3.35-.06-6.69c0.08,0.12.17,0.15,0.26,0l-0.28-3.83c0.11-.07.3,1.31,0.4,0.25a3.33,3.33,0,0,1-.41-1.59q0-2.66,0-5.32c0-.12,0-0.25,0-0.37s0-.22,0-0.33q0-2.22,0-4.44s0-.05,0-0.08,0-.37.05-0.66,0-.76,0-1.14c0-.21,0-0.41,0-0.61-1.28-10-.88-10.62,9.92-15.07,1.22,3.06,1.79,6.72,3.84,9.09,2.69,3.1,6.5,5.25,9.94,7.65a6.19,6.19,0,0,0,3.27.88c8.23,0.15,11.45,5,14.39,12.27,4.62,11.32,21,22.1,36.11,25.89a23.29,23.29,0,0,1-.24,3.25l-1.66,7.94c-0.71,1.39-1.47,2.89-1.85,2.57,0,4-3.37,9.83-3.52,16.36-0.48,1.34-.05-1.25-0.42-0.55a14,14,0,0,1-.22,2.88,22.31,22.31,0,0,1-1,4.09v-0.39c-0.62,2.28-1.67,3.85-3,4.55a7,7,0,0,1-4.59.49c-0.83-.13-1.7-0.35-2.69-0.6l-3-.75-7.29-1.76,0.74,0.64a34.23,34.23,0,0,1-4-1.18c-2.92.12,6.78,1.47,4.09,1.72-3-1.62-17-3.62-19-5.15-3.72-.79,1,0.77-2.74,0l-0.92-.5-1,.18c-2.42-.58-3.58-1.2-3.62-1.46,0.59,0.15,1.7.29,2.33,0.4-2.87-.94-8.13-1.66-9.71-2l3.24,0.86c-10.21-1.87-22.51-4.87-32.44-6.36l0.7,0.38c-7.57-1.18-5.95-1.51-14.21-3.06H98.4a46.31,46.31,0,0,1-6.16-1c2.13,0.18-3.8-1.32-1-1-8.21-1.28-4.09-.51-9.62-0.83L80.44,339a26,26,0,0,1-6.21-.69c3.43,0.4-2.5-1.11,1.36-.72-8.45-2.61-13-1.9-16.67-3.9-4.17.17,7.34,2.13,5.08,1.88,1.79,0.72-3.42.06-6.11-.61s-4.41-2.27-11.33-3.72c0.69,0.15.75,0.08,1.44,0.23-2.54-.8-5.15-0.73-8.24-1.81a9.29,9.29,0,0,1-2.85-.28,2.34,2.34,0,0,0-1.8,0s0.35,0.11.91,0.23l1,0.2L38.15,330l3.19,0.58c-1.8-.29-3.68-0.35-5.65-0.62a10.13,10.13,0,0,1-3-1,4.84,4.84,0,0,1-2.36-2.64c0.18,0.14.45,0.55,0.85,0.91,0.19,0.19.44,0.35,0.66,0.53s0.48,0.31.72,0.42a11.25,11.25,0,0,1-1.42-1.46,3.55,3.55,0,0,1-.67-2,2.31,2.31,0,0,1,.67,1,4.87,4.87,0,0,0,1.36,1.66,8.05,8.05,0,0,0,2.76,1.3,12.4,12.4,0,0,0,1.61.33c0.54,0.08,1.11.14,1.6,0.17a12.29,12.29,0,0,0-1.83-.47,19,19,0,0,1-1.94-.45c-1.12-.35-1.68-0.69-0.81-0.72a2.66,2.66,0,0,1-2.6-2.12,9.29,9.29,0,0,1-.25-2.41L31.12,320l0.41,0.38a29,29,0,0,1,.45-3.68l0.09,2.61c0.27-3.92,1.94-7.26,2.39-11-1.51,7.65-.9,1.6-1.89,4.77,1.25-9.43,2.25-5.31,4.12-15.37-0.33,1.62-1.28,4.73-1.06,2.64a50.4,50.4,0,0,1,1.73-5.76c1.39-7-.71,1-0.36-2.05,1.08-2.24.5-3.45,1-6.53l0.48,0.09c2.18-7.77-.51-2.33,1.64-9.28L40,280l0.78-3.72,0.33,0.91,0.81-4.93c0.22-1.4.51-2.78,0.72-4.92-0.44,1-.72-0.62-0.82-4.33,0.08-1.27.21-.93,0.28-0.92a0.62,0.62,0,0,0,0-.49c0-.41-0.08-1.16-0.23-2.48a8,8,0,0,1,.54,4.82c0.16,0.24.32,1.2,0.45,1.45,0.46-2.81-.25-7.06-0.62-9a13.9,13.9,0,0,1,.2,2.1l-0.27-1.19c-0.19-.71-0.41-1.66-0.71-2.58-0.55-1.86-1.25-3.65-1.25-3.65-0.16-1.21.24-.33,0.64,0.55-0.48-1.49-1-2.46-1.78-4.58,0.55,0.43.94,0.13,2.08,3.21,0,0-.62-1.75-1.35-3.44l-1.41-3.25c0-.5-0.78-3.54-0.33-2.73-1.09-3.73-3.88-8.74-5.23-13.74a10,10,0,0,1-.8-1.74c-1.46-4.63-2.35-8.88-4.67-14.19l-0.37-3.33c-1.59-4.24.57,4.49-2.07-2.57-1.91-5-.07-2.08-0.48-3.92a27.55,27.55,0,0,1-2-4.51,6.85,6.85,0,0,1,.45-5.45,9.7,9.7,0,0,0-.51,3.34,7.86,7.86,0,0,1,.28-1.42,8.06,8.06,0,0,1,.5-1.29,10.39,10.39,0,0,0,.21,3.74c0.21,0.73.23,0.61,0.39-.69-0.35-.07-0.58-0.78-0.55-1.76A6.72,6.72,0,0,1,24.55,190l0.77-1.17c0.27-.42.51-0.83,0.75-1.23,0.46-.8.84-1.55,1.14-2.2,0.6-1.31.88-2.23,0.64-2.51l0.7-1,0.7-1c-0.34.58-.32,0.71-0.66,1.29a14,14,0,0,0,1.36-2.13,9.38,9.38,0,0,0,.52-1.41,6.68,6.68,0,0,1,.24-0.7,8.6,8.6,0,0,1,.45-0.8,6.27,6.27,0,0,1,2.21-1.89,6.44,6.44,0,0,1,2-.69c0.39-.06.42,0-0.12,0.31l0.56-.27a13.59,13.59,0,0,1,1.3-.44l0.72-.18,0.64-.1a4,4,0,0,1,.63-0.08c1,0,.93.2,0.23,0.23h0.45a12.93,12.93,0,0,1,2.08.25,12.14,12.14,0,0,1,2.9,1H44.66a14.14,14.14,0,0,1,2,.73l2.15,0.9c1.5,1.11-.87-0.35-0.55,0l3.65,1.76c1.24,1.14-1.81-.26-4.19-1.72,2.57,3.08,3.06,1.4,9.68,6.2l-3.37-1.78c1.73,1.91,4.44,3.17,7.91,5.77-0.76-.73-6.83-5.41-2.88-3.49a25.43,25.43,0,0,0,4.57,2.54c-0.22.43,1.83,1.49,4.33,2.93l-0.49.45c2.78,1.42,2.74,1,4.46,1.7,3,1.82,3.34,2.61,3.84,3.38,4.75,2.91-2.92-2.63,2.83.6a98.12,98.12,0,0,0,11.79,6.45c2.7,1.82-.69.05,0.23,0.8l2.75,1c0.6,0.36.33,0.39,0.19,0.4,2.2,1,.49-0.45,3.88,1.31,1.24-.09,6.25,4.82,10.73,6.49,0.92,0.74-.68.06-0.5,0.45,5.86,2.79,5,2.45,9.94,4.51l3.71,2.64c-2.64-2.09,1.32-.45,4.77,1l-0.32-.28ZM55.47,181.82c1.34,0.14,2,.85,3.53,1.92C58,183.29,56,182.47,55.47,181.82Zm8.18-81.64c-0.75-1.67,1.51-4.2.45-6.93,0.23-.58.28,0.52,0.52,0.22a4.44,4.44,0,0,1-.13-3l0.09,0.18c0.15-4.24.66-6,1.21-10.77l-0.49.32a6.21,6.21,0,0,1,.43-1.7c-0.65-1.22-.21,2.87-0.94,1.75,1-1.3.44-7.21,1.59-8.06,0.1-1.57-.57.43-0.48-1.14l0.32-.4-0.36-.42c0.12-1,.52-1.52.78-1.55a6.56,6.56,0,0,0,0,1c0.43-1.32.1-3.78,0.24-4.23l-0.27,1.5c0-4.31.68-9.53,0.32-13.71l-0.24.3c-0.23-3.19.4-2.52,0.41-6l0,0.13A8.17,8.17,0,0,1,67,45c0.21,0.89.61-1.62,0.83-.45-0.24-3.46-.25-1.72-0.94-4l0.4-.5a4.63,4.63,0,0,1-.43-2.59c0.2,1.42.65-1,.94,0.56a12.74,12.74,0,0,0,.54-4.11,3,3,0,0,1,.84-2.56c-0.31-.89-0.64-0.2-0.85.62S68,33.74,68,33.27c-0.47.7-.53-1.48-0.15-2.55a4.13,4.13,0,0,1,1.09-1.51,8.13,8.13,0,0,0,.79-1,11.82,11.82,0,0,0,.78-1.44c-0.1.21,0,.26-0.13,0.47A4.38,4.38,0,0,0,71,26a1.83,1.83,0,0,1,.95-1,1,1,0,0,1,.47-0.85,0.56,0.56,0,0,0,.27-0.73l-0.28.23a6.06,6.06,0,0,0-.57.53c-0.2.2-.37,0.43-0.51,0.58L71.1,25a9.54,9.54,0,0,1,1.1-1.79A3.71,3.71,0,0,1,74.7,22a10,10,0,0,1-1.06.91c0.66,0,1.1-.61,1.83-0.53,0,0.41-.68.6-1.42,0.93a3.3,3.3,0,0,0-1.79,1.5,3.71,3.71,0,0,0,1-.81c0.34-.3.61-0.41,0.51,0.1a1.45,1.45,0,0,1,1.41-1,6.09,6.09,0,0,0,2.28-.64l-0.08.48a3.67,3.67,0,0,1,1.34-.33l-0.46.31c-0.23.15-.44,0.32-0.44,0.32a2.13,2.13,0,0,1,1-.17A7.58,7.58,0,0,1,80,23.2a6.21,6.21,0,0,0,2.29.22c-3.23,0-.71-0.58-2.07-1,3.92-.55,2.35,1.2,6.46,1.14-0.71,0-1.88-.35-1-0.53a9.94,9.94,0,0,1,2.48.57c3,0-.44-0.5.82-0.77a1.3,1.3,0,0,0,1.26.1,5,5,0,0,1,1.43-.44l0,0.48a6.39,6.39,0,0,0,1.42.13,0.7,0.7,0,0,0,.48-0.25c0.2-.22.39-0.43,1.68,0.08l-0.65.19-0.62.19s1.38,0.14,1.37.18L94.89,24a4.19,4.19,0,0,1,1.65.31,5.27,5.27,0,0,1,.65.34l0.72,0.53c0-.22.1-0.39,0.41-0.42a2.19,2.19,0,0,1,1.27.55c0.45,0.82-.63,0,0.68,1.2a1.36,1.36,0,0,1-1.33-.92c-0.16.08-.5,0-0.65,0.09,0.54,0.72,1.54,1.48,1.93,1.95a2.69,2.69,0,0,1-.34-0.56,6.87,6.87,0,0,1,1,.76,4.71,4.71,0,0,1,.65.62l0.29,0.31c0,0.44-.25.22-0.53,0a6.48,6.48,0,0,1,1,1.35,1.27,1.27,0,0,1-1.26-.57c0.12,0.17.31,0.49,0.54,0.82l0.55,1.07c-0.14.21-.22,1.3-0.43,1a14.09,14.09,0,0,0,.45,2.32,8.59,8.59,0,0,1,.08,3.16,1.9,1.9,0,0,1,.17.8c-0.19,2-.75,3.77-0.33,6.17l-0.77,1.33c0.07,1.87,1-1.8,1.09,1.32,0.12,2.21-.64.8-0.87,1.56a8.42,8.42,0,0,1,.26,5,14.17,14.17,0,0,1,0-1.82l-0.46,1.52c-0.55-1.89-.27-3.22-0.88-1.8,1.35,0.28-.15,6,1.2,6.27l-0.33,1c0-.29-0.05-0.34,0-0.63-0.74,1.94.91,1.52,0.6,4.05-0.15.88-.38,1.49-0.51,0.88l0.23,2c0,0.48-.21.45-0.23,0.1l0,2.78,0,0a15.89,15.89,0,0,1,.58,1.92c-0.24.76-.12-0.39-0.3-0.21l0.24,1.69c-0.39.66-.65-0.74-0.54-1.89-1.44,1.49.27,1.41-.71,4.73l-0.09-1.59c-0.82,1-.61,2.22-1.19,4,0.27-.41,1.4-3.51,1.64-1.68a4.44,4.44,0,0,0,0,2.17c-0.48,0-.42.95-0.45,2.14l-0.63-.12a4.92,4.92,0,0,0,.69,2,2.23,2.23,0,0,1-1.09,2c-0.23,2.3.88-1.55,0.85,1.19a17.42,17.42,0,0,0,.1,5.58c-0.29,1.33-.38-0.26-0.59.22l0.45,1.22c0,0.29-.18.19-0.26,0.14,0.14,1,.63.12,0.72,1.7,0.68,0.46-1.2,3.18-.51,5.18-0.21.47-.38-0.25-0.63-0.12a24.65,24.65,0,0,0,.84,4.55l-0.52,1.85c0.55-1.35,1,.44,1.41,2l0.11-.21,0,0.54-0.08-.33-0.15.27,0.21,0.37L101.31,109a1.19,1.19,0,0,1-.59-0.72l0.44-.86c-0.36-.63-0.75-1.22-1.14-1.11a3,3,0,0,1,.13.82c-0.1-.16-0.19-0.27-0.25-0.2a1.47,1.47,0,0,0,.2.75l-0.74.52,0.28,0.15L99,111.54c0.59,2.34,1.54,4.4,1.64,8.07-0.47-.93-0.84-0.24-1.46-0.32,0.71-1-.13-2.84.11-4.73-0.12,1-.41.75-0.49,0.49l0.41,3.41c-0.5-.1-0.42.7-0.67,1.57,1-.61.53,2.55,0.77,3.94-0.34.07-.67-0.28-0.5-2-0.85,1.81,1,2.45.31,4.23a1.07,1.07,0,0,0-.09-0.8c0.25,1-.11,3.3-0.38,2.73v-0.41c-0.26,2.71-.45,8.27.38,8.72a3.77,3.77,0,0,1-1.17-.58l1.79,3.45-0.08,1.52c-0.79.15-1.73,0.41-1.93-1.17a7.27,7.27,0,0,0-.12,2.81c0.13-.44,1.11-1,1.15-0.44a15.79,15.79,0,0,0-1.3,3.13c0.19-.65,1.3.14,1.2,1.19-0.16-.17-1.13,0-1.23-0.36l1,2.66c-0.17-.66-0.95-0.17-1.29.4,0.23-.26-0.14,2.25-0.07,2.95L97.32,151c-0.33,2.93,1.42,3,1.21,5.9-0.21-.37-1.38-0.95-1.6.53a21.64,21.64,0,0,1,1.67,2.4l-0.17,3.27a39,39,0,0,1-1.71-4.19c-0.32,1.09-.4.29-0.46,1.93-0.34.56-.42-0.92-0.41-1.41l-0.4,3.82c0.68-.13.52,3,1.08,2.85L96,161.86c0.68-.13,1.78,2.51,1.51,5.22-0.3.68-1.17-.58-1.39-0.54a7.1,7.1,0,0,1,.13,2.84L96,168.22c-0.33,1.5.76,2.52,0,4.3-0.08.62-1,1.83-.57,2a3.15,3.15,0,0,1,2.42-.8l-0.11,2.14-0.26-.11v0.41h0.26q-0.06,1.09-.12,2.18a1.77,1.77,0,0,1-.74-0.76c-0.32-.45-0.65-0.73-0.92-0.53a1.24,1.24,0,0,1,.45.68c-0.18.35-.55-0.42-0.51,0.43,0.68,0.68-.42,1.73.49,0.9a1.86,1.86,0,0,1-.22,1,3.23,3.23,0,0,0-.18.34,2,2,0,0,0-.09.25s0,0.15-.06.11l-0.17-.1a0.84,0.84,0,0,1,.09,1.15,0.78,0.78,0,0,1-.42.13l-1.5-.89-0.09-.14c-2.39-1.5-3.58-2.56-5.87-3.94-0.13-.27-1.14-1.1-0.51-1.07a4.16,4.16,0,0,1-1.53-.48c-1.07-1.32,1.63.86,0.95-.37-0.29.29-2.12-.62-3.25-1,0,0.71,2.28,1.49,3.42,1.88a1.26,1.26,0,0,1-1.12.4l-7-4.13c-1.12-1.11-6-3.63-8.41-5.56a3,3,0,0,0-1.27-.22q-3.52-2.11-7-4.24h0l-0.6-.36a4,4,0,0,1-1.29-1.56,0.23,0.23,0,0,0,.19-0.11,6.92,6.92,0,0,1-.43-0.66,5.73,5.73,0,0,1-.27-0.52l-0.06-.2c0.12,0,.38.4,0.38,0a0.7,0.7,0,0,1-.46-0.46,4.12,4.12,0,0,1-.06-0.78c0-.51,0-1,0.07-1.52,0,0,0-.1,0-0.15s0-.06,0-0.09c0-.63.06-1.26,0.09-1.89a1.8,1.8,0,0,0,.07-0.3,4.08,4.08,0,0,1,0-.52q1.06-24.18,2.41-48.34l0.19-3.37C62.75,100.71,63.22,100.07,63.65,100.19ZM78.22,171.8l0.3,0.18Zm22.71-96.43c-0.08-.45-0.34-1.36,0-1.67C101.41,74.24,101.13,74.62,100.93,75.37Zm-0.55,33.7a4.42,4.42,0,0,1-.18,1.42A2.13,2.13,0,0,1,100.38,109.07Zm171.88,113c-0.14,1.56-3.14,2-3.51,4.41-0.45.26,0-.51-0.32-0.45a3,3,0,0,1-1.26,2.11V228c-2,2.78-3.28,3.69-5.88,6.57l0.55,0.07a4.24,4.24,0,0,1-1.12.9c0,1.19,1.47-1.81,1.56-.64-1.44.28-3.63,4.61-5,4.52-0.79,1,.66,0-0.13,1l-0.44.08,0.1,0.49a1.3,1.3,0,0,1-1.34.6,4.36,4.36,0,0,0,.42-0.68c-0.95.64-1.8,2.49-2.12,2.71l0.9-.86c-1.94,2.92-4.88,6-6.49,9.07l0.33-.06c-1.27,2.28-1.47,1.47-3.06,3.82l0-.11a5.47,5.47,0,0,1-1.05,1.84c0.24-.72-1.23.74-0.88-0.17-1.38,2.47-.58,1.3-1.07,3.27l-0.55.11a3.44,3.44,0,0,1-.81,2c0.47-1.11-1,.36-0.53-0.92-2.47,1.83-2.07,4-3.85,4.31,0,1.71,2-1.67,1.73-.93,0.66-.3-0.09,1.36-0.75,2s-2,.46-3.48,2.34c0.15-.18.1-0.24,0.25-0.43-0.76.54-.8,1.6-1.81,2.19,0.11,0.87-.9,1.1-0.39,1.73l1.21-1.83c-0.6,1.1-.59,2.59-2.21,3.92a4,4,0,0,1,.35-1.23c-0.55.33-.59,1-1.16,1.34-0.51-.63,1.5-2.2,1.85-3.62-0.66.3-1.1,2.33-1.36,1.28,0.26,1.43-1.56,1.76-1.9,3.55l-0.31-.38a4.15,4.15,0,0,1-.55,1.17l0-1.05c-0.39,1.35-1.91,1.7-2.46,2.86,1.61-2.07.81-.11,1.77-0.77-1.5,2.94-2.12.7-4.18,3.69,0.25-.43,1.36-1.27,1.06-0.53a6.8,6.8,0,0,1-1.66,1.27c-1.4,2,.61,0,0.21,1-1,.28-0.54,1.07-1,2l-0.38-.29c-1.93,2,.34,1.2-1.47,2.9l0.12-1.24-0.66,1.12-0.27-.55a6.23,6.23,0,0,1-1.86,2.61c0.46,0,.58.71-0.15,1.58-0.73.39,0-.62-1.08,0.62a1.07,1.07,0,0,1,.79-1.24c-0.08-.16,0-0.46-0.09-0.62a9.13,9.13,0,0,0-1.8,1.88,2,2,0,0,1,.51-0.36s-0.27.53-.58,1.06-0.63,1.05-.63,1.05c-0.4.12-.27-0.19-0.16-0.49a10.59,10.59,0,0,1-.92,1.24,1.19,1.19,0,0,1,.2-1.48l-0.69.9-0.72.89c-0.22,0-1.2.37-1.06,0.07a6.8,6.8,0,0,0-1.62,1.58,11.52,11.52,0,0,1-.9,1,5.52,5.52,0,0,1-.51.42,1.84,1.84,0,0,1-.23.15l-0.1,0a0.27,0.27,0,0,1-.1.28,6.32,6.32,0,0,1-1.59,0,10,10,0,0,0-1,0l-0.6.06-0.24,0-0.19.05s-0.11-.2-0.19-0.38l-0.27-.47c-0.52-.09-0.36.2-0.26,0.48s0.15,0.58-.89.33c-1.54-.46-0.28-0.79-0.69-1.19a8.27,8.27,0,0,1-1.69-.24,3.58,3.58,0,0,1-1.8-1.25,12.19,12.19,0,0,1,1.22.68l-0.39-.47-0.39-.48c1.54,0.21,2.25.91,1.63-.12-0.42.53-1.4,0-2.36-.65s-1.9-1.31-2.39-.8l-0.23-.35-0.22-.36c0.17,0.15.25,0.11,0.42,0.26-0.79-1.48-1.53.08-2.94-1.38-0.47-.54-0.71-1-0.24-0.81,0,0-.35-0.18-0.69-0.39l-0.69-.4c-0.32-.32-0.07-0.42.24-0.1l-0.91-.76-0.88-.79,0,0a7.82,7.82,0,0,1-1.52-.58c-0.27-.57.31,0.12,0.33-0.11l-0.57-.36-0.56-.37c-0.08-.63.87-0.05,1.46,0.62,0.2-1.79-1.07-.55-2-3l0.4,0.4,0.44,0.39a2.52,2.52,0,0,0-.29-1.33c-0.09-.2-0.23-0.42-0.31-0.65a3.91,3.91,0,0,1-.16-0.73,8.85,8.85,0,0,0-.07,1.27c0,0.52-.11.92-0.64,0.49A2.38,2.38,0,0,0,185,284a0.35,0.35,0,0,0,.21-0.45,2.28,2.28,0,0,0-.14-0.31l-0.17-.54,0.63-.1a3.75,3.75,0,0,0-1-1.09,1.22,1.22,0,0,1,.9-1.35c0.09-.67-0.12-0.46-0.36-0.26s-0.51.4-.51-0.5a34.1,34.1,0,0,0,.68-3.73c0.63-.77.27,0.32,0.59,0.09l0-.49,0-.5c0.12-.18.22,0,0.27,0,0.21-.73-0.55-0.37-0.05-1.48-0.21-.33.35-0.72,1-1.21a3.56,3.56,0,0,0,1.59-2c0.38-.2.19,0.39,0.46,0.45a17,17,0,0,0,1.4-3.55l1.27-.94c-1.07.59-.63-0.89-0.23-2.17l-0.18.07,0.27-.34-0.08.27,0.24-.1v-0.37l0.61-.78a1.1,1.1,0,0,1,.15.83l-0.75.32a1.55,1.55,0,0,0,.41,1.41,2,2,0,0,1,.27-0.62c0,0.17,0,.29.11,0.28a1,1,0,0,0,.19-0.62l0.84,0.08-0.15-.26,2-1.79c0.59-1.92.76-3.85,2.36-6.38,0,0.9.57,0.65,1,1.07-1,.23-1.2,2-2.25,3.12,0.55-.59.67-0.27,0.63,0l1.22-2.53c0.36,0.36.66-.23,1.27-0.66-1.12-.19.74-2,1.18-3.1,0.31,0.15.41,0.58-.49,1.6,1.52-.72.27-2.26,1.69-3a0.74,0.74,0,0,0-.3.59c0.24-.8,1.6-2.15,1.56-1.62l-0.2.27c1.46-1.67,4.15-5.3,3.69-6.08a4.27,4.27,0,0,1,.68,1.07l0.12-3.37,0.76-1c0.71,0.36,1.6.73,1,1.91a4.82,4.82,0,0,0,1.38-1.82c-0.3.22-1.38,0.05-1.13-.37a11.34,11.34,0,0,0,2.49-1.35c-0.45.33-1-.85-0.44-1.5,0.05,0.21.93,0.64,0.84,1l0.42-2.36c-0.17.54,0.69,0.66,1.23,0.48-0.31,0,1.14-1.43,1.4-1.94l-0.76.55c1.61-1.78.21-2.84,1.72-4.67a0.89,0.89,0,0,0,1.54.58,18.63,18.63,0,0,1-.26-2.61l1.64-2.1a29.63,29.63,0,0,1-.53,3.85c0.76-.54.46,0,1.26-1,0.53-.18-0.08.86-0.31,1.19L222,229.7c-0.61-.31.94-2.3,0.42-2.55l-1.54,3.1c-0.61-.31-0.29-2.72,1.16-4.39,0.56-.28.68,1.07,0.89,1.17a4.75,4.75,0,0,1,1.2-2l-0.29,1c1-.81.54-2.13,2-2.9,0.35-.38,1.62-0.67,1.36-1a3.58,3.58,0,0,1-2.35-.88l1.08-1.38,0.18,0.24,0.2-.27-0.23-.16,1.09-1.39c0.6,0.17.18,1.86,0.93,1.64a1.31,1.31,0,0,1,0-.84c0.45-.33.31,0.53,1-0.44-0.42-.57,1.5-1.83-0.11-0.79,0.55-1,.86-0.87,1.66-1.94-0.41,0-.46-0.84-0.28-1.73l0.84-1.08,0.14,0c1.49-1.8,2.5-2.6,3.85-4.31,0.25-.06,1.06-0.76,1-0.23a2.88,2.88,0,0,1,.49-1.23c1.26-.66-0.85,1.24.32,0.89-0.26-.31.64-1.71,1-2.61-0.66-.15-1.45,1.67-1.85,2.58a1.23,1.23,0,0,1-.34-1l4.26-5.43c1.16-1,3.45-4.39,5.19-6a4.11,4.11,0,0,0,.29-1,12.41,12.41,0,0,1,7.63-4.29,0.28,0.28,0,0,0,0,.22l0.61-.22,0.49-.14h0.13c0,0.12-.38.3-0.05,0.37a0.65,0.65,0,0,1,.46-0.4,17.87,17.87,0,0,1,1.87,0l0.1,0,0.07,0c0.51,0,1,.09,1.56.17l0.21,0.08a1,1,0,0,1,.32,0l0.73,0.13c5.76,4,13.82,7.67,18,15.67,2.46,4.69.93,9.54-2.16,13.51l-1.69,2.17A1.82,1.82,0,0,1,272.26,222.08ZM198.9,137.37l-0.85.4c0.91-1.85,1.55-2.75,1.76-2.78C199.54,135.58,199.2,136.54,198.9,137.37ZM48.12,21.47c0.15-.57.42-1.16,0.64-1.74s0.46-1.15.71-1.62A7,7,0,0,1,50.22,17a9.23,9.23,0,0,1-.47,1.37,11.71,11.71,0,0,1-.54,1.33c-0.21.45-.46,0.92-0.73,1.44S48,22.3,47.72,23ZM41.29,145.1c0,1.51-.16,3.29-0.39,5.11A26.62,26.62,0,0,1,41.29,145.1ZM190,380.94h-0.23q0.69,0,1.37-.12C190.71,380.87,190.3,380.93,190,380.94Z"/>
    <path class="cls-1" d="M192.27,291.62l0.46,0.25A2.74,2.74,0,0,0,192.27,291.62Z"/>
    <path class="cls-1" d="M189.59,289.09l-0.2.08C189.58,289.21,189.69,289.2,189.59,289.09Z"/>
    <path class="cls-1" d="M191.73,266.14a5.17,5.17,0,0,0,.85-0.63Z"/>
    <path class="cls-1" d="M207.72,297.7l-0.22.17a0.07,0.07,0,0,0,0,0,0.25,0.25,0,0,0,0,.1c0,0.07.11,0.16,0.16,0.25a1.93,1.93,0,0,0-.06-0.22A2.21,2.21,0,0,1,207.72,297.7Z"/>
    <path class="cls-1" d="M255.92,240.94l0.15-.1S256,240.84,255.92,240.94Z"/>
    <path class="cls-1" d="M231.24,213.09l0,0C231.37,213.06,231.34,213.07,231.24,213.09Z"/>
    <path class="cls-1" d="M231.68,273.75l0.1-.06C231.94,273.18,231.83,273.38,231.68,273.75Z"/>
    <path class="cls-1" d="M209.35,244.25s0,0,0-.06l-0.06,0h0Z"/>
    <path class="cls-1" d="M208.51,245.86a1.89,1.89,0,0,1,.81-1.62l-1.35-.31Z"/>
    <path class="cls-1" d="M192.46,265.33a0.44,0.44,0,0,1-.3,0C192.14,265.45,192.21,265.51,192.46,265.33Z"/>
    <path class="cls-1" d="M207.7,298.36h0a0.36,0.36,0,0,0,0-.08v0.08Z"/>
    <path class="cls-1" d="M228.6,219.56a1.7,1.7,0,0,1-.61.37C228.07,220,228.24,220,228.6,219.56Z"/>
    <path class="cls-1" d="M248.4,192.27L249,192a4.11,4.11,0,0,1,.56-0.22l-0.37.07Z"/>
    <path class="cls-1" d="M240.91,202.47l0.19-.64a1.19,1.19,0,0,1-.66.22Z"/>
    <path class="cls-1" d="M238.85,205c0.05,0.21-.79,1.81.21,0.47C239,205.21,239.71,204.08,238.85,205Z"/>
    <path class="cls-1" d="M217.14,234.14c-0.38.9-.8,1.2,0,1.27,1.15-1.08-.27-0.68.84-1.6C218,233.37,217.07,234.56,217.14,234.14Z"/>
    <path class="cls-1" d="M217.14,234.14a4.55,4.55,0,0,0,.17-0.47A2,2,0,0,0,217.14,234.14Z"/>
    <path class="cls-1" d="M186,283a0.38,0.38,0,0,0,0,.45l0.19-.45H186Z"/>
    <polygon class="cls-1" points="193.39 292.49 193.6 291.93 193.44 291.77 193.39 292.49"/>
    <path class="cls-1" d="M202.33,297.28c0.16,0.16.24,0.21,0.34-.15a10.23,10.23,0,0,1-1.13-.47A2.28,2.28,0,0,1,202.33,297.28Z"/>
    <path class="cls-1" d="M34.63,175.23l-0.55.33c0.53-.3.86-0.5,1.13-0.62L35,175A2.55,2.55,0,0,0,34.63,175.23Z"/>
    <path class="cls-1" d="M44.36,175.45l0.3-.07C44.21,175.27,44,175.26,44.36,175.45Z"/>
    <path class="cls-1" d="M121.34,219.46c0.54,0.43,1.34,1,2.48,1.76Z"/>
    <path class="cls-1" d="M33.05,227.25l1,1.6C33.14,226.13,33.33,227.39,33.05,227.25Z"/>
    <path class="cls-1" d="M150.51,352.68l0.49,0.16A0.61,0.61,0,0,0,150.51,352.68Z"/>
    <path class="cls-1" d="M88,264.12l-0.11-.07A0.59,0.59,0,1,0,88,264.12Z"/>
    <path class="cls-1" d="M33.44,328.64c-0.1,0-.46-0.19-0.89-0.4l0.21,0.17A1.16,1.16,0,0,0,33.44,328.64Z"/>
    <path class="cls-1" d="M94.42,244.9l-0.16-.07L94.45,245Z"/>
    <path class="cls-1" d="M99.18,247.27A15.06,15.06,0,0,1,94.45,245l0.89,2Z"/>
    <path class="cls-1" d="M36.7,297.75c0-.14.05-0.27,0.07-0.38Z"/>
    <path class="cls-1" d="M39.28,174.09h0Z"/>
    <path class="cls-1" d="M140.8,350.65l-0.29-.08Z"/>
    <path class="cls-1" d="M124.11,221.15a0.74,0.74,0,0,1-.27-0.46C123.43,220.54,123.38,220.62,124.11,221.15Z"/>
    <path class="cls-1" d="M33.05,227.25l-0.19-.3,0,0.16A0.39,0.39,0,0,0,33.05,227.25Z"/>
    <path class="cls-1" d="M69.82,255.69a12.3,12.3,0,0,1-1.59-1.22C68.13,254.54,68.48,254.87,69.82,255.69Z"/>
    <path class="cls-1" d="M126.8,309.51c0.06-.33.1-0.56,0.1-0.56s-0.06.26-.12,0.52l-0.13.52a3.76,3.76,0,0,1-.08.39l-0.2.85-0.27.83-0.09.23a12.12,12.12,0,0,0,.52-1.56A10.9,10.9,0,0,0,126.8,309.51Z"/>
    <path class="cls-1" d="M126,312.29l-0.06.14Z"/>
    <path class="cls-1" d="M108.13,297.14a6.33,6.33,0,0,1,.37-1.73l-0.62-.12Z"/>
    <path class="cls-1" d="M107.91,285.74c-0.17-.39-0.6-5.65-0.47-0.71C107.62,285.42,107.81,289.33,107.91,285.74Z"/>
    <path class="cls-1" d="M59.8,224.41c-1-.33,2.86,1.94,1.79,1.56,2.55,1.19,3.75,2,3,.82C60.66,224.24,63.32,226.79,59.8,224.41Z"/>
    <path class="cls-1" d="M61.59,226c-0.41-.19-0.84-0.39-1.31-0.58C61,225.74,61.37,225.89,61.59,226Z"/>
    <path class="cls-1" d="M65.48,189.07l0.27,0a9.38,9.38,0,0,0-2.1-1.47Z"/>
    <path class="cls-1" d="M32.18,176.77s0.74,0.16.74,0.16l0.43-.31-0.57.07Z"/>
    <path class="cls-1" d="M26.16,203.6c-0.32-1-.78-2.13-1.16-3.2C25.71,202.69,25.65,204.13,26.16,203.6Z"/>
    <path class="cls-1" d="M25,200.4c-0.1-.31-0.2-0.62-0.33-1C24.76,199.76,24.88,200.08,25,200.4Z"/>
    <path class="cls-1" d="M101.37,63.6l-0.08-.66A4.51,4.51,0,0,0,101.37,63.6Z"/>
    <path class="cls-1" d="M101.09,68.33l0.19,0.13C101.18,68.23,101.11,68.13,101.09,68.33Z"/>
    <path class="cls-1" d="M99.9,105.14a7.55,7.55,0,0,0-.35,1.24Z"/>
    <path class="cls-1" d="M102.15,37.85l-0.41-.77C101.69,38.26,101.94,37.74,102.15,37.85Z"/>
    <path class="cls-1" d="M66.68,69.66c0,0.07,0,.15-0.06.21S66.68,69.8,66.68,69.66Z"/>
    <path class="cls-1" d="M93.74,180.88l0,0C93.63,180.72,93.66,180.76,93.74,180.88Z"/>
    <path class="cls-1" d="M73.65,22.88H73.53C73.12,23.28,73.32,23.15,73.65,22.88Z"/>
    <path class="cls-1" d="M97.65,139.64s0,0,0,.07l0-.09Z"/>
    <path class="cls-1" d="M97.45,137.43a2.76,2.76,0,0,1,.24,2.2L99,139Z"/>
    <path class="cls-1" d="M101.37,65.7V65.45A1.49,1.49,0,0,0,101.37,65.7Z"/>
    <path class="cls-1" d="M101,29.54a0.59,0.59,0,0,0-.11-0.14Z"/>
    <path class="cls-1" d="M87,23.59h0Z"/>
    <path class="cls-1" d="M99.76,106.48a0.43,0.43,0,0,1,.27-0.18C100,106.12,99.86,106.12,99.76,106.48Z"/>
    <path class="cls-1" d="M102.22,38V37.92a0.2,0.2,0,0,0-.08-0.07Z"/>
    <path class="cls-1" d="M95.69,177.36A0.8,0.8,0,0,1,96,177C95.84,177,95.74,177.05,95.69,177.36Z"/>
    <polygon class="cls-1" points="65.13 163.92 63.93 163.03 64.25 163.35 65.13 163.92"/>
    <path class="cls-1" d="M79.18,171l-0.78-.19a1.52,1.52,0,0,1,.42.69Z"/>
    <path class="cls-1" d="M82.53,173.06c0.23-.07,2.28.78,0.49-0.24C82.8,172.89,81.33,172.18,82.53,173.06Z"/>
    <path class="cls-1" d="M96.4,156.27c0.22,0.46.32-1.4,0.51-.93-0.19-1.17,0-1.77-.71-1.28C95.85,156,96.8,154.55,96.4,156.27Z"/>
    <path class="cls-1" d="M96.91,155.34c0,0.19.07,0.39,0.12,0.6A2.88,2.88,0,0,0,96.91,155.34Z"/>
    <path class="cls-1" d="M99.85,77.78l-0.42.95,0.15,0.1A1.75,1.75,0,0,0,99.85,77.78Z"/>
    <polygon class="cls-1" points="100.82 62.02 100.79 62.3 101.4 61.8 100.82 62.02"/>
    <path class="cls-1" d="M100.74,48c-0.05.57,0,1.25,0,1.82C100.69,48.54,101.48,47.85,100.74,48Z"/>
    <path class="cls-1" d="M181,42.45a3.35,3.35,0,0,0-.57.14Z"/>
    <path class="cls-1" d="M185.31,43.09l0.16-.16C185.24,43,185.13,43,185.31,43.09Z"/>
    <path class="cls-1" d="M202.1,67.32a8.82,8.82,0,0,0-.71,1.16Z"/>
    <path class="cls-1" d="M167.34,61l0.13,0.92C167.91,60.68,167.51,61.13,167.34,61Z"/>
    <path class="cls-1" d="M131.51,154.7c0,0.06-.08.14-0.13,0.19S131.46,154.84,131.51,154.7Z"/>
    <path class="cls-1" d="M172.75,149.36l0-.05C172.62,149.46,172.65,149.43,172.75,149.36Z"/>
    <path class="cls-1" d="M149.52,104l-0.09.12C149.36,104.82,149.44,104.54,149.52,104Z"/>
    <path class="cls-1" d="M188.67,101.8s0,0,0,.08l0-.09h0Z"/>
    <path class="cls-1" d="M189.21,99.48a3.13,3.13,0,0,1-.49,2.31l1.45-.29Z"/>
    <path class="cls-1" d="M156.17,90.7a2.17,2.17,0,0,0,.09-0.27Z"/>
    <path class="cls-1" d="M182.68,42.44a1.17,1.17,0,0,0,.31,0A0.87,0.87,0,0,0,182.68,42.44Z"/>
    <path class="cls-1" d="M201.55,68.64a0.43,0.43,0,0,1,.32-0.1C201.86,68.34,201.77,68.3,201.55,68.64Z"/>
    <path class="cls-1" d="M167.32,60.79l0,0.07a0.2,0.2,0,0,0,.05.1Z"/>
    <path class="cls-1" d="M174.09,140.4a2.7,2.7,0,0,1,.55-0.74C174.54,139.6,174.37,139.76,174.09,140.4Z"/>
    <path class="cls-1" d="M159.38,183l0.28-.49s-0.21.34-.44,0.67l-0.45.66,0.32-.36Z"/>
    <path class="cls-1" d="M165.81,167l-0.56-.27-0.07.85A1.68,1.68,0,0,1,165.81,167Z"/>
    <path class="cls-1" d="M166.82,162.78c-0.1-.22.4-2.53-0.32-0.46C166.61,162.55,166.14,164.23,166.82,162.78Z"/>
    <path class="cls-1" d="M182.8,117.56c0.2-1.25.57-1.81-.26-1.51-1,1.84.41,0.68-.53,2.31C182.06,118.9,182.78,117,182.8,117.56Z"/>
    <path class="cls-1" d="M182.8,117.56c0,0.2-.06.41-0.08,0.65A3.26,3.26,0,0,0,182.8,117.56Z"/>
    <path class="cls-1" d="M195.17,48a2,2,0,0,0-1-.62L195,48.11Z"/>
    <path class="cls-1" d="M180,43.18s-0.53-.55-0.54-0.53l0.3,0.54H180Z"/>
    <path class="cls-1" d="M172,51.19a5.93,5.93,0,0,0,.28-0.79,5.84,5.84,0,0,1,.34-0.74C172.22,50.66,171.32,51.05,172,51.19Z"/>
    <path class="cls-1" d="M187.17,236.52l0.23-.48A2.8,2.8,0,0,0,187.17,236.52Z"/>
    <path class="cls-1" d="M184.84,239.48l0.1,0.19C185,239.47,184.94,239.36,184.84,239.48Z"/>
    <path class="cls-1" d="M167.52,262.58a5.52,5.52,0,0,0-.84.25S167.52,262.58,167.52,262.58Z"/>
    <path class="cls-1" d="M199.44,220l0-.75C198.88,220,199.31,219.82,199.44,220Z"/>
    <path class="cls-1" d="M225.35,164.22s-0.07-.1-0.1-0.14S225.26,164.17,225.35,164.22Z"/>
    <path class="cls-1" d="M155.86,219l0,0C156,219,156,219,155.86,219Z"/>
    <path class="cls-1" d="M222,193.72l0.1-.06C222.25,193.17,222.14,193.36,222,193.72Z"/>
    <path class="cls-1" d="M149.86,254.6a0.34,0.34,0,0,0,0,0l0,0h0Z"/>
    <path class="cls-1" d="M149.17,254.61c-0.33,0-.66.08-0.66,0.08l0.21,0.21a4.6,4.6,0,0,0,.51.33,3,3,0,0,0,.78.29,0.6,0.6,0,0,1-.37-0.43,0.84,0.84,0,0,1,.19-0.49S149.51,254.59,149.17,254.61Z"/>
    <path class="cls-1" d="M166.74,263a0.49,0.49,0,0,1,.25.15C167,263.05,167,263,166.74,263Z"/>
    <path class="cls-1" d="M199.43,220.15l0,0a0.2,0.2,0,0,0,0-.1v0.14Z"/>
    <path class="cls-1" d="M154.93,224.85a0.6,0.6,0,0,1,.05-0.12,1.06,1.06,0,0,0,0-.2,1.07,1.07,0,0,1-.15.34,0.28,0.28,0,0,1,0,.08A0.11,0.11,0,0,0,154.93,224.85Z"/>
    <polygon class="cls-1" points="172.23 198.22 173.07 197.38 172.78 197.59 172.23 198.22"/>
    <path class="cls-1" d="M165.4,208.7l0.19-.63a1.17,1.17,0,0,1-.65.21Z"/>
    <path class="cls-1" d="M163.37,211.12c0.06,0.21-.77,1.78.21,0.47C163.53,211.38,164.22,210.28,163.37,211.12Z"/>
    <path class="cls-1" d="M155.67,242.52c-0.13-.43-0.57,1.09-0.66.66,0,1-.36,1.45.44,1.23C156.17,242.91,155,243.86,155.67,242.52Z"/>
    <path class="cls-1" d="M155,243.18a4.66,4.66,0,0,0,0-.52A2.15,2.15,0,0,0,155,243.18Z"/>
    <path class="cls-1" d="M178.94,245.56a1.17,1.17,0,0,0,.68-0.54l-0.76.39Z"/>
    <polygon class="cls-1" points="187.43 235.15 187.28 235.33 188 235.35 187.43 235.15"/>
    <path class="cls-1" d="M193.71,225.84c-0.3.35-.53,0.85-0.83,1.2C193.41,226.19,194.36,226.19,193.71,225.84Z"/>
    <path class="cls-1" d="M83.29,0.46l2.33,0C84.52,0.43,83.81.44,83.29,0.46Z"/>
    <path class="cls-1" d="M65.41,3.13l-0.32.38C65.79,3,66.12,2.87,65.41,3.13Z"/>
    <path class="cls-1" d="M41.38,131c-0.15,1-.33,2.46-0.53,4.51Z"/>
    <path class="cls-1" d="M123.92,70.17l0.29,2.78C124.44,68.64,124.11,70.53,123.92,70.17Z"/>
    <path class="cls-1" d="M71.54,356.75l-0.19,0A1.28,1.28,0,1,0,71.54,356.75Z"/>
    <path class="cls-1" d="M152.4,39.18l0.26-.41C153.57,36.65,153.13,37.56,152.4,39.18Z"/>
    <path class="cls-1" d="M11.24,233l0.1,0.23L11.25,233V233Z"/>
    <path class="cls-1" d="M8.42,225.6A33,33,0,0,1,11.25,233l0.36-2.89Z"/>
    <path class="cls-1" d="M76.28,0.51c-0.36,0-.66,0-0.92.07l0.42,0Z"/>
    <polygon class="cls-1" points="2.28 185.35 2.28 185.35 2.29 185.34 2.28 185.35"/>
    <path class="cls-1" d="M2.29,185.34a18.89,18.89,0,0,0,1-2.76C3,183.31,2.66,184.29,2.29,185.34Z"/>
    <path class="cls-1" d="M132.87,85.71c-0.09.23-.17,0.45-0.23,0.64Z"/>
    <path class="cls-1" d="M41,135.84a1.26,1.26,0,0,1,.3-0.68C41.29,134.52,41.2,134.51,41,135.84Z"/>
    <path class="cls-1" d="M123.86,69.66l0,0.25a0.72,0.72,0,0,0,.07.26Z"/>
    <path class="cls-1" d="M41.87,352.68a27.24,27.24,0,0,1-2.87-.83C38.89,352,39.56,352.19,41.87,352.68Z"/>
    <path class="cls-1" d="M133.7,371l2.75,0.35a13.8,13.8,0,0,1-2.45-.92Z"/>
    <path class="cls-1" d="M119.7,367.85c-0.61,0-8.43-1.29-1.15.22C119.17,368,124.95,369.11,119.7,367.85Z"/>
    <path class="cls-1" d="M16.15,286.88c0.59-4.17,1.2-6.31.14-4.55-1.65,6.78.28,1.75-1.27,7.86C14.93,291.84,16.28,285.2,16.15,286.88Z"/>
    <path class="cls-1" d="M16.15,286.88c-0.09.67-.19,1.38-0.27,2.13C16.06,287.81,16.13,287.24,16.15,286.88Z"/>
    <path class="cls-1" d="M44.63,35.72l0.14,0.35a20.9,20.9,0,0,0,.42-3.82Z"/>
    <polygon class="cls-1" points="88.85 0.06 87.83 0 89.72 0.67 88.85 0.06"/>
    <path class="cls-1" d="M125.71,27.1c-0.08-.41-0.16-0.84-0.26-1.29C125.55,26.23,125.63,26.66,125.71,27.1Z"/>
    <path class="cls-1" d="M126.14,31.48c0,1.26,0,1.82.39,1.49a32,32,0,0,0-.38-3.58c-0.16-.77-0.29-1.54-0.43-2.28A21.76,21.76,0,0,1,126.14,31.48Z"/>
  </g>
</svg>
