<svg id="spock" data-name="spock" xmlns="http://www.w3.org/2000/svg" viewBox="0 0 340.69 389.32">
  <defs>
    <style>
      .cls-1 {
        fill: #19171c;
      }
    </style>
  </defs>
  <title>spock</title>
  <path class="cls-1" d="M113.22,149.68l-0.52,0C110.29,149.94,111.36,149.87,113.22,149.68Z"/>
  <g>
    <path class="cls-1" d="M339.15,169.89a24,24,0,0,0-.92-2.48l-0.32-.8a2,2,0,0,0-.14-0.3,31.21,31.21,0,0,0-3.61-7.71l-1-1.37a17.82,17.82,0,0,0-1.28-1.62c-0.52-.58-1.08-1.28-1.82-2l-1.21-1.17-0.68-.65-0.78-.64c-0.63-.17,1.59,1.77-0.11.72a28.14,28.14,0,0,0-11.36-6.11c-3.91-1.2-7.2-1.43-8-1.92-3.16-.55-3.83-0.64-4.2-0.84s-0.44-.37-2.52-0.48c0.2,0.08.58,0.22-.61,0.26l-0.77-.06c-0.46,0-1.08-.09-1.7-0.08l-1.71,0-0.78,0c-1,.23.16,0.16,0.85,0.16s0.93,0-1.78.55a39.87,39.87,0,0,0-11.65,3.11,32.69,32.69,0,0,0-9.17,6c-2.15,1.87-2.93,2.69-3.17,2.79s0.11-.5.56-1.08a7.32,7.32,0,0,0,.88-1.28,1.68,1.68,0,0,0-.57.45,20.13,20.13,0,0,0-1.78,1.85l-0.51,1.05c-0.18.4-.4,0.84-0.71,1.39s-0.69,1.19-1.18,2-1.13,1.73-1.95,2.89c-2,2.25-2,1.73-5.15,5.74l0.71,0.12c-2.79,3.79-5.09,6.76-4.72,7.07-0.62.74-1.18,1.43-1.69,2.07l-1.27,1.65a19.76,19.76,0,0,0-1.09,1.65c-1.21,1.39-.66.07-0.24-1l0.31-.83,0.13-.36,0.05-.16a0.68,0.68,0,0,1,.11-0.23c0.65-1.12,1.2-2.06,1.39-2.43l-1.37,2.14a3.37,3.37,0,0,0-.32.54l-0.16.3-0.7,1.19c-0.24.4-.47,0.82-0.74,1.34a2.51,2.51,0,0,1-.42.05l0.24,1a7.63,7.63,0,0,0,.55-0.63l0.27-.32c-1.15,2.56-1.19.42-1.46,0-0.23-.78-0.2-1-0.47-2.3L249,176.36c-0.13-.85-0.36-1.75-0.55-3.07a21.06,21.06,0,0,0,.3,5.59c0.26,1.5.26,2.08-.23,1a24.94,24.94,0,0,1-.48-3,16.16,16.16,0,0,1,0-2c0-.54.08-0.9,0.08-0.9-0.06-.34-0.16.48-0.17,1.06s-0.05.93-.17-0.42A11.3,11.3,0,0,1,248,173l0.46-2c0.32-1.37.65-2.72,0.87-3.54l-0.05.08,1.6-10.66c-0.22,1.26-.39,1.26-0.15-0.56l1.42-7.65c-0.49,2.33-.35-0.11,0-3.58,1.21-9.94,2.54-7.73,3-15.52-0.14,1.12-.25,1.29-0.4,2.43l0.28-4c1.46-.65,3.43-23.3,4.89-24,0.25-5.71-.27-0.44-1.92,6.72l0.46-6.06c-0.39,2.43-.58,4.49-1.08,7.07a125.38,125.38,0,0,1,3.25-19.48c0.23-3-1.34,2.22.08-6.32,2-12.07.66,2.43,1.84-4.82l0-5.37q0.34-1.73.63-3.36l0.27-1.63c0.08-.58.17-1.15,0.22-1.72a29.17,29.17,0,0,0-.12-6.61,32.33,32.33,0,0,0-4.13-11.88c-0.91-1.72-1.42-2.53-1.63-3a41.2,41.2,0,0,0-10-9.56,30.2,30.2,0,0,0-11.29-4.64c0.78,0.25-.21.11-1.5,0a22.66,22.66,0,0,0-3.28-.08l-0.52-.06c-0.33,0-.81-0.09-1.4-0.13a38.06,38.06,0,0,0-4.25,0c-1.52.08-3,.22-4.11,0.35l-0.38,0H221a1.88,1.88,0,0,0,.4,0c0.49,0,.92-0.07,1.29-0.09a10.28,10.28,0,0,1,1.61,0,6,6,0,0,1,1.44.43c-1.86.14-3.21,0.28-4.41,0.39-0.36,0-.53,0-0.76,0l-0.64,0c0.44,0.07,1.21.09,0.23,0.44l-0.85,0H219l0-.13,0.09-.52,0.2-1c0-.18,0-0.3.07-0.46l0-1.17,0-1.1c0-.35,0-0.68-0.06-1l-0.15-2a26,26,0,0,1,.49,3.51,34.84,34.84,0,0,0-1-6.93,25.17,25.17,0,0,0-3.34-7.32,8.89,8.89,0,0,0,.42,1.15,5.49,5.49,0,0,1,.32,1.18,14.29,14.29,0,0,1,2.35,7.69l-0.59-2.58c-0.21-.64-0.37-1.09-0.49-1.42A1.55,1.55,0,0,0,217,22c-0.08.06,0.08,0.61-.85-1.27l-0.88-2c-0.26-.6-0.58-1.11-0.82-1.59-0.49-1-.86-1.73-1.17-2.25-0.57-1.08-.54-1.4.09-0.84a34.67,34.67,0,0,0-3-3.45c-1-.92-1.84-1.68-2.71-2.47a47.54,47.54,0,0,0-6.85-4.73l1,1.1-0.9-.49c-0.55-.27-1.25-0.72-2-1l-2.08-.88a6.45,6.45,0,0,0-1-.36L196,1.91a4.34,4.34,0,0,1,.55.27l1.62,0.88a14.69,14.69,0,0,1,1.57.93l0.69,0.46c-1.39-.7-2.54-1.05-3.4-1.41s-1.51-.56-2-0.73a5.75,5.75,0,0,1-1.56-.77,4.81,4.81,0,0,0-1.87-.74,21,21,0,0,0-2.43-.5l-1.84-.18A16.17,16.17,0,0,0,185,0L185,0.49c-5.26-.23-7.31-0.68-11.24.87-2.56.52-.46-0.21,0.83-0.69,0.64-.24,1.08-0.42.59-0.36-0.24,0-.71.13-1.5,0.31L172.25,1c-0.56.14-1.19,0.39-1.93,0.64-0.49.26-1.15,0.51-1.87,0.89l-2.36,1.24a44.65,44.65,0,0,0-4.8,3.13c-1.69,1-1.16.5,0.07-.49a26,26,0,0,1,4.42-2.83,31.31,31.31,0,0,0-8.19,5.78,22.11,22.11,0,0,0-3.06,3.93L153.44,15c-0.35.64-.75,1.34-1.26,2.17s-1,1.88-1.71,3.11c-0.33.63-.61,1.36-1,2.14-0.17.4-.38,0.8-0.54,1.24L148.47,25a4.46,4.46,0,0,0,.3-1.88,0.87,0.87,0,0,0-.43.3c-0.11.08-.19-0.1,0.16-1.06,0.17-.48.44-1.17,0.83-2.13,0.2-.48.51-1,0.82-1.59a22.18,22.18,0,0,1,1.15-2,17.82,17.82,0,0,0-1.27,2.1l-0.58,1.08c-0.18.36-.32,0.75-0.47,1.13-0.29.76-.6,1.52-0.86,2.29l-0.62,2.37a21.15,21.15,0,0,0-.46,2.41c-0.13.8-.29,1.65-0.37,2.38-0.2,1.52-.45,3-0.8,4.59l1.18-4c-0.31,2.25-.88,4.75-1.13,6l0.54-.44c-1.92,7.6-1.64,14.41-3.37,18.84,1.3-3.07-.86,5.75-1,8.86,1.49-6.26,2.56-18.21,3.46-18.94-0.18,3-.94,5.58-1.11,8.47,0.4-2,1-4.85,1.28-5.59-0.93,9.82-2.64,15.25-3.68,21.14l1.66-10.42c-0.9.73-.8,4.68-1.83,7.53-0.32,5.29-1.51,9.29-1.85,13.59,0.16-1.13.24-1.2,0.4-2.33-1.63,11.39-.8,14.74-1.42,19.27s-2.15,12.83-2,9.73c-0.73,3.62,2.37-15.1.44-8.73a51.7,51.7,0,0,1-1.22,10.95c-0.38,2.14-.81,4.52-1.21,7.26-0.2,1.37-.4,2.83-0.58,4.39l-0.14,1.19-0.07.61,0,0.32-0.08,1.45a1.87,1.87,0,0,1,.44-1.05,1.28,1.28,0,0,1,.14.75c0.05,0.75,0,1.85.5-.26-0.43,2.7-.67,4-0.88,4.7a6.45,6.45,0,0,1-.61,1.49v2.65l-0.12.3c0,0.06,0,0,0-.09l-0.06-.19-0.11-.35-0.35-1.2-0.44-1.61-0.41-1.7c-0.11-.45-0.25-0.93-0.49-1.72l-0.45-1.4-0.29-.88-0.16-.49-0.08-.25-0.16-.46,0.12,0.36,0,0.14a1.15,1.15,0,0,1,0,.19c0,0.09,0,.11-0.08.08a1.16,1.16,0,0,1-.21-0.26c-0.11-.19-0.3-0.57-0.47-0.89-0.68-1.33-1.41-2.79-.88-1.14-1.43-3.45-2.69-6.88-3.51-9.5l0.14,0.48c-5-12.73-4.64-10.19-8.94-21.87L117.44,91c-2.79-7.66-6.21-16.23-9.7-24.84l-5.21-12.85c-0.88-2.13-1.61-4.14-2.64-6.35a34.08,34.08,0,0,0-3.59-5.93l0.63,0.77c0.37,0.47.81,1.14,1.27,1.79S99,45,99.37,45.5l0.22,0.38c-0.27-.48-0.63-1.16-1.1-2L97.31,42c-0.46-.65-1-1.33-1.51-2A27.78,27.78,0,0,0,88,33.2l1.69,1.25c0.61,0.46,1.16,1,1.59,1.28-0.31.12-2.11-1.15-5.87-3.17L84.77,32l-0.66-.54-0.84-.25c-0.42-.12-0.86-0.2-0.86-0.2-0.75-.3-1.29-0.53-1.66-0.69A6.21,6.21,0,0,1,80.06,30c-0.2-.12,0-0.11.3-0.1,0.5,0,1,0-2.13-1a13.78,13.78,0,0,1-2.33-.24c-0.51-.08-1.1-0.12-1.72-0.21s-1.3-.18-2-0.21a45.07,45.07,0,0,0-10,.16,39,39,0,0,0-10,2.62A28.67,28.67,0,0,0,48.57,33a12.66,12.66,0,0,0-2.31,1.71c-2,.93.41-0.93,3.09-2.34,1.35-.65,2.7-1.3,3.45-1.62s0.85-.45-0.36-0.21a62.19,62.19,0,0,0-6.16,3.55s0.23-.31.48-0.6L47.28,33a34.46,34.46,0,0,0-9.62,8.55,33.09,33.09,0,0,0-5,9.12A29.38,29.38,0,0,0,31,60.44c-0.06.87,0.07,1.77,0.1,2.68a21.43,21.43,0,0,0,.33,2.79,42.66,42.66,0,0,0,1.52,5.88l-0.12-.69c1,2.87,1.94,5,2.58,6.74,0.16,0.44.29,0.85,0.42,1.25L36,79.67c0.06,0.19.12,0.39,0.14,0.48a5.68,5.68,0,0,1,.16,1.12c0.25,0.34.2,0,.15-0.37s-0.09-.68.28,0c0.08,0.43.15,0.82,0.24,1.19l0.12,0.54,0.06,0.26,0,0.13,0,0.07a0.14,0.14,0,0,1-.07,0C36.4,83,35.77,83,35.14,83l-0.93,0-0.67,0-0.85.07a37.52,37.52,0,0,0-6.32,1.25,102.08,102.08,0,0,0-9.86,3.7c0.55,0.2-1.67,1.83-3.4,3.59a32.48,32.48,0,0,0-8.93,9.59,28.63,28.63,0,0,0-1.65,26.67c3.73,8.44,7.59,17,11.33,25.25,6.06,13.42,12.32,27.29,18.2,41,2.2,5.14,3.33,10.93,4.42,16.52q0.29,1.47.58,2.93l2.86,14.18c3.55,17.58,7.19,35.59,10.66,53.59l-0.14-.09c0.09,0.75.3,1.57,0.39,2.33,0.37,1.63.49,1.89,0.44,1.34q0.58,3.05,1.16,6.1c0,0.37.06,0.8,0.13,1.35s0.29,1.06.42,1.6q0.74,3.93,1.46,7.85a7.56,7.56,0,0,1,.09,2.24c0.46,1.54.2-.24,0.27-0.46,0,0.22.1,0.44,0.16,0.66L55,304.64c0.1,0.58.27,1.34,0.45,2.1s0.39,1.51.53,2.08l0.27,0.94c0.14,0.14.2,0.11,0.23,0a61.57,61.57,0,0,0,10.2,18.47l0.78,1,0.19,3.11c0.35,5.77.7,11.65,0.93,17.54-0.11.65-.15,3-0.24,4.6,0.1,1.58.18,3.32,0.24,5.17l0.06,2.85c0.06,1,.1,2,0.19,3A26.76,26.76,0,0,0,73,376.87a24.94,24.94,0,0,0,7.7,7.37,20.51,20.51,0,0,0,1.86,1l0.78,0.35a26.12,26.12,0,0,0,11.16,2.46l1.17,0,21.8-.94c1.86,0.21,2.93.48,2.94,0.78-4.63-.05-13.89-0.16-15.28.51,4.62,0.06,12.6-.13,13,0.25,4.75-.91-8.72.15-2.48-0.7a58.2,58.2,0,0,1,6.15.11c-2.17-.2,2.89-0.61,3.85-0.82,10.5-.44,16.53-1,27.79-1.53l0.45-.1,6.9-.28c3.81,0.25,6.86.69,5.5,1,6.45-.23,6.78-0.58,12.28-0.61-8.74,1,1.71-.18,2.68.47,5.62-.15,1.95-0.41,4.53-0.67a16.44,16.44,0,0,1,3.34.35c3-.57-4.32-1-3.62-1.56l8.59-.35,0,0.24,1.62-.06-0.34-.23,8.38-.34c0,0.88-1.21,2-3.58,2.5,0.44,0.38,5.3-.64,7.75-0.79a52.87,52.87,0,0,1,8.86-.38c1.29,0,2.54.08,3.84,0.09,0.63,0,1.39-.06,2.11-0.11l1.12-.11c0.3,0,.61-0.12.92-0.19-1,.1-4.65.15-4.56,0.08,0.24,0,1-.09,2-0.2l1.72-.15,1.91-.32a15.27,15.27,0,0,0,1.92-.42c0.62-.17,1.22-0.29,1.75-0.46,1-.36,1.88-0.64,2.25-0.72a8.75,8.75,0,0,0-2.09.09,1.51,1.51,0,0,1-.93-0.11c-0.1-.11.08-0.25,0.7-0.58a30.27,30.27,0,0,0,12-8.39c2.62-3,3.82-5.37,4-4.89l-0.32.7a17.49,17.49,0,0,1-1,1.78c-0.22.36-.43,0.76-0.69,1.16l-0.88,1.23a25.55,25.55,0,0,1-2.09,2.51c-0.77.8-1.6,1.55-2.39,2.21s-1.57,1.24-2.29,1.66l-1.71,1c-0.42.23-.68,0.33-0.68,0.33-0.07.19,0.62,0,1.61-.58a17.72,17.72,0,0,0,1.71-1c0.59-.43,1.24-0.9,1.87-1.38,2.47-2,4.39-4.61,4.45-4.11l0.39-.61a15.19,15.19,0,0,0,1-1.64,28,28,0,0,0,2.21-5.31,23.14,23.14,0,0,0,.73-3,21.18,21.18,0,0,0,.39-2.62l0.16-1.86c0-.45,0-0.71,0-0.71a17.76,17.76,0,0,1-.2,2.15l-0.17,1.28L247.34,363c-0.36,1.5-.71,2.39-0.59,1.15l0.42-2.13c0.1-.58.11-1,0.16-1.41,0.06-.74.08-1.12,0.08-1.42,0-.61-0.13-0.95-0.23-3.24a27.49,27.49,0,0,1-4.51,13.64,18,18,0,0,1-1.27,1.71A26.44,26.44,0,0,0,245.2,359c0.05-.22.12-0.45,0.16-0.66,0.17-1,.38-1.9.51-2.76l0.38-2.33,0.55-3.15c-0.38-5.82-1.49-3.73-1.67-2.34a65.91,65.91,0,0,1,.34-11.41c0.14-1.43.28-2.85,0.35-4.65,0-.9,0-1.88,0-3l0-1.61,0-.54a1.18,1.18,0,0,1,0-.14l0.1-.11,0.21-.23-0.23.3a2.47,2.47,0,0,0,.07.79l0.22,2c0-.59-0.06-2.12-0.07-2.46a0.45,0.45,0,0,1,0-.23l0.18-.19,0.37-.39,1.36-1.49c1.84-2.05,3.22-3.86,3-3.36,1.14-1.9,1.75-3.9.47-2.61l0.78-.84c0.66-.72,1.52-1.73,2.34-2.7l3.32-3.92c-0.94,1.18-1.18-.17-1.68.26,2.26-3.43,4.83-5.18,3.5-2.94,3.91-7,3.11-5.17,6.07-11,1.38-1.93.72,0.75-.16,2.24,3.21-4.3,4.87-7,6.2-9.13-3.7,5-3.76,3.38-4,2.3l3.23-4.8,9.1-9.91a5.53,5.53,0,0,1-2.14,1c1.6-.84,13.89-18.86,19.76-27.77l-0.9,1.33c-1.45,1.63,3.49-6.11,5.83-9.06a15.12,15.12,0,0,0-1.84,2.51c3.46-6.27,6.24-6.94,9.68-13.39-3.62,5.5-4.62,6.38-4.71,5.92,3.27-4.3,10-14.85,9.35-12.12,1.76-3,3.61-5.5,3-5.54l7.91-10.66c-0.64.76-1.36,1.3,0.75-2-4,6.24-8.85,11.68-10.49,15.29-0.62-.19.67-2.69-1.76,0,8.27-11.75,13.54-17.59,19.2-24.8a64.66,64.66,0,0,0,3.09-5.74,42.59,42.59,0,0,0,1.7-4.22c0.39-1.19.6-2,.6-2l0.43-.46s0-.61,0-1.22-0.09-1.2-.09-1.2a13.6,13.6,0,0,0,.68-3c0-.31-0.16.1-0.35,0.74,0.21-1.38.25-2.63,0.37-3.29-0.18-.26-0.4.19-0.63,1-0.12.4-.24,0.89-0.37,1.43l-0.51,1.69a26.11,26.11,0,0,1-.38,3.53,9.23,9.23,0,0,1-1.34,2.35,0.14,0.14,0,0,1-.13.05,30.08,30.08,0,0,0,1.37-4.58l0-.09,0.44-1.26c0-.37,0-0.75,0-1.11-0.08.43-.17,0.85-0.27,1.26,0.1-.62.19-1.25,0.25-1.88,0-.05,0-0.1,0-0.16,0,0.25,0,.51,0,0.78a39.66,39.66,0,0,0,.56-8.19c0-.47,0-0.85,0-1.12a0.45,0.45,0,0,1,.1-0.41c0.15,0,.38.56,0.69,2l-0.24-1.19C339.74,171.73,339.41,170.81,339.15,169.89Zm-88.83,12.9a0.1,0.1,0,0,1,.1.05l0,0.08,0.12-.18a6.48,6.48,0,0,1,.52-0.67c0.37-.42.8-0.83,1.1-1.17-0.46.77-.85,1.5-1.21,2S250.24,184.11,250.32,182.79Zm64.58-3.08a14.7,14.7,0,0,1-.64,3.06,14.46,14.46,0,0,1-1,1.67l-2.87,4-4.28,5.9c3.78-5.23,4-4.76,4.94-5.52-2.59,3.74-4,5.39-5.77,7.92,1.18-1.48,2.37-3,1.17-.89l-9.15,12.27c0.45-.78,1.42-2.25,2.23-3.48-2.15,3.16-7,9.85-9.81,14.55,0.4-.31,1.58-1.78,2-2.09a37.27,37.27,0,0,1,5.58-7.79c-6,8.68-1.39,2.23-4,6.59-4.2,6.14-6.36,8.37-5.54,6.56-4.61,7-6,9.31-11.13,16.19l1.36-1L273.42,244l4.13-4.92c-8.14,12.74-2.33,1.78-11.47,15.87l0.37,0.31c-3.77,5.25-5.68,6.64-8,11.12-3.75,5,5.43-9.27-2.89,2.89-1.25,2.29-4.22,7-6.51,10.59-2.54,3.41.74-2,2.68-4.9-5.82,8.48-7.36,11.48-8.78,14.21-0.73,1.41-1.43,2.75-2.68,4.74-0.62,1-1.38,2.16-2.35,3.57l-1.51,2.16c-0.17.23-.34,0.47-0.53,0.7l-1-.05a4.11,4.11,0,0,0,.86-0.14,0.37,0.37,0,0,0,.06-0.32,1.38,1.38,0,0,0-.3-0.14,0.11,0.11,0,0,1,0-.14,1.43,1.43,0,0,1,.14-0.39l0.07-.14a2.5,2.5,0,0,1,.18-0.29l0.85-1.31,2.66-4c-1.13,1.55-2.19,3.14-3.22,4.74l-0.38.6-0.1.17-0.05.09-0.21.4a3.46,3.46,0,0,1-.43.06l-0.28,0-0.71,0-2.84.1h-2.8l-0.43.41-0.85.83-1.31,1.29-1.08,1.1-1.08,1.13-0.54.57a4.39,4.39,0,0,0-.37.44c-0.09.12-.21,0.27-0.33,0.45l0.23-.3a6.21,6.21,0,0,1,.56-0.62c0.38-.36.88-0.82,1.4-1.28,1-.91,2.11-1.75,2.11-1.75-1.06,1.06-2.18,2.19-3.15,3.24a5.24,5.24,0,0,0-.44.52,5,5,0,0,0-.39.56l-0.5.82-0.81,1.32,0.13-.09,0.26-.13,0.37-.18c-0.17.27-.33,0.5-0.58,0.91l-0.34.59-0.17.3a1.55,1.55,0,0,0,0,.33l0,2.2c0,1.19,0,2.36.05,3.51,0.07,2.29.19,4.46,0.31,6.52a57.3,57.3,0,0,1,0,10.67c0.7-4.13.22,7.4,0.73,11.31,0.27-8.17-.92-23.38-0.18-24.49,0.39,3.79.13,7.2,0.5,10.85,0-2.57.08-6.3,0.21-7.28,0.93,12.51.27,19.68,0.41,27.29l-0.37-13.42c-0.75,1.12.1,6-.36,9.83,0.18,1.67.29,3.26,0.36,4.78s0.14,3,.08,4.28a12.28,12.28,0,0,1-.2,1.79,3.05,3.05,0,0,1-.37,1.1c-0.39.55-.83,0.7-2.1,1,0.61-.1.9-0.17,1.16-0.23a2,2,0,0,0,.45-0.15,2.65,2.65,0,0,1-.35.16,7.24,7.24,0,0,1-.93.25,17.32,17.32,0,0,1-2.11.27c-1.48.1-2.89,0.2-4.14,0.31-2.52.22-4.58,0.46-6.36,0.7-3.56.47-6,.9-8.92,1-5.7.33-16.53,0.34-12.63-.15-4.69,0,19.42-.55,11-1.24-8.3,1.52-17.18.25-35.34,1.8,8,0.1-4.65.86,2.47,0.89a109.28,109.28,0,0,1-12.87-.09l-2.6.48c-11.35-.37-2.69-0.63-19.85-0.38,5.76,0.06-6.86.81-2.47,0.9-4.75.22-9.39,0.29-12.87,0.21l0.63,0c-8.68.26-12.23,0.52-15.58,0.74l-2.56.16a17.74,17.74,0,0,1-2.72,0,3.32,3.32,0,0,1-1.16-.29,1.88,1.88,0,0,1-.87-0.89,3.83,3.83,0,0,1-.24-0.7,9,9,0,0,1-.18-1,22.55,22.55,0,0,1-.15-2.59S91,360.67,91,361s0.16,0.73.16,0.73l-0.26-11.12-0.39-11.85L90.07,326.6,90,325.07l0-.77,0-.54a2.12,2.12,0,0,0-.1-0.59L89,320.07l-0.4-1.51-0.2-.76a5.66,5.66,0,0,0-.29-0.84c-0.43-1.07-.83-2-1.23-2.9l-0.63-1.47-1.6.17-0.91.1a42.64,42.64,0,0,1-6.12-15.15s0.4,1.76,1,3.46c0.33,1,.71,2.05,1,2.69-0.21-.57-0.47-1.35-0.75-2.32-0.2-.71-0.42-1.52-0.61-2.39s-0.37-1.8-.56-2.84c-0.76-4.09-1.65-8.71-2.48-12,0.24,1.32.59,3.6,0.87,4.81-0.28-.14-1.16-2.61-2.23-7.65v-2l-0.7-2c-1.55-7.7,1,2.15-.56-5.55-2-4.27-6.77-33.13-9-39.59-0.26-5.39,3,14.56,2.57,8.67-0.58-2.32-.94-3.35-2-8.35l0.81,1.63L59.06,207c-0.82-3.83-1.53-7.67-2.63-11.81a62,62,0,0,0-2.08-6.46c-0.9-2.23-1.93-4.4-3-6.85l0.25,0.82a105.14,105.14,0,0,1-5.79-13.81c-0.84-1.34,1.26,3.67-.11,1.07A142,142,0,0,0,38,152.27c-2.69-5.35-5.19-10.07-6.47-13.93-0.19.61-1.92-2.17-3.55-4.79l-1.32-2.89a109.85,109.85,0,0,1-5.22-12.73,8.72,8.72,0,0,1,.65-6.8,14.6,14.6,0,0,1,8.79-6.67,17.37,17.37,0,0,1,5.11-.79c5.24,0,9.49,2.51,11.35,6.71,2.79,6.29,5.56,12.71,8.24,18.92l11,25.34q7.16,16.55,14.33,33.1c1.92,4.42,5.68,7.06,10.07,7.06a11.61,11.61,0,0,0,3.7-.62,10.26,10.26,0,0,0,6.31-5.29,10.49,10.49,0,0,0,0-8.41c-1.06-2.7-2.14-5.39-3.22-8.07l-7.67-19q-10.61-26.25-21.23-52.5c-0.28-.73-0.61-1.5-0.85-2.22-0.23-.53-0.41-0.93-0.54-1.23l-3.55-8.77-0.19-.55-0.23-.5L59.05,76.81a10.76,10.76,0,0,1-.72-2.75c-0.85-1.84-.15.32-0.15,0.6l-0.32-.79-2.43-6.61c-0.16-.17-0.23-0.14-0.23,0l-0.77-1.9c-1.87-4.61-1.1-8.43,2.41-12a13.61,13.61,0,0,1,9.81-4.09,13.9,13.9,0,0,1,13,8.8q2.3,5.79,4.62,11.6c0.32,1.12,1.16,3.51,1.72,5.18,4.85,11.13,12.11,29.51,16.5,40.07q6.79,16.75,13.49,33.23l4.46,11c0.56,2.12.75,3.38,0.48,3.48-2-5.54-6-16.62-7.19-18.06,2,5.54,5.65,15,5.47,15.62,2.94,5.37-4-10.35-.43-3.18,1.54,3.83,2,5.55,2.6,7.37-0.76-2.65,1.85,3.24,2.47,4.32l3.49,8.46c0.55,1.3,1,2.58,1.7,3.81a13,13,0,0,0,2.46,3.3,9.89,9.89,0,0,0,7.81,2.72,11.7,11.7,0,0,0,4.49-1.1,9.6,9.6,0,0,0,3.85-3.29,3.69,3.69,0,0,0,.19-0.38,14,14,0,0,0,1.93-5.64l0.42-3c0.26-1.15.52-2.24,0.77-3.2,0.76-3,1.39-4.74,1.43-3.42,1.17-8.13.9-8.61,2.06-15.5-0.92,11.14.2-2.18,1-3.27,1.07-7.07,0-2.52.32-5.8a26.24,26.24,0,0,1,1.06-4.12c0.09-3.88-1.91,5.38-2.33,4.22l1-7.34,0.49-3.47,0.24,0.11,0.29-2-0.33.41,1.48-10.59c0.86,0.17,1.67,1.87,1.7,5,0.47-.48.52-6.75,0.91-9.86,0.62-9.07,2.42-13.64,3.22-21.15l-1.15,5.65c0-1.26,1.76-12.23,2.23-13.95-0.18-.31-1.94,5.53-1.72,2.08,1.74-13.45,4.82-26,5.35-25.08l-3.61,20.48c0.44,0.8,2.62-14.53,3.17-13.6l2.5-19c-0.36,2.39-1.56,9.68-1.45,6.76,1.19-8.13.5-4.23,1-9.7-1.18,5.38-3.12,13.33-4.87,20.22q1.12-8,2.28-16.13c1.52-5.48,2.92-9.65,3.49-11.44,0.9-7.35-.65-5-1.12-3.25,0.26-1.8.48-3.38,0.75-4.76a9.49,9.49,0,0,1,1.37-3.39,10.42,10.42,0,0,1,4.09-3.65A14.89,14.89,0,0,1,181,23.36a15.26,15.26,0,0,1,7.47,1.09,13.74,13.74,0,0,0-2.28-.63,13.29,13.29,0,0,0-2.38-.2,14.75,14.75,0,0,1,3.34.63A11.41,11.41,0,0,1,191,26.31c2.17,1.82,2.62,4.22,2.38,3.69,0.53,1,.89,2.22,1.16,2.77s0.54,0.45.51-1.08a4.1,4.1,0,0,1,0,.52,10.24,10.24,0,0,1-.11,1.37c-0.15,1.08-.56,2.69-0.92,4.28l-1.46,6.36c0.38-1.87,1.16-.5,1.44-1.29-0.69,5.17-2.33,8.65-2,5.36-0.72,10.19-.75,7.63-1.09,15.93-0.48,3-1-.42-0.77-2.61-1.2,6.71-1.63,10.68-2,13.9,1.36-7.69,2.07-6,2.71-5l-1.05,7.54-4.27,16.25a7.57,7.57,0,0,1,1.55-2.41c-1.12,1.89-5.07,29.34-6.84,42.79l0.29-2c0.67-2.68-.71,8.91-1.67,13.6a24.41,24.41,0,0,0,.67-3.9,53.28,53.28,0,0,1-1.76,10.29,47,47,0,0,0-1.67,10.46,73,73,0,0,1,1.25-8c0.31-1.37.52-1.65,0.66-1.42-0.3,1.7-.71,3.91-1,6.31l-1,7.13c-0.08.56-.17,1.07-0.23,1.6a13.2,13.2,0,0,0-.06,1.62,14.25,14.25,0,0,0,.31,2.55c0.31,1.29.4,1.79-.24,0.93a11.26,11.26,0,0,0,4.57,5.29c1.56,0.9,2.62,1.07,2.48.78,0,0,.28.12,0.78,0.28a13.36,13.36,0,0,0,2.11.52,15.06,15.06,0,0,0,3.08.16,13.52,13.52,0,0,0,3.53-.73,12.37,12.37,0,0,0,5.51-4,12.73,12.73,0,0,0,1.24-1.92l0.38-.78c-0.35.67-.75,1.24-0.74,1a6.5,6.5,0,0,1,.35-1.07c0.11-.31.22-0.71,0.38-1.2a16.47,16.47,0,0,0,.36-1.72,12.36,12.36,0,0,1-1.23,3.79,11.75,11.75,0,0,1-9.08,6.22,14.56,14.56,0,0,1-10.68-3.06c0.11-.31,1,0.16,1.35.16,0.19,0,.27-0.07.09-0.36s-0.62-.79-1.23-1.76a10.2,10.2,0,0,0,5.38,3.58,12.56,12.56,0,0,0,5.91.27,11.13,11.13,0,0,0,5-2.36,11.73,11.73,0,0,0,3.12-4.12,13,13,0,0,0,.8-2.34l0.52-2.24,0.94-4.22,1.85-8.31,2-15.94,0.38-.63-0.29-2.87a32.1,32.1,0,0,0,.79-3.63c0-.37-0.18.11-0.4,0.88,0.29-1.67.58-3.17,0.77-4-0.28-.68-1.13,2.06-2,5L203.49,139c-0.5,1.84-.95,3.35-1.14,3.33l0.52-3.43,0.39-2.59,0.5-1.74,0.08-1.39-0.35,1.61,0.41-2.69-0.06,1.08c1.61-7.54,3.49-16.14,2.94-9.27l1-9.31c2.34-10.75,1.92-8.89,4.44-22-0.13-.76-0.88,2.73-0.7.32,2.25-9.52,2.64-23.67,3.66-25.66l0.12-.69,0.13-.56a6,6,0,0,1,.26-0.92,6.8,6.8,0,0,1,.52-1.22,3,3,0,0,1,.68-0.93c0.15-.14.28-0.21,0.52-0.45s0.56-.68,1.29-1.42c-0.19.09-.58,0.28,0.24-0.63l0.63-.47A11.32,11.32,0,0,1,221,59a9.43,9.43,0,0,1,1.58-.61l0.53-.16,0.21,0c0.92-.36-0.2-0.18-0.86,0-0.34.08-.57,0.15-0.41,0a7.75,7.75,0,0,1,2.11-.89,11.46,11.46,0,0,1,3.52-.17,13,13,0,0,1,3.17.63,10.34,10.34,0,0,1,4.6,2.93,8.52,8.52,0,0,1,2,4.46,10.32,10.32,0,0,1,0,2.64l-0.41,3.45c-2,13.49-.2-5.92-1.69,5.5,0.18,1.74.46,3.28-.47,10.42-0.81,3.72-1.06,3.17-2.14,9.54l0.69-.31c-0.86,5.91-1.63,10.62-1.16,10.73-0.95,4.8-1.37,8.14-1.62,10.68-1.59,8.93-.36-6.78-0.32-8.91-0.76,8.89-1.89,14.95-1.83,20.09l1.26-7.78c-1.55,16.77-3.11,15.68-2.84,23.59,0.75-5.72,2-12.52,1.92-9.11L227.4,144c0,1,.78-4.71.44-0.89-0.47,2.34-1.47,7.12-2,9.22l0.06-.11-2,13.56c0.27-1.61.43-1.62,0.13,0.7l-0.86,4.87c-0.22,1.25-.4,2.54-0.49,3.54s-0.11,1.68-.11,1.68c0.11-1.66.22-1.62,0.26-.59a23.16,23.16,0,0,0,.82,5.53,78.32,78.32,0,0,1,2.47,10.92,35.2,35.2,0,0,0,2.4,8.67c-0.44-1.37-.43-1.62-0.87-3l1.77,4.78c-0.24.36,0.17,2.32,0.91,5.09,0.2,0.75.43,1.57,0.67,2.42a7.3,7.3,0,0,1-1.48,1.21l-0.18.12c-1,.5-2.22.87-3.37,1.29L203.5,221.2l-6.76,2.34,2.34-.74,2.15-.77q-14.74,5.37-29.47,10.79c0.13-.12.1-0.19-0.15-0.18l-4.12,1.64-2.83,1.13c-0.33.14-.59,0.26-0.8,0.36l-0.46.21c0.06-.19,2.61-1.43.37-0.59-0.09.16-.68,0.5-1.48,1.15-0.28.22-.58,0.5-0.89,0.81a9.84,9.84,0,0,0-3.17,6.09c-0.3,1.92-.61,3.84-0.92,5.77-0.07.32-.13,0.65-0.2,1s-0.07.63-.1,0.92q-0.84,5.2-1.7,10.39c-0.07.34-.15,0.75-0.24,1.28s-0.13,1-.2,1.44c-0.75,4.56-1.49,9.12-2.2,13.69-0.66,4.29,3.11,8.89,7.5,9.65s9.43-2.34,10.19-6.68c1.53-8.84,2.76-17.73,4.5-26.52,0.37-1.85,2.05-4.29,3.71-4.91,20.5-7.68,41.11-15.06,61.67-22.57a19.77,19.77,0,0,0,5.27-2.68l0.44,0a16,16,0,0,0,4.63-.71,10,10,0,0,1,2.13-.59,11.85,11.85,0,0,0,2.9-2.6c0.16-.26-0.24.12-1.21,0.88a13.91,13.91,0,0,1-5,2.48,13.39,13.39,0,0,1-3.73.4l0.5-.42h0a12.7,12.7,0,0,0,3.24-.7,12.05,12.05,0,0,0,1.39-.59,13.22,13.22,0,0,1-4.4,1.06l0.28-.27a13.44,13.44,0,0,0,2.07-.37,14.54,14.54,0,0,0,6.85-4.28c0.84-.87,1.58-1.83,2.18-2.58l1.81-2.23,3.07-3.71c2.11-3.24-2.61,1.86,4-6.92,9.33-12.43-.93,3,4.68-4.5l3.4-5.89c3.71-4.67,6.78-8.88,9.65-12.94l4.21-6,0.51-.74,0.47-.64c0.33-.41.67-0.82,1-1.2a15.14,15.14,0,0,1,2.43-2.08,9.69,9.69,0,0,1,3.05-1.34,12.55,12.55,0,0,1,6.7-.78,15.7,15.7,0,0,1,6.36,2.56,13.58,13.58,0,0,1,4.27,4.37,9.25,9.25,0,0,1,1.26,4.58C314.79,177.72,315,178.54,314.9,179.71ZM202.22,150.06c0.27-2.63.61-5,1-7.06A51.24,51.24,0,0,1,202.22,150.06Zm28.44-31.94c-0.37,3.79-.38,5.77-1.28,8.21C229.33,124.68,230.26,120.32,230.67,118.12Zm106.89,71.07a18.79,18.79,0,0,1-2.39,5.2C336.08,192.48,336.89,190.75,337.55,189.19Z"/>
    <path class="cls-1" d="M222.66,179.11c0-.22,0-0.46,0-0.7,0-.71,0-1.41,0-1.69A17.58,17.58,0,0,0,222.66,179.11Z"/>
    <path class="cls-1" d="M222.6,176.58v0Z"/>
    <path class="cls-1" d="M222.66,179.11c0,0.3.06,0.58,0.09,0.79C222.71,179.61,222.68,179.36,222.66,179.11Z"/>
    <path class="cls-1" d="M222.75,179.9c0,0.23.06,0.38,0.06,0.38S222.76,180,222.75,179.9Z"/>
    <path class="cls-1" d="M225.86,152.33l-0.27.55C225.47,153.83,225.61,153.39,225.86,152.33Z"/>
    <path class="cls-1" d="M206.78,123.89l-0.66,6.23C206.46,127.3,206.66,125.29,206.78,123.89Z"/>
    <path class="cls-1" d="M296.43,168c0.15,0.08.77-.26,3.13-0.58a12.21,12.21,0,0,0-1.55,0,12.86,12.86,0,0,0-1.56.22C296.67,167.69,296.29,167.94,296.43,168Z"/>
    <path class="cls-1" d="M74.92,283.34l0.26,1A2.43,2.43,0,0,0,74.92,283.34Z"/>
    <path class="cls-1" d="M147.81,182.36l-0.15.22A2.46,2.46,0,1,0,147.81,182.36Z"/>
    <path class="cls-1" d="M222.46,331.41l-0.07-.65C222.38,333.15,222.4,334.5,222.46,331.41Z"/>
    <path class="cls-1" d="M188.14,76l0-.45-0.07.34Z"/>
    <path class="cls-1" d="M188.88,79.72L188.14,76a63.67,63.67,0,0,1-1.86,10.72Z"/>
    <path class="cls-1" d="M79.58,303.86c0.1,0.27.19,0.51,0.27,0.67Z"/>
    <path class="cls-1" d="M223.92,165.78c-0.06.37-.13,0.82-0.2,1.35Z"/>
    <path class="cls-1" d="M251.74,275l0.58-.85Z"/>
    <path class="cls-1" d="M205.73,129.55a2.12,2.12,0,0,1,.12,1C206,128.69,205.94,128.69,205.73,129.55Z"/>
    <path class="cls-1" d="M296.16,167.71l0.29-.06a0.92,0.92,0,0,0-.31,0l-0.27.11A2.46,2.46,0,0,1,296.16,167.71Z"/>
    <path class="cls-1" d="M156.87,138.27c0,0.79-.1,2-0.32,4.1C157,139.15,157,138.18,156.87,138.27Z"/>
    <path class="cls-1" d="M66.59,49.32s-0.55,0-1.09.1-1.07.18-1.07,0.18a14.24,14.24,0,0,1,3.67-.17,13.62,13.62,0,0,1,2.5.43c0.67,0.18,1.11.34,1.11,0.34a14,14,0,0,0-2.52-.68A15.49,15.49,0,0,0,66.59,49.32Z"/>
    <path class="cls-1" d="M103.5,120.24l0.48-.46a25.51,25.51,0,0,1-1.69-3.17Z"/>
    <path class="cls-1" d="M111.12,140.1c3.8,9.52,0-.74-0.13-1.55C108.07,131.7,111,139.27,111.12,140.1Z"/>
    <path class="cls-1" d="M172.28,32.17c-0.2,1.65-.38,3.48-0.11,2.37l0.16-1.44c0-.43.1-0.8,0.15-1a5,5,0,0,1,.3-1.12,1.65,1.65,0,0,1,.48-0.75,4.54,4.54,0,0,0,.61-0.8,12.8,12.8,0,0,1,2.27-2.67c0.64-.89.54-1-0.29-0.47a9.81,9.81,0,0,0-3.24,4C173.08,29.4,172.45,30.74,172.28,32.17Z"/>
    <path class="cls-1" d="M172.6,30.24a4.39,4.39,0,0,0-.34.79,9.18,9.18,0,0,0-.43,1.61c0.11-.53.23-0.87,0.33-1.29A11.57,11.57,0,0,1,172.6,30.24Z"/>
    <path class="cls-1" d="M232,100.54l-0.22.44-0.31,4.82A39.55,39.55,0,0,0,232,100.54Z"/>
    <polygon class="cls-1" points="224.34 186.05 223.06 183.58 223.46 184.98 224.34 186.05"/>
    <path class="cls-1" d="M262.34,211.71c1.4-1.9,2.93-3.89,4.22-5.69C266.43,205.09,265.22,207.65,262.34,211.71Z"/>
    <path class="cls-1" d="M252.16,148.7c0.12-.56.27-1.33,0.47-2.52Z"/>
    <path class="cls-1" d="M249.34,167.49l0.26-.42C249.69,166.32,249.57,166.66,249.34,167.49Z"/>
    <path class="cls-1" d="M340.22,174.15a1.71,1.71,0,0,0-.12-0.52Z"/>
    <path class="cls-1" d="M340.67,178.1c0,0.23,0,.46,0,0.7A2.11,2.11,0,0,0,340.67,178.1Z"/>
    <path class="cls-1" d="M340.22,174.15c0.15,0.93.38,2.9,0.45,3.95,0-.88-0.15-1.66-0.2-2.34A11,11,0,0,0,340.22,174.15Z"/>
    <path class="cls-1" d="M258.08,47.32c0-.14-0.34-0.82-2-2.77L256.34,45c0.18,0.26.4,0.61,0.6,1l0.58,1,0.24,0.46C257.73,47.16,258.09,47.47,258.08,47.32Z"/>
    <path class="cls-1" d="M87.21,32.78c0.23,0.12.54,0.27,0.79,0.42A1.66,1.66,0,0,0,87.21,32.78Z"/>
    <path class="cls-1" d="M153.67,385.69h-0.21A1.5,1.5,0,1,0,153.67,385.69Z"/>
    <path class="cls-1" d="M144.45,54.32l0-.52C144.11,55.65,143.94,56.7,144.45,54.32Z"/>
    <path class="cls-1" d="M272,290.12l-0.19.3,0.17-.22Z"/>
    <path class="cls-1" d="M272.56,287.06L272,290.12a39.47,39.47,0,0,1,5.08-6.89Z"/>
    <path class="cls-1" d="M250.89,156.91c0.05-.29.11-0.65,0.16-1.06Z"/>
    <path class="cls-1" d="M99.59,45.88c0.11,0.19.21,0.36,0.28,0.48Z"/>
    <path class="cls-1" d="M224.76,384.61a0.47,0.47,0,0,0,.23,0Z"/>
    <path class="cls-1" d="M340.21,178.38a1.5,1.5,0,0,1,.23.79C340.42,177.63,340.32,177.66,340.21,178.38Z"/>
    <path class="cls-1" d="M257.76,47.39a1,1,0,0,0,.1.3L258,47.93Z"/>
    <path class="cls-1" d="M189.15,385.89a32,32,0,0,1-3.21.38C188.49,386.13,189.24,386,189.15,385.89Z"/>
    <path class="cls-1" d="M66.2,327.63L65.63,327c-0.29-.32-0.56-0.66-0.56-0.66,0.76,1,1.56,1.94,2.34,2.87l0.18,2.09-0.15-2.1Z"/>
    <path class="cls-1" d="M81.88,385.92l0.93,0.53L83.75,387a3.47,3.47,0,0,0,.44.23l0-.64a12.9,12.9,0,0,1-2.76-.92A3.56,3.56,0,0,0,81.88,385.92Z"/>
    <path class="cls-1" d="M101.15,389.32c8.06-.3-0.55-0.26-1.19-0.41C94.13,389.3,100.5,389.18,101.15,389.32Z"/>
    <path class="cls-1" d="M247.18,337.18c-0.76-2.06-.51.32-0.58,4.88,0.13-1.82.44,5.51,0.61,3.73C246.63,339,247.73,344.71,247.18,337.18Z"/>
    <path class="cls-1" d="M246.6,342.06c0,0.39-.05,1-0.06,2.33Z"/>
    <path class="cls-1" d="M258.33,170.51l-0.34.21L256.05,174A24.61,24.61,0,0,0,258.33,170.51Z"/>
    <polygon class="cls-1" points="253.64 142.74 253.21 141.69 253.5 143.87 253.64 142.74"/>
    <path class="cls-1" d="M261.23,93.72c0.28-1.83.63-3.78,0.85-5.51C261.51,87.59,261.72,89.83,261.23,93.72Z"/>
    <path class="cls-1" d="M167.69,149l0.81,0Z"/>
  </g>
</svg>
